<svg xmlns="http://www.w3.org/2000/svg" xmlns:xlink="http://www.w3.org/1999/xlink" viewBox="0 0 1811.1 605.81"><defs><style>.cls-1,.cls-3{fill:red;}.cls-2,.cls-3{font-size:46.87px;font-family:GillSans, Gill Sans;}</style><symbol id="diamond1" data-name="diamond1" viewBox="0 0 80.23 79.73"><polygon class="cls-1" points="41.32 78.54 80.23 40.12 40.62 0 40.62 0 40.62 0 0 40.11 38.93 78.54 40.11 79.73 40.12 79.72 40.14 79.73 41.32 78.54"/></symbol><symbol id="heart2" data-name="heart2" viewBox="0 0 92.64 76.67"><path class="cls-1" d="M46.32,58.17c8.57,24.17,39,25.17,45.48,0C98.73,31.16,61.12,15.71,46.32,0,31.53,15.72-6.09,31.16.85,58.17,7.31,83.34,37.75,82.34,46.32,58.17Z"/></symbol><symbol id="Spade" data-name="Spade" viewBox="0 0 81.41 80.48"><path d="M58.81,16.29c-6.62-4.93-13.47-10-17.82-16l0,0L40.87.15,40.76,0l0,0-.05,0-.12.15-.15.12,0,0c-4.35,5.95-11.19,11-17.82,16C9.62,25.94-3.8,35.92,1,52.77c2.66,9.35,10,15.66,18.67,16.08,8.3.41,15.66-4.62,19.49-13.2-.52,9.13-1.87,18.38-9.33,24.42l-.5.41H52.1l-.51-.41c-7.45-6-8.81-15.29-9.32-24.42,3.82,8.58,11.2,13.61,19.48,13.2,8.69-.42,16-6.73,18.67-16.08C85.21,35.92,71.79,25.94,58.81,16.29Z"/></symbol><symbol id="Heart" data-name="Heart" viewBox="0 0 92.64 76.67"><path class="cls-1" d="M46.32,18.51c-8.57-24.17-39-25.18-45.47,0C-6.09,45.51,31.53,61,46.32,76.67,61.12,61,98.73,45.51,91.8,18.51,85.33-6.67,54.89-5.66,46.32,18.51Z"/></symbol><symbol id="spade2" data-name="spade2" viewBox="0 0 81.41 80.48"><path d="M22.6,64.19c6.62,4.92,13.47,10,17.82,16l0,0,.15.11.11.16.06,0,0,0,.11-.16.16-.11,0,0c4.35-6,11.2-11,17.82-16,13-9.65,26.4-19.63,21.61-36.48-2.66-9.36-10-15.67-18.67-16.09-8.3-.41-15.66,4.63-19.48,13.21.51-9.14,1.87-18.39,9.32-24.42l.5-.41H29.32l.5.41c7.46,6,8.81,15.28,9.32,24.42-3.82-8.58-11.2-13.62-19.48-13.21C11,12,3.65,18.36,1,27.71-3.8,44.56,9.62,54.54,22.6,64.19Z"/></symbol></defs><title>7</title><g id="clubs"><path d="M360.49,98.25a12.74,12.74,0,0,0-9.3-5.13c-3-.31-6.52,1.77-9.34,3.44a28.91,28.91,0,0,1-3.05,1.64,9.71,9.71,0,0,1,.34-1.49,26.87,26.87,0,0,1,2.8-5.84c2.64-4.55,5.38-9.26.18-16.78-3-4.34-9.14-6.75-18.76-7.37l-1.23-.08H322l-1.23.08c-9.63.62-15.76,3-18.77,7.37-5.2,7.52-2.46,12.23.19,16.78A27.16,27.16,0,0,1,305,96.72a9.66,9.66,0,0,1,.34,1.48,28.85,28.85,0,0,1-3-1.64c-2.83-1.67-6.34-3.75-9.35-3.44a12.74,12.74,0,0,0-9.3,5.13c-4.05,5.41-4.29,13.86-3.16,20,1.67,9,6.81,15,14.12,16.6a17.16,17.16,0,0,0,3.63.39c6.67,0,13.32-3.82,18-10.54a34.24,34.24,0,0,0,1.9-3.21c.26-.48.58-1.07.85-1.49a15.39,15.39,0,0,1,.72,1.74l0,7.35A31.85,31.85,0,0,1,310.13,144l-2.79,2.29h29.43L334,144a31.76,31.76,0,0,1-9.53-14.91v-7.37a13.33,13.33,0,0,1,.73-1.72c.26.42.58,1,.84,1.49a32.41,32.41,0,0,0,1.91,3.21c4.66,6.72,11.3,10.54,18,10.54a17.26,17.26,0,0,0,3.64-.39c7.3-1.57,12.45-7.62,14.11-16.6C364.78,112.11,364.55,103.66,360.49,98.25Z" transform="translate(-23.04 -16.79)"/><path d="M166.39,98.25a12.76,12.76,0,0,0-9.3-5.13c-3-.31-6.52,1.77-9.35,3.44a28.85,28.85,0,0,1-3,1.64,9.71,9.71,0,0,1,.34-1.49,27.31,27.31,0,0,1,2.79-5.84c2.65-4.55,5.39-9.26.19-16.78-3-4.34-9.14-6.75-18.77-7.37L128,66.64h-.15l-1.23.08c-9.62.62-15.76,3-18.76,7.37-5.2,7.52-2.46,12.23.18,16.78a27.19,27.19,0,0,1,2.8,5.85,11.08,11.08,0,0,1,.34,1.48,28.91,28.91,0,0,1-3-1.64c-2.83-1.67-6.33-3.75-9.34-3.44a12.74,12.74,0,0,0-9.3,5.13c-4.06,5.41-4.29,13.86-3.16,20,1.66,9,6.8,15,14.11,16.6a17.26,17.26,0,0,0,3.64.39c6.67,0,13.31-3.82,18-10.54a32.41,32.41,0,0,0,1.91-3.21c.26-.48.58-1.07.84-1.49a13.31,13.31,0,0,1,.73,1.74v7.35A31.76,31.76,0,0,1,116,144l-2.8,2.29h29.44l-2.8-2.29a31.85,31.85,0,0,1-9.54-14.91l0-7.37a15.44,15.44,0,0,1,.72-1.72c.27.42.59,1,.85,1.49a34.24,34.24,0,0,0,1.9,3.21c4.66,6.72,11.31,10.54,18,10.54a17.16,17.16,0,0,0,3.63-.39c7.31-1.57,12.45-7.62,14.12-16.6C170.68,112.11,170.44,103.66,166.39,98.25Z" transform="translate(-23.04 -16.79)"/><text class="cls-2" transform="translate(385.59 566.28) rotate(180)">7</text><path d="M376,553.14a7.71,7.71,0,0,0,5.62,3.1c1.82.19,3.94-1.07,5.65-2.07a15.16,15.16,0,0,1,1.84-1,6.37,6.37,0,0,1-.21.9,16.41,16.41,0,0,1-1.69,3.53c-1.6,2.75-3.25,5.59-.11,10.14,1.81,2.62,5.52,4.07,11.34,4.45l.74,0h.09l.74,0c5.81-.38,9.52-1.83,11.34-4.45,3.14-4.55,1.48-7.39-.12-10.14a16.38,16.38,0,0,1-1.68-3.53,6.37,6.37,0,0,1-.21-.9,15.94,15.94,0,0,1,1.84,1c1.71,1,3.83,2.26,5.64,2.07a7.69,7.69,0,0,0,5.62-3.1c2.45-3.26,2.59-8.37,1.91-12.06-1-5.43-4.11-9.08-8.52-10a10.28,10.28,0,0,0-2.2-.23c-4,0-8,2.3-10.86,6.36a20.35,20.35,0,0,0-1.15,1.94c-.16.29-.35.65-.51.9a10.13,10.13,0,0,1-.44-1v-4.44a19.25,19.25,0,0,1,5.76-9l1.69-1.39H390.3l1.69,1.39a19.18,19.18,0,0,1,5.76,9V539a8.33,8.33,0,0,1-.43,1c-.16-.25-.36-.61-.51-.9a20.59,20.59,0,0,0-1.16-1.94c-2.81-4-6.82-6.36-10.85-6.36a10.88,10.88,0,0,0-2.2.23c-4.41,1-7.52,4.61-8.52,10C373.38,544.77,373.53,549.88,376,553.14Z" transform="translate(-23.04 -16.79)"/><path d="M87.22,541.14a12.77,12.77,0,0,0,9.3,5.13c3,.3,6.52-1.77,9.35-3.44a27.35,27.35,0,0,1,3-1.65,9.71,9.71,0,0,1-.34,1.49,26.86,26.86,0,0,1-2.79,5.84c-2.65,4.56-5.39,9.27-.19,16.78,3,4.34,9.14,6.76,18.77,7.38l1.23.08h.15l1.23-.08c9.62-.62,15.76-3,18.76-7.38,5.2-7.51,2.46-12.22-.18-16.78a26.44,26.44,0,0,1-2.8-5.84,9.71,9.71,0,0,1-.34-1.49,27.4,27.4,0,0,1,3.05,1.65c2.83,1.67,6.33,3.74,9.34,3.44a12.75,12.75,0,0,0,9.3-5.14c4.06-5.4,4.29-13.86,3.16-20-1.66-9-6.81-15-14.11-16.6a17.24,17.24,0,0,0-3.64-.38c-6.67,0-13.31,3.82-18,10.53a32.41,32.41,0,0,0-1.91,3.21c-.26.48-.58,1.07-.84,1.49a13,13,0,0,1-.73-1.73v-7.36a31.73,31.73,0,0,1,9.53-14.9l2.8-2.3H110.94l2.8,2.3a31.82,31.82,0,0,1,9.54,14.9l0,7.37a14.63,14.63,0,0,1-.72,1.72c-.27-.41-.59-1-.85-1.49a34.24,34.24,0,0,0-1.9-3.21c-4.66-6.71-11.31-10.53-18-10.53a17.15,17.15,0,0,0-3.63.38c-7.31,1.57-12.45,7.62-14.12,16.6C82.93,527.27,83.17,535.73,87.22,541.14Z" transform="translate(-23.04 -16.79)"/><path d="M281.33,541.14a12.77,12.77,0,0,0,9.3,5.13c3,.3,6.52-1.77,9.34-3.44a27.4,27.4,0,0,1,3-1.65,11.13,11.13,0,0,1-.34,1.49,26.44,26.44,0,0,1-2.8,5.84c-2.64,4.56-5.38,9.27-.18,16.78,3,4.34,9.14,6.76,18.76,7.38l1.23.08h.15l1.23-.08c9.63-.62,15.76-3,18.77-7.38,5.2-7.51,2.46-12.22-.19-16.78a26.86,26.86,0,0,1-2.79-5.84,9.71,9.71,0,0,1-.34-1.49,27.35,27.35,0,0,1,3,1.65c2.83,1.67,6.34,3.74,9.35,3.44a12.79,12.79,0,0,0,9.3-5.14c4.05-5.4,4.29-13.86,3.16-20-1.67-9-6.81-15-14.12-16.6a17.15,17.15,0,0,0-3.63-.38c-6.67,0-13.32,3.82-18,10.53a34.24,34.24,0,0,0-1.9,3.21c-.26.48-.58,1.07-.85,1.49a15,15,0,0,1-.72-1.73l0-7.36a31.82,31.82,0,0,1,9.54-14.9l2.79-2.3H305.05l2.8,2.3a31.73,31.73,0,0,1,9.53,14.9l0,7.37a11.78,11.78,0,0,1-.72,1.72c-.26-.41-.58-1-.84-1.49a32.41,32.41,0,0,0-1.91-3.21c-4.66-6.71-11.3-10.53-18-10.53a17.24,17.24,0,0,0-3.64.38c-7.31,1.57-12.45,7.62-14.11,16.6C277,527.27,277.27,535.73,281.33,541.14Z" transform="translate(-23.04 -16.79)"/></g><g id="spades"><g id="numbering-2" data-name="numbering"><text class="cls-2" transform="translate(856.73 566.28) rotate(180)">7</text></g><path d="M858.86,563.67c4.06,3,8.26,6.15,10.93,9.8l0,0,.1.07.06.09,0,0,0,0,.07-.09.09-.07,0,0c2.67-3.65,6.87-6.78,10.94-9.8,8-5.92,16.19-12,13.25-22.38-1.63-5.74-6.12-9.61-11.45-9.87-5.09-.25-9.61,2.84-12,8.1.32-5.6,1.15-11.28,5.72-15l.31-.25H863l.31.25c4.57,3.7,5.4,9.38,5.72,15-2.35-5.26-6.88-8.35-12-8.1-5.33.26-9.82,4.13-11.45,9.87C842.66,551.63,850.89,557.75,858.86,563.67Z" transform="translate(-23.04 -16.79)"/></g><g id="diamonds"><use width="80.23" height="79.73" transform="translate(1670.04 49.79)" xlink:href="#diamond1"/><use width="80.23" height="79.73" transform="translate(1670.04 263.03)" xlink:href="#diamond1"/><use width="80.23" height="79.73" transform="translate(1475.94 49.79)" xlink:href="#diamond1"/><use width="80.23" height="79.73" transform="translate(1475.94 263.03)" xlink:href="#diamond1"/><use width="80.23" height="79.73" transform="translate(1473.65 476.28)" xlink:href="#diamond1"/><use width="80.23" height="79.73" transform="translate(1667.75 476.28)" xlink:href="#diamond1"/><text class="cls-3" transform="translate(1796.73 566.28) rotate(180)">7</text><g id="diamond1-14" data-name="diamond1"><polygon class="cls-1" points="1787.67 554.66 1811.1 531.53 1787.25 507.37 1787.24 507.37 1787.24 507.37 1762.79 531.52 1786.23 554.66 1786.94 555.38 1786.95 555.37 1786.96 555.38 1787.67 554.66"/></g></g><g id="hearts"><text class="cls-2" transform="translate(15.05 39.53)">7</text><text class="cls-2" transform="translate(486.19 39.53)">7</text><text class="cls-3" transform="translate(1426.19 39.53)">7</text><text class="cls-3" transform="translate(956.15 39.53)">7</text><text class="cls-3" transform="translate(1326.73 566.28) rotate(180)">7</text><use width="92.64" height="76.67" transform="translate(997.44 477.81)" xlink:href="#heart2"/><use width="92.64" height="76.67" transform="translate(1191.55 477.81)" xlink:href="#heart2"/><path class="cls-1" d="M1340.4,557.9c5,14.13,22.81,14.72,26.59,0,4.06-15.8-17.94-24.83-26.59-34-8.65,9.19-30.65,18.23-26.59,34C1317.59,572.62,1335.39,572,1340.4,557.9Z" transform="translate(-23.04 -16.79)"/><path d="M71.74,86.24a7.72,7.72,0,0,0-5.62-3.1c-1.81-.18-3.93,1.07-5.64,2.08a17.38,17.38,0,0,1-1.84,1,5.13,5.13,0,0,1,.21-.89,16.16,16.16,0,0,1,1.68-3.53c1.6-2.76,3.26-5.6.11-10.14C58.83,69,55.12,67.57,49.31,67.2l-.74,0h-.09l-.75,0c-5.81.37-9.52,1.83-11.33,4.45-3.14,4.54-1.49,7.38.11,10.14a16.19,16.19,0,0,1,1.69,3.53,5.91,5.91,0,0,1,.2.89,17.38,17.38,0,0,1-1.84-1c-1.7-1-3.82-2.26-5.64-2.08a7.72,7.72,0,0,0-5.62,3.1c-2.45,3.27-2.59,8.38-1.91,12.07,1,5.42,4.11,9.07,8.53,10a10.22,10.22,0,0,0,2.2.24c4,0,8-2.31,10.85-6.37a18.14,18.14,0,0,0,1.15-1.94c.16-.29.35-.64.51-.9a8.27,8.27,0,0,1,.44,1v4.45a19.18,19.18,0,0,1-5.76,9l-1.69,1.38H57.41l-1.69-1.38a19.25,19.25,0,0,1-5.76-9V100.4a8.63,8.63,0,0,1,.44-1c.16.25.35.61.51.9a18.14,18.14,0,0,0,1.15,1.94c2.82,4.06,6.83,6.37,10.86,6.37a10.13,10.13,0,0,0,2.19-.24c4.42-1,7.52-4.6,8.53-10C74.33,94.62,74.19,89.51,71.74,86.24Z" transform="translate(-23.04 -16.79)"/><path d="M263.44,204.87a12.75,12.75,0,0,0-9.3-5.14c-3-.3-6.52,1.78-9.34,3.44a27.4,27.4,0,0,1-3.05,1.65,9.71,9.71,0,0,1,.34-1.49,27.09,27.09,0,0,1,2.79-5.84c2.65-4.56,5.39-9.27.19-16.78-3-4.34-9.14-6.76-18.77-7.37l-1.23-.08h-.14l-1.23.08c-9.63.61-15.77,3-18.77,7.37-5.2,7.51-2.46,12.22.19,16.78a27.09,27.09,0,0,1,2.79,5.84,9.71,9.71,0,0,1,.34,1.49,27.4,27.4,0,0,1-3.05-1.65c-2.82-1.66-6.33-3.74-9.34-3.43a12.71,12.71,0,0,0-9.3,5.13c-4.05,5.4-4.29,13.86-3.16,20,1.66,9,6.81,15,14.11,16.6a17.31,17.31,0,0,0,3.64.38c6.67,0,13.31-3.81,18-10.53a32.41,32.41,0,0,0,1.91-3.21c.26-.48.58-1.07.85-1.49a15,15,0,0,1,.72,1.73v7.36a31.73,31.73,0,0,1-9.53,14.9l-2.8,2.3h29.44l-2.8-2.3a31.73,31.73,0,0,1-9.53-14.9v-7.37a15.44,15.44,0,0,1,.72-1.72c.27.42.59,1,.85,1.49a32.41,32.41,0,0,0,1.91,3.21c4.66,6.71,11.3,10.53,18,10.53a17.15,17.15,0,0,0,3.63-.38c7.31-1.57,12.46-7.62,14.12-16.6C267.73,218.73,267.49,210.27,263.44,204.87Z" transform="translate(-23.04 -16.79)"/><path d="M360.49,311.48a12.77,12.77,0,0,0-9.3-5.13c-3-.3-6.52,1.77-9.34,3.44a29.17,29.17,0,0,1-3.05,1.65,9.46,9.46,0,0,1,.34-1.49,26.44,26.44,0,0,1,2.8-5.84c2.64-4.56,5.38-9.27.18-16.79-3-4.34-9.14-6.75-18.76-7.37l-1.23-.08H322l-1.23.08c-9.63.62-15.76,3-18.77,7.37-5.2,7.52-2.46,12.23.19,16.79A26.86,26.86,0,0,1,305,310a9.46,9.46,0,0,1,.34,1.49,27.35,27.35,0,0,1-3-1.65c-2.83-1.67-6.34-3.74-9.35-3.44a12.77,12.77,0,0,0-9.3,5.13c-4.05,5.41-4.29,13.87-3.16,20,1.67,9,6.81,15,14.12,16.59a17.16,17.16,0,0,0,3.63.39c6.67,0,13.32-3.82,18-10.53a33.09,33.09,0,0,0,1.9-3.22c.26-.47.58-1.06.85-1.48a15,15,0,0,1,.72,1.73l0,7.36a31.87,31.87,0,0,1-9.54,14.9l-2.79,2.3h29.43l-2.8-2.3a31.78,31.78,0,0,1-9.53-14.9v-7.37a13.64,13.64,0,0,1,.73-1.73c.26.42.58,1,.84,1.49a32.48,32.48,0,0,0,1.91,3.22c4.66,6.71,11.3,10.53,18,10.53a17.26,17.26,0,0,0,3.64-.39c7.3-1.57,12.45-7.62,14.11-16.6C364.78,325.34,364.55,316.89,360.49,311.48Z" transform="translate(-23.04 -16.79)"/><path d="M166.39,311.48a12.79,12.79,0,0,0-9.3-5.13c-3-.3-6.52,1.77-9.35,3.44a29.11,29.11,0,0,1-3,1.65A9.46,9.46,0,0,1,145,310a26.86,26.86,0,0,1,2.79-5.84c2.65-4.56,5.39-9.27.19-16.79-3-4.34-9.14-6.75-18.77-7.37l-1.23-.08h-.15l-1.23.08c-9.62.62-15.76,3-18.76,7.37-5.2,7.52-2.46,12.23.18,16.79a26.89,26.89,0,0,1,2.8,5.84,10.79,10.79,0,0,1,.34,1.49,27.4,27.4,0,0,1-3-1.65c-2.83-1.67-6.33-3.74-9.34-3.44a12.77,12.77,0,0,0-9.3,5.13c-4.06,5.41-4.29,13.87-3.16,20,1.66,9,6.8,15,14.11,16.59a17.26,17.26,0,0,0,3.64.39c6.67,0,13.31-3.82,18-10.53a31.38,31.38,0,0,0,1.91-3.22c.26-.47.58-1.06.84-1.48a13,13,0,0,1,.73,1.73v7.36A31.78,31.78,0,0,1,116,357.2l-2.8,2.3h29.44l-2.8-2.3a31.87,31.87,0,0,1-9.54-14.9l0-7.37a15.85,15.85,0,0,1,.72-1.73c.27.42.59,1,.85,1.49a34.32,34.32,0,0,0,1.9,3.22c4.66,6.71,11.31,10.53,18,10.53a17.16,17.16,0,0,0,3.63-.39c7.31-1.57,12.45-7.62,14.12-16.6C170.68,325.34,170.44,316.89,166.39,311.48Z" transform="translate(-23.04 -16.79)"/><use width="80.23" height="79.73" transform="translate(1572.99 156.4)" xlink:href="#diamond1"/><path d="M530.77,75.92c-4.06-3-8.26-6.14-10.93-9.8l0,0-.1-.06-.06-.1,0,0,0,0-.07.1-.09.06,0,0c-2.67,3.66-6.87,6.78-10.94,9.8-8,5.92-16.19,12-13.25,22.39,1.63,5.73,6.12,9.61,11.45,9.86,5.09.26,9.61-2.83,12-8.1-.32,5.61-1.15,11.28-5.72,15l-.31.25h14l-.31-.25c-4.57-3.71-5.4-9.38-5.72-15,2.35,5.27,6.88,8.36,12,8.1,5.33-.25,9.82-4.13,11.45-9.86C547,88,538.74,81.84,530.77,75.92Z" transform="translate(-23.04 -16.79)"/><polygon class="cls-1" points="1437.35 97.6 1460.78 74.47 1436.93 50.31 1436.93 50.31 1436.93 50.31 1412.47 74.46 1435.91 97.6 1436.62 98.32 1436.63 98.31 1436.64 98.32 1437.35 97.6"/><path class="cls-1" d="M989.62,81.3c-5-14.14-22.81-14.73-26.59,0-4.06,15.79,17.94,24.82,26.59,34,8.65-9.19,30.65-18.22,26.59-34C1012.43,66.57,994.63,67.16,989.62,81.3Z" transform="translate(-23.04 -16.79)"/><use width="81.41" height="80.48" transform="translate(729.45 49.41)" xlink:href="#Spade"/><use width="81.41" height="80.48" transform="translate(535.34 49.41)" xlink:href="#Spade"/><use width="92.64" height="76.67" transform="translate(999.73 51.31)" xlink:href="#Heart"/><path class="cls-1" d="M1069.09,299.85c-8.57-24.17-39-25.18-45.48,0-6.93,27,30.68,42.45,45.48,58.17,14.8-15.72,52.41-31.16,45.48-58.17C1108.1,274.67,1077.66,275.68,1069.09,299.85Z" transform="translate(-23.04 -16.79)"/><use width="92.64" height="76.67" transform="translate(1193.83 51.31)" xlink:href="#Heart"/><path class="cls-1" d="M1263.2,299.85c-8.57-24.17-39-25.18-45.48,0-6.94,27,30.68,42.45,45.48,58.17,14.79-15.72,52.41-31.16,45.47-58.17C1302.2,274.67,1271.76,275.68,1263.2,299.85Z" transform="translate(-23.04 -16.79)"/><use width="92.64" height="76.67" transform="translate(1096.78 157.93)" xlink:href="#Heart"/><use width="81.41" height="80.48" transform="translate(533.06 475.9)" xlink:href="#spade2"/><use width="81.41" height="80.48" transform="translate(727.16 475.9)" xlink:href="#spade2"/><use width="81.41" height="80.48" transform="translate(632.4 156.03)" xlink:href="#Spade"/><use width="81.41" height="80.48" transform="translate(729.45 262.64)" xlink:href="#Spade"/><use width="81.41" height="80.48" transform="translate(535.34 262.64)" xlink:href="#Spade"/></g></svg>