<svg xmlns="http://www.w3.org/2000/svg" viewBox="0 0 1811.1 605.81"><defs><style>.cls-1,.cls-3{font-size:46.87px;font-family:GillSans, Gill Sans;}.cls-2,.cls-3{fill:red;}</style></defs><title>ace</title><g id="clubs"><text class="cls-1" transform="translate(390.59 566.28) rotate(180)">A</text><path d="M376,553.14a7.71,7.71,0,0,0,5.62,3.1c1.82.19,3.94-1.07,5.65-2.07a15.16,15.16,0,0,1,1.84-1,6.37,6.37,0,0,1-.21.9,16.41,16.41,0,0,1-1.69,3.53c-1.6,2.75-3.25,5.59-.11,10.14,1.81,2.62,5.52,4.07,11.34,4.45l.74,0h.09l.74,0c5.81-.38,9.52-1.83,11.34-4.45,3.14-4.55,1.48-7.39-.12-10.14a16.38,16.38,0,0,1-1.68-3.53,6.37,6.37,0,0,1-.21-.9,15.94,15.94,0,0,1,1.84,1c1.71,1,3.83,2.26,5.64,2.07a7.69,7.69,0,0,0,5.62-3.1c2.45-3.26,2.59-8.37,1.91-12.06-1-5.43-4.11-9.08-8.52-10a10.28,10.28,0,0,0-2.2-.23c-4,0-8,2.3-10.86,6.36a20.35,20.35,0,0,0-1.15,1.94c-.16.29-.35.65-.51.9a10.13,10.13,0,0,1-.44-1v-4.44a19.25,19.25,0,0,1,5.76-9l1.69-1.39H390.3l1.69,1.39a19.18,19.18,0,0,1,5.76,9V539a8.33,8.33,0,0,1-.43,1c-.16-.25-.36-.61-.51-.9a20.59,20.59,0,0,0-1.16-1.94c-2.81-4-6.82-6.36-10.85-6.36a10.88,10.88,0,0,0-2.2.23c-4.41,1-7.52,4.61-8.52,10C373.38,544.77,373.53,549.88,376,553.14Z" transform="translate(-23.04 -16.79)"/></g><g id="spades"><g id="numbering-2" data-name="numbering"><text class="cls-1" transform="translate(861.73 566.28) rotate(180)">A</text></g><path d="M858.86,563.67c4.06,3,8.26,6.15,10.93,9.8l0,0,.1.07.06.09,0,0,0,0,.07-.09.09-.07,0,0c2.67-3.65,6.87-6.78,10.94-9.8,8-5.92,16.19-12,13.25-22.38-1.63-5.74-6.12-9.61-11.45-9.87-5.09-.25-9.61,2.84-12,8.1.32-5.6,1.15-11.28,5.72-15l.31-.25H863l.31.25c4.57,3.7,5.4,9.38,5.72,15-2.35-5.26-6.88-8.35-12-8.1-5.33.26-9.82,4.13-11.45,9.87C842.66,551.63,850.89,557.75,858.86,563.67Z" transform="translate(-23.04 -16.79)"/></g><g id="diamonds"><g id="diamond1"><polygon class="cls-2" points="1616.16 424.72 1752.13 303.7 1613.72 177.3 1613.72 177.31 1613.72 177.3 1471.79 303.65 1607.81 424.72 1611.93 428.48 1611.99 428.44 1612.04 428.48 1616.16 424.72"/></g><text class="cls-3" transform="translate(1801.73 566.28) rotate(180)">A</text><g id="diamond1-3" data-name="diamond1"><polygon class="cls-2" points="1787.67 554.66 1811.1 531.53 1787.25 507.37 1787.24 507.37 1787.24 507.37 1762.79 531.52 1786.23 554.66 1786.94 555.38 1786.95 555.37 1786.96 555.38 1787.67 554.66"/></g></g><g id="hearts"><text class="cls-1" transform="translate(10.05 39.53)">A</text><text class="cls-1" transform="translate(481.19 39.53)">A</text><text class="cls-3" transform="translate(1421.19 39.53)">A</text><text class="cls-3" transform="translate(951.15 39.53)">A</text><text class="cls-3" transform="translate(1331.73 566.28) rotate(180)">A</text><path class="cls-2" d="M1340.4,557.9c5,14.13,22.81,14.72,26.59,0,4.06-15.8-17.94-24.83-26.59-34-8.65,9.19-30.65,18.23-26.59,34C1317.59,572.62,1335.39,572,1340.4,557.9Z" transform="translate(-23.04 -16.79)"/><path d="M71.74,86.24a7.72,7.72,0,0,0-5.62-3.1c-1.81-.18-3.93,1.07-5.64,2.08a17.38,17.38,0,0,1-1.84,1,5.13,5.13,0,0,1,.21-.89,16.16,16.16,0,0,1,1.68-3.53c1.6-2.76,3.26-5.6.11-10.14C58.83,69,55.12,67.57,49.31,67.2l-.74,0h-.09l-.75,0c-5.81.37-9.52,1.83-11.33,4.45-3.14,4.54-1.49,7.38.11,10.14a16.19,16.19,0,0,1,1.69,3.53,5.91,5.91,0,0,1,.2.89,17.38,17.38,0,0,1-1.84-1c-1.7-1-3.82-2.26-5.64-2.08a7.72,7.72,0,0,0-5.62,3.1c-2.45,3.27-2.59,8.38-1.91,12.07,1,5.42,4.11,9.07,8.53,10a10.22,10.22,0,0,0,2.2.24c4,0,8-2.31,10.85-6.37a18.14,18.14,0,0,0,1.15-1.94c.16-.29.35-.64.51-.9a8.27,8.27,0,0,1,.44,1v4.45a19.18,19.18,0,0,1-5.76,9l-1.69,1.38H57.41l-1.69-1.38a19.25,19.25,0,0,1-5.76-9V100.4a8.63,8.63,0,0,1,.44-1c.16.25.35.61.51.9a18.14,18.14,0,0,0,1.15,1.94c2.82,4.06,6.83,6.37,10.86,6.37a10.13,10.13,0,0,0,2.19-.24c4.42-1,7.52-4.6,8.53-10C74.33,94.62,74.19,89.51,71.74,86.24Z" transform="translate(-23.04 -16.79)"/><path d="M359.32,293.86c-7.87-9.48-18.81-14.92-32.5-16.17-10.5-1-22.77,5.58-32.65,10.83a102.51,102.51,0,0,1-10.64,5.19,27.49,27.49,0,0,1,1.19-4.69c2.2-6.7,6-12.65,9.76-18.4,9.25-14.35,18.82-29.19.65-52.87-10.5-13.67-31.95-21.27-65.58-23.22l-4.29-.25v0h-.52v0l-4.29.25c-33.64,1.95-55.09,9.55-65.58,23.22-18.17,23.68-8.6,38.52.65,52.87,3.72,5.75,7.55,11.7,9.76,18.41a28.21,28.21,0,0,1,1.19,4.68,99.58,99.58,0,0,1-10.64-5.19c-9.88-5.25-22.14-11.79-32.65-10.83-13.69,1.26-24.63,6.7-32.5,16.17-14.16,17-15,43.67-11,62.91,5.81,28.29,23.79,47.35,49.32,52.3a67.3,67.3,0,0,0,12.71,1.21c23.31,0,46.51-12,62.79-33.18A100.93,100.93,0,0,0,211.13,367c.91-1.51,2-3.37,3-4.69a42.52,42.52,0,0,1,2.53,5.46l0,23.18c-5.28,18.53-20.7,37.6-33.32,46.94l-9.77,7.24H276.43l-9.77-7.24c-12.62-9.34-28-28.41-33.32-46.94l0-23.22a43.27,43.27,0,0,1,2.52-5.43c.93,1.32,2.05,3.18,3,4.69a100.19,100.19,0,0,0,6.66,10.12c16.28,21.16,39.49,33.19,62.8,33.19A66.5,66.5,0,0,0,321,409.06c25.53-4.95,43.51-24,49.32-52.29C374.31,337.52,373.48,310.89,359.32,293.86Z" transform="translate(-23.04 -16.79)"/><path d="M530.77,75.92c-4.06-3-8.26-6.14-10.93-9.8l0,0-.1-.06-.06-.1,0,0,0,0-.07.1-.09.06,0,0c-2.67,3.66-6.87,6.78-10.94,9.8-8,5.92-16.19,12-13.25,22.39,1.63,5.73,6.12,9.61,11.45,9.86,5.09.26,9.61-2.83,12-8.1-.32,5.61-1.15,11.28-5.72,15l-.31.25h14l-.31-.25c-4.57-3.71-5.4-9.38-5.72-15,2.35,5.27,6.88,8.36,12,8.1,5.33-.25,9.82-4.13,11.45-9.86C547,88,538.74,81.84,530.77,75.92Z" transform="translate(-23.04 -16.79)"/><polygon class="cls-2" points="1437.35 97.6 1460.78 74.47 1436.93 50.31 1436.93 50.31 1436.93 50.31 1412.47 74.46 1435.91 97.6 1436.62 98.32 1436.63 98.31 1436.64 98.32 1437.35 97.6"/><path class="cls-2" d="M989.62,81.3c-5-14.14-22.81-14.73-26.59,0-4.06,15.79,17.94,24.82,26.59,34,8.65-9.19,30.65-18.22,26.59-34C1012.43,66.57,994.63,67.16,989.62,81.3Z" transform="translate(-23.04 -16.79)"/><path class="cls-2" d="M1165,257.21c-29.93-76.14-136.3-79.31-158.9,0-24.24,85.08,107.2,133.73,158.9,183.24,51.7-49.51,183.14-98.16,158.9-183.24C1301.3,177.9,1194.93,181.07,1165,257.21Z" transform="translate(-23.04 -16.79)"/><path d="M758.27,244.24c-23.15-15.52-47.08-31.58-62.28-50.32l.13-.15-.55-.36-.39-.49L695,193l-.18-.12-.39.49-.54.36.12.15c-15.2,18.74-39.13,34.8-62.28,50.32-45.34,30.4-92.23,61.83-75.5,114.92,9.28,29.46,34.89,49.34,65.23,50.67,29,1.29,54.72-14.58,68.08-41.61C687.75,397,683,426.14,657,445.15l-1.76,1.29H734.8L733,445.15c-26.06-19-30.78-48.15-32.58-76.93,13.36,27,39.14,42.9,68.09,41.61,30.34-1.33,55.94-21.22,65.22-50.67C850.51,306.07,803.62,274.64,758.27,244.24Z" transform="translate(-23.04 -16.79)"/></g></svg>