<?xml version="1.0" encoding="utf-8"?>
<!-- Generator: Adobe Illustrator 23.0.1, SVG Export Plug-In . SVG Version: 6.00 Build 0)  -->
<svg version="1.1" id="hearts_1_" xmlns="http://www.w3.org/2000/svg" xmlns:xlink="http://www.w3.org/1999/xlink" x="0px" y="0px"
	 viewBox="0 0 450 639.36" enable-background="new 0 0 450 639.36" xml:space="preserve">
<g>
	<g>
		<path fill="none" stroke="#000000" stroke-miterlimit="10" d="M-105.399,431.542"/>
		<path fill="none" stroke="#000000" stroke-miterlimit="10" d="M-381.546,432.868"/>
		<path fill="none" stroke="#000000" stroke-miterlimit="10" d="M-105.399,318.387"/>
		<path fill="none" stroke="#000000" stroke-miterlimit="10" d="M-382.396,207.818"/>
		<path fill="none" stroke="#000000" stroke-miterlimit="10" d="M-106.249,206.492"/>
		<path fill="none" stroke="#000000" stroke-miterlimit="10" d="M-382.396,320.973"/>
	</g>
	<g>
		<g>
			<path d="M-158.564,236.949c-2.676-0.293-6.132-0.653-7.914-0.486c11.318-6.11,15.061-25.902-0.661-28.351
				c6.482,1.103,8.734,16.905,0.519,17.295l-1.259-12.59l-2.833-0.63c0.302,2.317,0.981,5.44,0.297,7.73
				c-0.704,2.359-5.147,5.354-4.389,8.008c0.63,2.203,1.889,10.072,1.889,10.072c-4.214-3.558-8.412-7.368-13.519-3.148
				c10.143-2.428,11.306,13.806,11.004,20.119c-0.201,4.189-1.423,8.277-1.754,12.485c-0.36,4.565,0.071,9.101-0.452,13.665
				c-5.248-6.617-10.613-12.064-17.37-17.089c-9.34-6.946-18.306-9.598-29.21-12.34c0.967-0.098,1.96-0.471,2.964-1.098l-6.408,0.12
				c0.274,0.199-0.283-0.139,0,0c-0.407-0.296-0.804-0.655-1.189-1.089c-2.667-2.962-1.847-5.643-0.022-7.79l-0.008-0.057
				c-1.747,2.688-4.205,3.675-7.295,2.333c-2.485-1.055-3.46-2.67-3.601-4.446c1.476-2.021,3.428-3.953,4.679-5.438
				c4.247-5.04,7.444-11.158,9.599-17.377v-3.275c4.354-0.376,4.361-3.587,4.35-7.326c-0.012-4.106,0.094-6.674-4.35-7.633
				c-0.332-1.504,0.036-3.18,0.041-4.718l0,0c1.258-2.121,5.728-2.011,7.876-2.144c4.298-0.266,8.163,0.515,12.002,2.458
				c6.831,3.458,9.801,11.884,11.123,19.137c-2.016,0.262-3.575,1.982-3.575,4.069c0,2.269,1.839,4.108,4.108,4.108
				c2.269,0,4.108-1.839,4.108-4.108c0-2.269-1.839-4.108-4.108-4.108c-0.084,0-0.166,0.008-0.248,0.013
				c2.935-10.694,0.03-23.448-8.143-31.209c-8.142-7.732-20.555-7.171-30.782-5.544c-0.934-5.018-0.497-9.753,3.652-13.084
				c3.681-2.955,7.848-5.385,11.946-7.713c0,0,4.066-1.573,11.323-0.964c-0.045,0.242-0.071,0.491-0.071,0.746
				c0,2.269,1.839,4.108,4.108,4.108c2.269,0,4.108-1.839,4.108-4.108s-1.839-4.108-4.108-4.108c-1.937,0-3.556,1.342-3.99,3.145
				c-4.036-1.251-8.188-2.438-12.371-2.964c-5.417-0.681-11.196,0.684-16.437,1.954c-9.914,2.404-22.372,10.987-22.423,22.368
				c-7.002-1.883-13.29-1.756-20.426-0.867c-6.974,3.912-11.874,10.743-15.163,17.921c-2.255,4.922-2.98,10.247-3.82,15.545
				c-0.013,0.085-0.061,0.374-0.112,0.685c-0.163-0.02-0.328-0.033-0.496-0.033c-2.269,0-4.108,1.839-4.108,4.108
				c0,2.269,1.839,4.108,4.108,4.108c2.269,0,4.108-1.839,4.108-4.108c0-2.022-1.463-3.699-3.387-4.04
				c2.939-5.554,6.342-10.911,11.294-14.898c5.767-4.643,13.449-3.63,20.179-1.995l0.004,0c-0.498,1.891,0.316,4.22-0.13,6.239
				c-4.443,0.959-4.338,3.527-4.35,7.633c-0.011,3.74-0.005,6.95,4.35,7.326v3.275c2.155,6.219,5.352,12.337,9.599,17.377
				c1.299,1.542,3.354,3.566,4.847,5.672c-0.132,1.856-1.167,3.381-3.252,4.422c-3.551,1.809-5.929,0.323-7.53-1.995l0.046,0.136
				c2.144,2.383,2.461,5.013,0.365,7.65c-0.397,0.509-0.804,0.917-1.216,1.253l0.199-0.004c-0.093,0.023-0.185,0.046-0.278,0.069
				c0.026-0.021,0.053-0.044,0.079-0.066l-6.452,0.121c0.776,0.454,1.587,0.797,2.413,0.953c-9.615,2.511-17.8,5.28-26.296,11.593
				c-6.76,5.023-12.124,10.468-17.37,17.089c-0.487-4.254-0.12-8.464-0.373-12.719c-0.27-4.538-1.62-8.929-1.833-13.432
				c-0.3-6.34,0.862-22.542,11.004-20.119c-5.102-4.217-9.291-0.416-13.519,3.148c0.679-4.198,2.633-8.984,0.992-12.918
				c-0.947-2.271-3.005-3.317-3.551-5.907c-0.444-2.107,0.076-4.853,0.355-6.985l-2.833,0.63l-1.259,12.59
				c-8.215-0.39-5.963-16.192,0.519-17.295c-15.718,2.449-11.989,22.236-0.661,28.351c-1.782-0.167-5.238,0.193-7.914,0.486
				c4.1,0.909,9.977,5.703,11.365,9.762c1.423,4.162-1.803,9.973-2.629,14.059c-2.149,10.627-3.437,20.653,0.579,31.051
				c5.8,6.241,18.98,1.275,25.385-1.293c7.161-2.87,12.693-8.367,18.021-13.816c8.878,9.906,6.796,21.097,6.238,33.656
				c-0.215,4.842,0.656,11.922-1.245,16.475c-2.174,5.205-4.759,14.8-4.759,14.8l-0.179,0.499c-0.363,1.014-0.272,1.979,0.263,2.792
				c1.596,2.422,6.624,3.051,11.819,3.369l0.575,0.036c5.601,0.369,10.831,2.025,15.892,5.031v25.606h2.752v7.075h1.004h0.502h1.004
				v-7.075h1.783v-25.013c5.362-3.384,10.9-5.232,16.86-5.625l0.575-0.036c5.195-0.318,10.223-0.947,11.82-3.369
				c0.535-0.813,0.626-1.778,0.263-2.792l-0.179-0.499c0,0-2.601-9.66-4.758-14.8c-1.921-4.575-1.029-11.599-1.245-16.475
				c-0.555-12.5-2.686-23.82,6.238-33.656c5.327,5.447,10.862,10.946,18.021,13.816c6.515,2.611,19.475,7.483,25.385,1.293
				c4.016-10.37,2.724-20.445,0.579-31.051c-0.777-3.841-3.915-9.578-2.887-13.487C-169.04,242.923-162.863,237.902-158.564,236.949
				z"/>
		</g>
		<path d="M-165.92,199.605l-9.153-5.285c-0.64-0.369-0.861-1.195-0.492-1.835l7.896-13.676c0.369-0.64,1.195-0.861,1.835-0.492
			l9.153,5.285c0.64,0.369,0.861,1.195,0.492,1.835l-7.896,13.676C-164.455,199.753-165.28,199.974-165.92,199.605z"/>
		<path d="M-321.875,200.609l9.153-5.285c0.64-0.369,0.861-1.195,0.492-1.835l-7.896-13.676c-0.369-0.64-1.195-0.861-1.835-0.492
			l-9.153,5.285c-0.64,0.369-0.861,1.195-0.492,1.835l7.896,13.676C-323.34,200.757-322.515,200.979-321.875,200.609z"/>
		<path d="M-304.135,136.18l10.409-1.835c0.727-0.128,1.218-0.828,1.089-1.556l-2.742-15.552c-0.128-0.727-0.828-1.218-1.556-1.089
			l-10.409,1.835c-0.727,0.128-1.218,0.828-1.089,1.556l2.742,15.552C-305.562,135.819-304.862,136.309-304.135,136.18z"/>
		<path d="M-203.491,116.715l-10.409-1.835c-0.727-0.128-1.218-0.828-1.089-1.556l2.742-15.552c0.128-0.727,0.828-1.218,1.556-1.089
			l10.409,1.835c0.727,0.128,1.218,0.828,1.089,1.556l-2.742,15.552C-202.063,116.353-202.763,116.843-203.491,116.715z"/>
		<path d="M-174.754,166.603l-7.474-7.474c-0.522-0.522-0.522-1.377,0-1.899l11.167-11.167c0.522-0.522,1.377-0.522,1.899,0
			l7.474,7.474c0.522,0.522,0.522,1.377,0,1.899l-11.167,11.167C-173.377,167.125-174.232,167.125-174.754,166.603z"/>
		<path d="M-244.098,109.007l-6.794-8.097c-0.475-0.566-0.4-1.417,0.166-1.892l12.097-10.151c0.566-0.475,1.417-0.4,1.892,0.166
			l6.794,8.097c0.475,0.566,0.4,1.417-0.166,1.892l-12.097,10.151C-242.772,109.647-243.623,109.573-244.098,109.007z"/>
		<path d="M-183.332,139.759l8.097-6.794c0.566-0.475,0.64-1.326,0.166-1.892l-10.151-12.097c-0.475-0.566-1.326-0.64-1.892-0.166
			l-8.097,6.794c-0.566,0.475-0.64,1.326-0.166,1.892l10.151,12.097C-184.749,140.159-183.898,140.233-183.332,139.759z"/>
		<path d="M-272.482,116.968l7.474-7.474c0.522-0.522,0.522-1.377,0-1.899l-11.167-11.167c-0.522-0.522-1.377-0.522-1.899,0
			l-7.474,7.474c-0.522,0.522-0.522,1.377,0,1.899l11.167,11.167C-273.859,117.49-273.004,117.49-272.482,116.968z"/>
		<path d="M-317.87,164.468l-6.794-8.097c-0.475-0.566-0.4-1.417,0.166-1.892l12.097-10.151c0.566-0.475,1.417-0.4,1.892,0.166
			l6.794,8.097c0.475,0.566,0.4,1.417-0.166,1.892l-12.097,10.151C-316.543,165.108-317.395,165.034-317.87,164.468z"/>
		<g>
			<circle fill="none" stroke="#575959" stroke-width="9" stroke-miterlimit="10" cx="-243.394" cy="464.891" r="80.321"/>
			<circle fill="none" stroke="#000000" stroke-width="2" stroke-miterlimit="10" cx="-243.394" cy="464.891" r="77.927"/>
			<circle fill="none" stroke="#000000" stroke-width="16" stroke-miterlimit="10" cx="-243.394" cy="464.891" r="85.914"/>
			<circle stroke="#000000" stroke-width="3" stroke-miterlimit="10" cx="-243.898" cy="464.891" r="2.905"/>
			<circle fill="none" stroke="#000000" stroke-width="3" stroke-miterlimit="10" cx="-243.898" cy="464.891" r="8.842"/>
			<line stroke="#000000" stroke-miterlimit="10" x1="-237.417" y1="458.879" x2="-237.417" y2="387.19"/>
			<line stroke="#000000" stroke-miterlimit="10" x1="-250.26" y1="458.879" x2="-250.26" y2="387.19"/>
			<line stroke="#000000" stroke-miterlimit="10" x1="-237.417" y1="542.818" x2="-237.417" y2="471.129"/>
			<line stroke="#000000" stroke-miterlimit="10" x1="-250.26" y1="542.818" x2="-250.26" y2="471.129"/>
			<g>
				<line stroke="#000000" stroke-miterlimit="10" x1="-249.544" y1="458.469" x2="-321.233" y2="458.469"/>
				<line stroke="#000000" stroke-miterlimit="10" x1="-249.544" y1="471.313" x2="-321.233" y2="471.313"/>
				<line stroke="#000000" stroke-miterlimit="10" x1="-165.606" y1="458.469" x2="-237.295" y2="458.469"/>
				<line stroke="#000000" stroke-miterlimit="10" x1="-165.606" y1="471.313" x2="-237.295" y2="471.313"/>
			</g>
			<g>
				<line stroke="#000000" stroke-miterlimit="10" x1="-252.266" y1="465.141" x2="-302.958" y2="515.833"/>
				<line stroke="#000000" stroke-miterlimit="10" x1="-243.185" y1="474.223" x2="-293.876" y2="524.915"/>
				<line stroke="#000000" stroke-miterlimit="10" x1="-192.913" y1="405.788" x2="-243.604" y2="456.48"/>
				<line stroke="#000000" stroke-miterlimit="10" x1="-183.831" y1="414.87" x2="-234.523" y2="465.561"/>
			</g>
			<g>
				<line stroke="#000000" stroke-miterlimit="10" x1="-244.132" y1="474.265" x2="-193.44" y2="524.957"/>
				<line stroke="#000000" stroke-miterlimit="10" x1="-235.05" y1="465.183" x2="-184.358" y2="515.875"/>
				<line stroke="#000000" stroke-miterlimit="10" x1="-303.485" y1="414.911" x2="-252.793" y2="465.603"/>
				<line stroke="#000000" stroke-miterlimit="10" x1="-294.403" y1="405.83" x2="-243.712" y2="456.521"/>
			</g>
			<g>
				<g>
					<line stroke="#000000" stroke-miterlimit="10" x1="-236.835" y1="459.572" x2="-226.517" y2="388.803"/>
					<line stroke="#000000" stroke-miterlimit="10" x1="-250.785" y1="459.572" x2="-261.103" y2="388.803"/>
				</g>
				<g>
					<line stroke="#000000" stroke-miterlimit="10" x1="-237.157" y1="470.082" x2="-226.839" y2="540.851"/>
					<line stroke="#000000" stroke-miterlimit="10" x1="-251.107" y1="470.082" x2="-261.425" y2="540.851"/>
				</g>
			</g>
			<line stroke="#000000" stroke-miterlimit="10" x1="-248.724" y1="457.691" x2="-319.493" y2="447.373"/>
			<line stroke="#000000" stroke-miterlimit="10" x1="-248.724" y1="471.641" x2="-319.493" y2="481.959"/>
			<line stroke="#000000" stroke-miterlimit="10" x1="-238.214" y1="458.013" x2="-167.445" y2="447.695"/>
			<line stroke="#000000" stroke-miterlimit="10" x1="-238.214" y1="471.963" x2="-167.445" y2="482.281"/>
			<line stroke="#000000" stroke-miterlimit="10" x1="-252.157" y1="464.063" x2="-309.494" y2="506.809"/>
			<line stroke="#000000" stroke-miterlimit="10" x1="-242.293" y1="473.927" x2="-285.038" y2="531.265"/>
			<line stroke="#000000" stroke-miterlimit="10" x1="-244.498" y1="456.859" x2="-201.752" y2="399.522"/>
			<line stroke="#000000" stroke-miterlimit="10" x1="-234.634" y1="466.723" x2="-177.296" y2="423.977"/>
			<line stroke="#000000" stroke-miterlimit="10" x1="-245.017" y1="474.405" x2="-202.271" y2="531.743"/>
			<line stroke="#000000" stroke-miterlimit="10" x1="-235.153" y1="464.541" x2="-177.815" y2="507.287"/>
			<line stroke="#000000" stroke-miterlimit="10" x1="-252.221" y1="466.746" x2="-309.558" y2="424.001"/>
			<line stroke="#000000" stroke-miterlimit="10" x1="-242.357" y1="456.882" x2="-285.102" y2="399.545"/>
		</g>
	</g>
	<g>
		<rect x="-446.03" y="19.767" fill="none" width="33.674" height="234.787"/>
		<path d="M-429.898,27.029h4.395v30.3c0,2.827-0.289,4.918-0.868,6.273c-0.578,1.354-1.513,2.438-2.802,3.252
			c-1.289,0.812-2.842,1.219-4.658,1.219c-0.277,0-0.754-0.044-1.428-0.132l-0.812-4.087h1.12c1.26,0,2.223-0.154,2.89-0.461
			c0.666-0.308,1.193-0.85,1.582-1.626c0.388-0.776,0.582-2.424,0.582-4.944V27.029z"/>
		<path d="M-427.777,71.589c4.742,0,8.691,1.501,11.846,4.504c3.155,3.003,4.732,6.768,4.732,11.294s-1.592,8.272-4.776,11.239
			c-3.184,2.966-7.198,4.449-12.043,4.449c-4.626,0-8.48-1.483-11.562-4.449c-3.082-2.967-4.622-6.684-4.622-11.151
			c0-4.585,1.552-8.379,4.655-11.382S-432.521,71.589-427.777,71.589z M-427.602,75.764c-3.513,0-6.399,1.099-8.66,3.296
			c-2.262,2.197-3.392,5.002-3.392,8.416c0,3.311,1.134,6.064,3.402,8.262s5.107,3.296,8.518,3.296c3.424,0,6.281-1.121,8.572-3.362
			c2.29-2.241,3.436-5.032,3.436-8.372c0-3.252-1.146-5.987-3.436-8.207C-421.452,76.874-424.266,75.764-427.602,75.764z"/>
		<path d="M-421.713,117.029h5.492l-13.314,14.568l16.589,16.128h-5.999l-15.688-15.161v15.161h-4.395v-30.696h4.395v14.041
			L-421.713,117.029z"/>
		<path d="M-435.567,162.029h17.402v3.911h-13.008v9.36h12.568v3.933h-12.568v9.536h13.425v3.911h-17.819V162.029z"/>
		<path d="M-437.775,237.725v-30.696h7.69c3.105,0,5.57,0.769,7.394,2.307c1.824,1.538,2.736,3.618,2.736,6.24
			c0,1.787-0.447,3.333-1.341,4.636s-2.175,2.278-3.845,2.922c0.98,0.645,1.94,1.523,2.878,2.637s2.256,3.054,3.955,5.823
			c1.069,1.743,1.926,3.054,2.571,3.933l1.625,2.197h-5.229l-1.339-2.022c-0.044-0.073-0.132-0.198-0.264-0.374l-0.855-1.209
			l-1.361-2.242l-1.47-2.396c-0.907-1.26-1.738-2.264-2.493-3.009c-0.756-0.746-1.438-1.283-2.046-1.612
			c-0.609-0.329-1.632-0.494-3.069-0.494h-1.144v13.359H-437.775z M-432.062,210.764h-1.318v9.69h1.67
			c2.227,0,3.754-0.19,4.581-0.571c0.828-0.381,1.473-0.956,1.934-1.725c0.462-0.77,0.692-1.645,0.692-2.626
			c0-0.967-0.257-1.842-0.77-2.626c-0.513-0.783-1.233-1.336-2.164-1.659C-428.367,210.925-429.909,210.764-432.062,210.764z"/>
	</g>
	<g>
		<rect x="-77.643" y="384.806" fill="none" width="33.674" height="234.787"/>
		<path d="M-60.103,612.331h-4.395v-30.3c0-2.828,0.289-4.918,0.868-6.273c0.578-1.355,1.513-2.439,2.802-3.252
			s2.842-1.22,4.658-1.22c0.277,0,0.754,0.044,1.428,0.132l0.812,4.087h-1.12c-1.26,0-2.223,0.153-2.89,0.462
			c-0.666,0.307-1.193,0.85-1.582,1.625c-0.388,0.777-0.582,2.425-0.582,4.944V612.331z"/>
		<path d="M-62.224,567.771c-4.742,0-8.691-1.501-11.846-4.505c-3.155-3.002-4.732-6.768-4.732-11.293
			c0-4.527,1.592-8.273,4.776-11.24c3.184-2.965,7.198-4.449,12.043-4.449c4.626,0,8.48,1.484,11.562,4.449
			c3.082,2.967,4.622,6.684,4.622,11.152c0,4.584-1.552,8.379-4.655,11.381C-53.558,566.27-57.48,567.771-62.224,567.771z
			 M-62.399,563.596c3.513,0,6.399-1.099,8.66-3.296c2.262-2.197,3.392-5.003,3.392-8.415c0-3.311-1.134-6.064-3.402-8.262
			s-5.107-3.297-8.518-3.297c-3.424,0-6.281,1.121-8.572,3.362c-2.29,2.241-3.436,5.032-3.436,8.372
			c0,3.252,1.146,5.986,3.436,8.207C-68.549,562.486-65.735,563.596-62.399,563.596z"/>
		<path d="M-68.288,522.331h-5.492l13.314-14.567l-16.589-16.129h5.999l15.688,15.162v-15.162h4.395v30.696h-4.395v-14.04
			L-68.288,522.331z"/>
		<path d="M-54.434,477.331h-17.402v-3.911h13.008v-9.36h-12.568v-3.933h12.568v-9.537h-13.425v-3.91h17.819V477.331z"/>
		<path d="M-52.226,401.635v30.696h-7.69c-3.105,0-5.57-0.769-7.394-2.308c-1.824-1.537-2.736-3.617-2.736-6.24
			c0-1.787,0.447-3.332,1.341-4.636s2.175-2.278,3.845-2.923c-0.98-0.645-1.94-1.523-2.878-2.637s-2.256-3.054-3.955-5.822
			c-1.069-1.743-1.926-3.055-2.571-3.934l-1.625-2.197h5.229l1.339,2.023c0.044,0.072,0.132,0.197,0.264,0.373l0.855,1.209
			l1.361,2.242l1.47,2.396c0.907,1.261,1.738,2.264,2.493,3.01c0.756,0.746,1.438,1.283,2.046,1.612
			c0.609,0.329,1.632,0.493,3.069,0.493h1.144v-13.359H-52.226z M-57.938,428.596h1.318v-9.689h-1.67
			c-2.227,0-3.754,0.189-4.581,0.57c-0.828,0.381-1.473,0.957-1.934,1.725c-0.462,0.77-0.692,1.645-0.692,2.627
			c0,0.967,0.257,1.842,0.77,2.625s1.233,1.337,2.164,1.659C-61.634,428.435-60.092,428.596-57.938,428.596z"/>
	</g>
</g>
<g>
	<g>
		<path fill="none" stroke="#000000" stroke-miterlimit="10" d="M364.601,431.542"/>
		<path fill="none" stroke="#000000" stroke-miterlimit="10" d="M88.454,432.868"/>
		<path fill="none" stroke="#000000" stroke-miterlimit="10" d="M364.601,318.387"/>
		<path fill="none" stroke="#000000" stroke-miterlimit="10" d="M87.604,207.818"/>
		<path fill="none" stroke="#000000" stroke-miterlimit="10" d="M363.751,206.492"/>
		<path fill="none" stroke="#000000" stroke-miterlimit="10" d="M87.604,320.973"/>
	</g>
	<g>
		<g>
			<path d="M228.039,428.007v-8.595c5.362-3.384,10.9-5.232,16.86-5.625l0.575-0.036c5.195-0.318,10.223-0.947,11.82-3.369
				c0.535-0.813,0.626-1.778,0.263-2.792l-0.179-0.499c0,0-2.601-9.66-4.758-14.8c-1.921-4.575-1.029-11.599-1.245-16.475
				c-0.555-12.5-2.686-23.82,6.238-33.656c5.327,5.447,10.862,10.946,18.021,13.816c6.515,2.611,19.475,7.483,25.385,1.293
				c4.016-10.37,2.724-20.445,0.579-31.051c-0.777-3.841-3.915-9.578-2.887-13.487c1.147-4.361,7.323-9.382,11.623-10.335
				c-2.676-0.293-6.132-0.653-7.914-0.486c11.318-6.11,15.061-25.902-0.661-28.351c6.482,1.103,8.734,16.905,0.519,17.295
				l-1.259-12.59l-2.833-0.629c0.302,2.317,0.981,5.44,0.297,7.73c-0.704,2.359-5.147,5.354-4.389,8.008
				c0.63,2.203,1.889,10.072,1.889,10.072c-4.214-3.558-8.412-7.368-13.519-3.148c10.143-2.428,11.306,13.806,11.004,20.119
				c-0.201,4.189-1.423,8.277-1.754,12.485c-0.36,4.565,0.071,9.101-0.452,13.665c-5.248-6.617-10.613-12.064-17.37-17.089
				c-9.34-6.946-18.306-9.598-29.21-12.34c0.967-0.098,1.96-0.471,2.964-1.098l-6.408,0.12c0.274,0.199-0.283-0.139,0,0
				c-0.407-0.296-0.804-0.655-1.189-1.089c-2.667-2.962-1.847-5.643-0.022-7.79l-0.008-0.057c-1.747,2.688-4.205,3.675-7.295,2.333
				c-2.485-1.055-3.46-2.67-3.601-4.446c1.476-2.021,3.428-3.953,4.679-5.438c4.247-5.04,7.444-11.158,9.599-17.377v-3.275
				c4.354-0.376,4.361-3.587,4.35-7.326c-0.012-4.106,0.094-6.674-4.35-7.633c-0.332-1.504,0.036-3.18,0.041-4.718l0,0
				c1.258-2.121,5.728-2.011,7.876-2.144c4.298-0.266,8.163,0.515,12.002,2.458c6.831,3.458,9.802,11.884,11.123,19.137
				c-2.016,0.262-3.575,1.982-3.575,4.069c0,2.269,1.839,4.108,4.108,4.108s4.108-1.839,4.108-4.108
				c0-2.269-1.839-4.108-4.108-4.108c-0.084,0-0.166,0.008-0.248,0.013c2.935-10.694,0.03-23.448-8.143-31.209
				c-8.142-7.732-20.555-7.171-30.782-5.544c-0.934-5.018-0.497-9.753,3.652-13.084c3.681-2.955,7.848-5.385,11.946-7.713
				c0,0,4.066-1.573,11.323-0.964c-0.045,0.242-0.071,0.491-0.071,0.746c0,2.269,1.839,4.108,4.108,4.108
				c2.269,0,4.108-1.839,4.108-4.108s-1.839-4.108-4.108-4.108c-1.937,0-3.556,1.342-3.99,3.145
				c-4.036-1.251-8.188-2.438-12.371-2.964c-5.417-0.681-11.196,0.684-16.437,1.954c-9.914,2.404-22.372,10.987-22.423,22.368
				c-7.002-1.883-13.29-1.756-20.426-0.867c-6.974,3.912-11.874,10.743-15.163,17.921c-2.255,4.922-2.98,10.247-3.82,15.545
				c-0.013,0.085-0.061,0.374-0.112,0.685c-0.163-0.02-0.328-0.033-0.496-0.033c-2.269,0-4.108,1.839-4.108,4.108
				c0,2.269,1.839,4.108,4.108,4.108c2.269,0,4.108-1.839,4.108-4.108c0-2.022-1.463-3.699-3.387-4.04
				c2.939-5.554,6.342-10.911,11.294-14.898c5.767-4.643,13.449-3.63,20.179-1.995l0.004,0c-0.498,1.891,0.316,4.22-0.13,6.239
				c-4.443,0.959-4.338,3.527-4.35,7.633c-0.011,3.74-0.005,6.95,4.35,7.326v3.275c2.155,6.219,5.352,12.337,9.599,17.377
				c1.299,1.542,3.354,3.566,4.847,5.672c-0.132,1.856-1.167,3.381-3.252,4.422c-3.551,1.809-5.929,0.323-7.53-1.995l0.046,0.136
				c2.144,2.383,2.461,5.013,0.365,7.65c-0.397,0.509-0.804,0.917-1.216,1.253l0.199-0.004c-0.093,0.023-0.185,0.046-0.278,0.069
				c0.026-0.021,0.053-0.044,0.079-0.066l-6.452,0.121c0.776,0.454,1.587,0.797,2.413,0.953c-9.615,2.511-17.8,5.28-26.296,11.593
				c-6.76,5.023-12.124,10.468-17.37,17.089c-0.487-4.254-0.12-8.464-0.373-12.719c-0.27-4.538-1.62-8.929-1.833-13.432
				c-0.3-6.34,0.862-22.542,11.004-20.119c-5.102-4.217-9.291-0.416-13.519,3.148c0.679-4.198,2.633-8.984,0.992-12.918
				c-0.947-2.271-3.005-3.317-3.551-5.907c-0.444-2.107,0.076-4.853,0.355-6.985l-2.833,0.629l-1.259,12.59
				c-8.215-0.39-5.963-16.192,0.519-17.295c-15.718,2.449-11.989,22.236-0.661,28.351c-1.782-0.167-5.238,0.193-7.914,0.486
				c4.1,0.909,9.977,5.703,11.365,9.762c1.423,4.162-1.803,9.973-2.629,14.059c-2.149,10.627-3.437,20.653,0.579,31.051
				c5.8,6.241,18.98,1.275,25.385-1.293c7.161-2.87,12.693-8.367,18.021-13.816c8.878,9.906,6.796,21.097,6.238,33.656
				c-0.215,4.842,0.656,11.922-1.245,16.475c-2.174,5.205-4.759,14.8-4.759,14.8l-0.179,0.499c-0.363,1.014-0.272,1.979,0.263,2.792
				c1.596,2.422,6.624,3.051,11.819,3.369l0.575,0.036c5.601,0.369,10.831,2.025,15.891,5.031v9.188"/>
		</g>
		<path d="M302.978,265.053l-9.153-5.285c-0.64-0.369-0.861-1.195-0.492-1.835l7.896-13.676c0.369-0.64,1.195-0.861,1.835-0.492
			l9.153,5.285c0.64,0.369,0.861,1.195,0.492,1.835l-7.896,13.676C304.443,265.202,303.617,265.423,302.978,265.053z"/>
		<path d="M147.022,266.058l9.153-5.285c0.64-0.369,0.861-1.195,0.492-1.835l-7.896-13.676c-0.369-0.64-1.195-0.861-1.835-0.492
			l-9.153,5.285c-0.64,0.369-0.861,1.195-0.492,1.835l7.896,13.676C145.557,266.206,146.383,266.427,147.022,266.058z"/>
		<path d="M164.763,201.629l10.409-1.835c0.727-0.128,1.218-0.828,1.089-1.556l-2.742-15.552c-0.128-0.727-0.828-1.218-1.556-1.089
			l-10.409,1.835c-0.727,0.128-1.218,0.828-1.089,1.556l2.742,15.552C163.336,201.267,164.036,201.757,164.763,201.629z"/>
		<path d="M265.407,182.163l-10.409-1.835c-0.727-0.128-1.218-0.828-1.089-1.556l2.742-15.552c0.128-0.727,0.828-1.218,1.556-1.089
			l10.409,1.835c0.727,0.128,1.218,0.828,1.089,1.556l-2.742,15.552C266.834,181.801,266.134,182.292,265.407,182.163z"/>
		<path d="M294.143,232.051l-7.474-7.474c-0.522-0.522-0.522-1.377,0-1.899l11.167-11.167c0.522-0.522,1.377-0.522,1.899,0
			l7.474,7.474c0.522,0.522,0.522,1.377,0,1.899l-11.167,11.167C295.52,232.574,294.666,232.574,294.143,232.051z"/>
		<path d="M224.799,174.456l-6.794-8.097c-0.475-0.566-0.4-1.417,0.166-1.892l12.097-10.151c0.566-0.475,1.417-0.4,1.892,0.166
			l6.794,8.097c0.475,0.566,0.4,1.417-0.166,1.892l-12.097,10.151C226.126,175.096,225.274,175.021,224.799,174.456z"/>
		<path d="M285.565,205.207l8.097-6.794c0.566-0.475,0.64-1.326,0.166-1.892l-10.151-12.097c-0.475-0.566-1.326-0.64-1.892-0.166
			l-8.097,6.794c-0.566,0.475-0.64,1.326-0.166,1.892l10.151,12.097C284.148,205.608,285,205.682,285.565,205.207z"/>
		<path d="M196.416,182.417l7.474-7.474c0.522-0.522,0.522-1.377,0-1.899l-11.167-11.167c-0.522-0.522-1.377-0.522-1.899,0
			l-7.474,7.474c-0.522,0.522-0.522,1.377,0,1.899l11.167,11.167C195.039,182.939,195.893,182.939,196.416,182.417z"/>
		<path d="M151.028,229.916l-6.794-8.097c-0.475-0.566-0.4-1.417,0.166-1.892l12.097-10.151c0.566-0.475,1.417-0.4,1.892,0.166
			l6.794,8.097c0.475,0.566,0.4,1.417-0.166,1.892l-12.097,10.151C152.354,230.557,151.503,230.482,151.028,229.916z"/>
		<g>
			<circle fill="none" stroke="#575959" stroke-miterlimit="10" cx="225" cy="456.486" r="26.99"/>
			<circle fill="none" stroke="#000000" stroke-width="0.75" stroke-miterlimit="10" cx="225" cy="456.486" r="26.186"/>
			<circle fill="none" stroke="#000000" stroke-width="3" stroke-miterlimit="10" cx="225" cy="456.486" r="28.87"/>
			<circle stroke="#000000" stroke-miterlimit="10" cx="224.831" cy="456.486" r="0.976"/>
			<circle fill="none" stroke="#000000" stroke-miterlimit="10" cx="224.831" cy="456.486" r="2.971"/>
			<line stroke="#000000" stroke-width="0.25" stroke-miterlimit="10" x1="227.009" y1="454.466" x2="227.009" y2="430.376"/>
			<line stroke="#000000" stroke-width="0.25" stroke-miterlimit="10" x1="222.693" y1="454.466" x2="222.693" y2="430.376"/>
			<line stroke="#000000" stroke-width="0.25" stroke-miterlimit="10" x1="227.009" y1="482.672" x2="227.009" y2="458.583"/>
			<line stroke="#000000" stroke-width="0.25" stroke-miterlimit="10" x1="222.693" y1="482.672" x2="222.693" y2="458.583"/>
			<g>
				<line stroke="#000000" stroke-width="0.25" stroke-miterlimit="10" x1="222.933" y1="454.329" x2="198.844" y2="454.329"/>
				<line stroke="#000000" stroke-width="0.25" stroke-miterlimit="10" x1="222.933" y1="458.644" x2="198.844" y2="458.644"/>
				<line stroke="#000000" stroke-width="0.25" stroke-miterlimit="10" x1="251.14" y1="454.329" x2="227.05" y2="454.329"/>
				<line stroke="#000000" stroke-width="0.25" stroke-miterlimit="10" x1="251.14" y1="458.644" x2="227.05" y2="458.644"/>
			</g>
			<g>
				<line stroke="#000000" stroke-width="0.25" stroke-miterlimit="10" x1="222.019" y1="456.571" x2="204.985" y2="473.605"/>
				<line stroke="#000000" stroke-width="0.25" stroke-miterlimit="10" x1="225.071" y1="459.622" x2="208.036" y2="476.657"/>
				<line stroke="#000000" stroke-width="0.25" stroke-miterlimit="10" x1="241.964" y1="436.626" x2="224.929" y2="453.66"/>
				<line stroke="#000000" stroke-width="0.25" stroke-miterlimit="10" x1="245.015" y1="439.678" x2="227.981" y2="456.712"/>
			</g>
			<g>
				<line stroke="#000000" stroke-width="0.25" stroke-miterlimit="10" x1="224.752" y1="459.636" x2="241.786" y2="476.671"/>
				<line stroke="#000000" stroke-width="0.25" stroke-miterlimit="10" x1="227.804" y1="456.585" x2="244.838" y2="473.619"/>
				<line stroke="#000000" stroke-width="0.25" stroke-miterlimit="10" x1="204.808" y1="439.692" x2="221.842" y2="456.726"/>
				<line stroke="#000000" stroke-width="0.25" stroke-miterlimit="10" x1="207.859" y1="436.64" x2="224.893" y2="453.674"/>
			</g>
			<g>
				<g>
					<line stroke="#000000" stroke-width="0.25" stroke-miterlimit="10" x1="227.204" y1="454.699" x2="230.671" y2="430.918"/>
					<line stroke="#000000" stroke-width="0.25" stroke-miterlimit="10" x1="222.517" y1="454.699" x2="219.049" y2="430.918"/>
				</g>
				<g>
					<line stroke="#000000" stroke-width="0.25" stroke-miterlimit="10" x1="227.096" y1="458.231" x2="230.563" y2="482.012"/>
					<line stroke="#000000" stroke-width="0.25" stroke-miterlimit="10" x1="222.408" y1="458.231" x2="218.941" y2="482.012"/>
				</g>
			</g>
			<line stroke="#000000" stroke-width="0.25" stroke-miterlimit="10" x1="223.209" y1="454.067" x2="199.428" y2="450.6"/>
			<line stroke="#000000" stroke-width="0.25" stroke-miterlimit="10" x1="223.209" y1="458.755" x2="199.428" y2="462.222"/>
			<line stroke="#000000" stroke-width="0.25" stroke-miterlimit="10" x1="226.741" y1="454.175" x2="250.522" y2="450.708"/>
			<line stroke="#000000" stroke-width="0.25" stroke-miterlimit="10" x1="226.741" y1="458.863" x2="250.522" y2="462.33"/>
			<line stroke="#000000" stroke-width="0.25" stroke-miterlimit="10" x1="222.056" y1="456.208" x2="202.788" y2="470.572"/>
			<line stroke="#000000" stroke-width="0.25" stroke-miterlimit="10" x1="225.37" y1="459.523" x2="211.006" y2="478.79"/>
			<line stroke="#000000" stroke-width="0.25" stroke-miterlimit="10" x1="224.629" y1="453.788" x2="238.993" y2="434.52"/>
			<line stroke="#000000" stroke-width="0.25" stroke-miterlimit="10" x1="227.944" y1="457.102" x2="247.211" y2="442.738"/>
			<line stroke="#000000" stroke-width="0.25" stroke-miterlimit="10" x1="224.455" y1="459.684" x2="238.819" y2="478.951"/>
			<line stroke="#000000" stroke-width="0.25" stroke-miterlimit="10" x1="227.769" y1="456.369" x2="247.037" y2="470.733"/>
			<line stroke="#000000" stroke-width="0.25" stroke-miterlimit="10" x1="222.034" y1="457.11" x2="202.767" y2="442.746"/>
			<line stroke="#000000" stroke-width="0.25" stroke-miterlimit="10" x1="225.349" y1="453.795" x2="210.985" y2="434.528"/>
		</g>
	</g>
	<g>
		<rect x="23.97" y="19.767" fill="none" width="33.674" height="234.787"/>
		<path d="M40.102,27.029h4.395v30.3c0,2.827-0.289,4.918-0.868,6.273c-0.578,1.354-1.513,2.438-2.802,3.252
			c-1.289,0.812-2.842,1.219-4.658,1.219c-0.277,0-0.754-0.044-1.428-0.132l-0.812-4.087h1.12c1.26,0,2.223-0.154,2.89-0.461
			c0.666-0.308,1.193-0.85,1.582-1.626c0.388-0.776,0.582-2.424,0.582-4.944V27.029z"/>
		<path d="M42.223,71.589c4.742,0,8.691,1.501,11.846,4.504c3.155,3.003,4.732,6.768,4.732,11.294s-1.592,8.272-4.776,11.239
			c-3.184,2.966-7.198,4.449-12.043,4.449c-4.626,0-8.48-1.483-11.562-4.449c-3.082-2.967-4.622-6.684-4.622-11.151
			c0-4.585,1.552-8.379,4.655-11.382S37.479,71.589,42.223,71.589z M42.398,75.764c-3.513,0-6.399,1.099-8.66,3.296
			c-2.262,2.197-3.392,5.002-3.392,8.416c0,3.311,1.134,6.064,3.402,8.262s5.107,3.296,8.518,3.296c3.424,0,6.281-1.121,8.572-3.362
			c2.29-2.241,3.436-5.032,3.436-8.372c0-3.252-1.146-5.987-3.436-8.207C48.548,76.874,45.734,75.764,42.398,75.764z"/>
		<path d="M48.287,117.029h5.492l-13.314,14.568l16.589,16.128h-5.999l-15.688-15.161v15.161h-4.395v-30.696h4.395v14.041
			L48.287,117.029z"/>
		<path d="M34.433,162.029h17.402v3.911H38.827v9.36h12.568v3.933H38.827v9.536h13.425v3.911H34.433V162.029z"/>
		<path d="M32.225,237.725v-30.696h7.69c3.105,0,5.57,0.769,7.394,2.307c1.824,1.538,2.736,3.618,2.736,6.24
			c0,1.787-0.447,3.333-1.341,4.636s-2.175,2.278-3.845,2.922c0.98,0.645,1.94,1.523,2.878,2.637s2.256,3.054,3.955,5.823
			c1.069,1.743,1.926,3.054,2.571,3.933l1.625,2.197H50.66l-1.339-2.022c-0.044-0.073-0.132-0.198-0.264-0.374l-0.855-1.209
			l-1.361-2.242l-1.47-2.396c-0.907-1.26-1.738-2.264-2.493-3.009c-0.756-0.746-1.438-1.283-2.046-1.612
			c-0.609-0.329-1.632-0.494-3.069-0.494h-1.144v13.359H32.225z M37.938,210.764h-1.318v9.69h1.67c2.227,0,3.754-0.19,4.581-0.571
			c0.828-0.381,1.473-0.956,1.934-1.725c0.462-0.77,0.692-1.645,0.692-2.626c0-0.967-0.257-1.842-0.77-2.626
			c-0.513-0.783-1.233-1.336-2.164-1.659C41.633,210.925,40.091,210.764,37.938,210.764z"/>
	</g>
	<g>
		<rect x="392.357" y="384.806" fill="none" width="33.674" height="234.787"/>
		<path d="M409.897,612.331h-4.395v-30.3c0-2.828,0.289-4.918,0.868-6.273c0.578-1.355,1.513-2.439,2.802-3.252
			s2.842-1.22,4.658-1.22c0.277,0,0.754,0.044,1.428,0.132l0.812,4.087h-1.12c-1.26,0-2.223,0.153-2.89,0.462
			c-0.666,0.307-1.193,0.85-1.582,1.625c-0.388,0.777-0.582,2.425-0.582,4.944V612.331z"/>
		<path d="M407.776,567.771c-4.742,0-8.691-1.501-11.846-4.505c-3.155-3.002-4.732-6.768-4.732-11.293
			c0-4.527,1.592-8.273,4.776-11.24c3.184-2.965,7.198-4.449,12.043-4.449c4.626,0,8.48,1.484,11.562,4.449
			c3.082,2.967,4.622,6.684,4.622,11.152c0,4.584-1.552,8.379-4.655,11.381C416.442,566.27,412.52,567.771,407.776,567.771z
			 M407.601,563.596c3.513,0,6.399-1.099,8.66-3.296c2.262-2.197,3.392-5.003,3.392-8.415c0-3.311-1.134-6.064-3.402-8.262
			s-5.107-3.297-8.518-3.297c-3.424,0-6.281,1.121-8.572,3.362c-2.29,2.241-3.436,5.032-3.436,8.372
			c0,3.252,1.146,5.986,3.436,8.207C401.451,562.486,404.265,563.596,407.601,563.596z"/>
		<path d="M401.712,522.331h-5.492l13.314-14.567l-16.589-16.129h5.999l15.688,15.162v-15.162h4.395v30.696h-4.395v-14.04
			L401.712,522.331z"/>
		<path d="M415.566,477.331h-17.402v-3.911h13.008v-9.36h-12.568v-3.933h12.568v-9.537h-13.425v-3.91h17.819V477.331z"/>
		<path d="M417.774,401.635v30.696h-7.69c-3.105,0-5.57-0.769-7.394-2.308c-1.824-1.537-2.736-3.617-2.736-6.24
			c0-1.787,0.447-3.332,1.341-4.636s2.175-2.278,3.845-2.923c-0.98-0.645-1.94-1.523-2.878-2.637s-2.256-3.054-3.955-5.822
			c-1.069-1.743-1.926-3.055-2.571-3.934l-1.625-2.197h5.229l1.339,2.023c0.044,0.072,0.132,0.197,0.264,0.373l0.855,1.209
			l1.361,2.242l1.47,2.396c0.907,1.261,1.738,2.264,2.493,3.01c0.756,0.746,1.438,1.283,2.046,1.612
			c0.609,0.329,1.632,0.493,3.069,0.493h1.144v-13.359H417.774z M412.062,428.596h1.318v-9.689h-1.67
			c-2.227,0-3.754,0.189-4.581,0.57c-0.828,0.381-1.473,0.957-1.934,1.725c-0.462,0.77-0.692,1.645-0.692,2.627
			c0,0.967,0.257,1.842,0.77,2.625s1.233,1.337,2.164,1.659C408.366,428.435,409.908,428.596,412.062,428.596z"/>
	</g>
</g>
<g>
</g>
<g>
</g>
<g>
</g>
<g>
</g>
<g>
</g>
<g>
</g>
<g>
</g>
<g>
</g>
<g>
</g>
<g>
</g>
<g>
</g>
</svg>
