<svg xmlns="http://www.w3.org/2000/svg" xmlns:xlink="http://www.w3.org/1999/xlink" viewBox="0 0 1888.48 616.12"><defs><style>.cls-1,.cls-14{fill:#9e9792;}.cls-1,.cls-14,.cls-2{stroke:#231f20;}.cls-15,.cls-17,.cls-2,.cls-5,.cls-6,.cls-7,.cls-8,.cls-9{fill:none;}.cls-15,.cls-2{stroke-width:0.5px;}.cls-3,.cls-4{fill:red;}.cls-13,.cls-4{font-size:45px;font-family:GillSans, Gill Sans;}.cls-10,.cls-11,.cls-12,.cls-16,.cls-17,.cls-5,.cls-6,.cls-7,.cls-8,.cls-9{stroke:#000;}.cls-10,.cls-11,.cls-12,.cls-5,.cls-6,.cls-7{stroke-miterlimit:10;}.cls-11,.cls-6{stroke-linecap:square;}.cls-10,.cls-6,.cls-7,.cls-8,.cls-9{stroke-width:4px;}.cls-16,.cls-17,.cls-8{stroke-linecap:round;stroke-linejoin:bevel;}.cls-14,.cls-9{stroke-linejoin:round;}.cls-10,.cls-18{fill:#fff;}.cls-11,.cls-12{fill:#4f4848;}.cls-14{stroke-width:2px;}.cls-15{stroke:#fff;}.cls-16{fill:#6d6666;stroke-width:1.5px;}.cls-17{stroke-width:0.75px;}</style><symbol id="spade-2" data-name="spade" viewBox="0 0 65.25 64.5"><path d="M47.14,13.06c-5.31-4-10.8-8-14.29-12.81l0,0-.12-.1L32.67,0l0,0-.05,0-.09.12-.12.1,0,0c-3.49,4.77-9,8.86-14.29,12.81C7.71,20.79-3,28.79.8,42.29c2.12,7.5,8,12.56,15,12.9,6.65.32,12.55-3.71,15.61-10.59C31,51.92,29.88,59.34,23.9,64.17l-.4.33H41.75l-.4-.33c-6-4.83-7.06-12.25-7.47-19.57,3.06,6.88,9,10.91,15.61,10.59,7-.34,12.84-5.4,15-12.9C68.29,28.79,57.54,20.79,47.14,13.06Z"/></symbol><symbol id="club-2" data-name="club" viewBox="0 0 65.47 61.8"><path d="M62.57,24.54a9.85,9.85,0,0,0-7.22-4c-2.33-.24-5.06,1.37-7.25,2.66a20.55,20.55,0,0,1-2.36,1.28A6.32,6.32,0,0,1,46,23.35a20.87,20.87,0,0,1,2.17-4.54c2-3.53,4.18-7.19.14-13C46,2.42,41.22.55,33.75.07l-1-.06h-.11l-1,.06C24.26.55,19.49,2.42,17.16,5.79c-4,5.83-1.91,9.49.15,13a21.31,21.31,0,0,1,2.16,4.54,8,8,0,0,1,.27,1.15,20.61,20.61,0,0,1-2.37-1.28c-2.19-1.29-4.91-2.9-7.25-2.66a9.85,9.85,0,0,0-7.22,4C-.24,28.73-.42,35.3.45,40c1.29,7,5.29,11.66,11,12.88a13.45,13.45,0,0,0,2.82.3c5.18,0,10.33-3,14-8.18a28.34,28.34,0,0,0,1.48-2.49c.2-.37.45-.83.65-1.15a9.62,9.62,0,0,1,.56,1.34v5.71A24.57,24.57,0,0,1,23.48,60L21.32,61.8H44.16L42,60a24.6,24.6,0,0,1-7.4-11.56V42.73a12.74,12.74,0,0,1,.56-1.34c.21.33.45.79.66,1.16A24.13,24.13,0,0,0,37.3,45c3.61,5.21,8.77,8.18,13.94,8.18a13.38,13.38,0,0,0,2.82-.3C59.74,51.7,63.73,47,65,40,65.9,35.29,65.71,28.73,62.57,24.54Z"/></symbol></defs><title>king</title><g id="Heart"><path class="cls-1" d="M1111.49,270.89c-.74-20.19-1.38-36.85-1.43-38.16-.13-3.41,1.12-4.88,1.25-5.95a12.35,12.35,0,0,1,1.56-3.74c.46-.7,1.17-.32,1.62-.32s2.73,3,3.19,3.3.91.19,1.62-.38.45-1.53.45-2.35-4.15-4.69-4.48-5.52a2.35,2.35,0,0,1,.59-2.22c.45-.63,1.69-.38,2.73-.19s3.89,2.41,4.48,2.41.78-1.83.65-3-5-3.17-5.53-3.58-.66-.76-.66-2.17.6-1,1-1.53,5.78,0,6.56,0,.3-.12.72-.65c.25-.31,0-1.95,0-2.17,0-.53-.18-.65-.78-1s-6.38,0-6.92-.65-.66-1.4-.18-2.7,4.39-2.46,5.29-3.05a2.28,2.28,0,0,0,1.21-2,2.24,2.24,0,0,0-1.33-2.35c-1-.53-5.17,2.82-6.43,3.11s-1.63-1.76-1.69-2.87,3.85-5.76,4.27-6.52a1.15,1.15,0,0,0,0-1.28S1117.65,183,1116,184s-3.55,5.17-4.69,6-1-.44-2-.83-.19-7.05-.78-7.82-2.21-.76-2.21-.76-1.55,0-2.13.76.19,7.44-.78,7.82-.84,1.65-2,.83-3-5.06-4.69-6-3.31,1.43-3.31,1.43a1.15,1.15,0,0,0,0,1.28c.42.76,4.33,5.4,4.27,6.52s-.42,3.17-1.68,2.87-5.41-3.64-6.44-3.11a2.25,2.25,0,0,0-1.32,2.35,2.29,2.29,0,0,0,1.2,2c.9.59,4.82,1.76,5.3,3.05s.36,2.06-.18,2.7-6.32.3-6.92.65-.78.47-.78,1-.43,1.64,0,2.17-.06.65.72.65,6.13-.53,6.55,0,1,.12,1,1.53-.18,1.76-.66,2.17-5.42,2.47-5.54,3.58.08,3,.66,3,3.44-2.22,4.48-2.41,2.27-.44,2.73.19a2.34,2.34,0,0,1,.58,2.22c-.32.83-4.48,4.7-4.48,5.52s-.26,1.77.46,2.35,1.16.63,1.62.38,2.73-3.3,3.18-3.3,1.17-.38,1.62.32a12.1,12.1,0,0,1,1.56,3.74c.13,1.07,1.38,2.54,1.26,5.95,0,1.31-.69,18-1.44,38.16m-1.74,48.66c-.51,15-.84,26.07-.73,27a14.7,14.7,0,0,0,2.43,5.76,9.94,9.94,0,0,0,5.21,1.27,9.83,9.83,0,0,0,5.19-1.27,14.59,14.59,0,0,0,2.42-5.76c.11-.9-.22-12-.72-27M1100.4,203.63c.41-1.1,1.46-1.82,2.27-1.46a1.85,1.85,0,0,1,.77,2.54,2,2,0,0,1-2.27,1.46A1.9,1.9,0,0,1,1100.4,203.63Zm2.27,8.45a2,2,0,0,1-2.27-1.46,1.91,1.91,0,0,1,.77-2.54c.84-.3,1.69.23,2.27,1.46A1.85,1.85,0,0,1,1102.67,212.08Zm4,3.14a2.21,2.21,0,0,1,0-4.26c.89,0,1.61.95,1.61,2.13S1107.55,215.22,1106.66,215.22Zm0-5.84c-.89,0-1.62-1.16-1.62-2.6s.73-2.61,1.62-2.61,1.61,1.17,1.61,2.61S1107.55,209.38,1106.66,209.38Zm0-6.78a1.94,1.94,0,0,1-1.62-2.13c0-1.18.41-2.14,1.62-2.13s1.61.95,1.61,2.13S1107.55,202.6,1106.66,202.6Zm3.35-.82c.79-.41,1.85.35,2.26,1.46a1.9,1.9,0,0,1-.77,2.54,2,2,0,0,1-2.26-1.46A1.87,1.87,0,0,1,1110,201.78Zm2.26,8.84c-.41,1.11-1.51,1.86-2.26,1.46a2,2,0,0,1-.77-2.54c.41-1.1,1.44-1.8,2.26-1.46S1112.68,209.52,1112.27,210.62Z" transform="translate(-23.02 -11.62)"/><path class="cls-1" d="M1130.89,219.51" transform="translate(-23.02 -11.62)"/><path class="cls-2" d="M1101.31,216.05a5.53,5.53,0,0,0,6,4.19,5.34,5.34,0,0,0,4.21-3.8" transform="translate(-23.02 -11.62)"/><path class="cls-2" d="M1111.92,198.82a5.53,5.53,0,0,0-6-4.19,5.34,5.34,0,0,0-4.2,3.8" transform="translate(-23.02 -11.62)"/><path class="cls-3" d="M1045.76,81.35c-4.08-11.52-18.59-12-21.68,0-3.3,12.88,14.63,20.24,21.68,27.73,7.06-7.49,25-14.85,21.68-27.73C1064.36,69.35,1049.85,69.83,1045.76,81.35Z" transform="translate(-23.02 -11.62)"/><path class="cls-3" d="M1120.36,114.55c-6.18-17.44-28.15-18.16-32.82,0-5,19.49,22.14,30.63,32.82,42,10.67-11.34,37.81-22.48,32.81-42C1148.5,96.39,1126.54,97.11,1120.36,114.55Z" transform="translate(-23.02 -11.62)"/><text class="cls-4" transform="translate(1389.89 576.67) rotate(180)">K</text><path class="cls-3" d="M1323.57,524.59c6.18,17.44,28.14,18.16,32.81,0,5-19.49-22.14-30.63-32.81-42-10.68,11.34-37.82,22.48-32.81,42C1295.42,542.75,1317.39,542,1323.57,524.59Z" transform="translate(-23.02 -11.62)"/><polyline class="cls-5" points="1062.03 555.67 1062.03 60.15 1337.3 59.67 1337.3 555.67 1061.15 555.55"/><polyline class="cls-6" points="1275.8 236.95 1318.7 269.03 1334.3 280.45 1333.99 309.28 1063.62 309.28"/><path class="cls-7" d="M1167.82,110.57a29,29,0,1,0,58,1v-1a29,29,0,1,0,58,1v64h-116Z" transform="translate(-23.02 -11.62)"/><path class="cls-7" d="M1211.3,136.58a29.43,29.43,0,0,1-14.48-26v1a29.41,29.41,0,0,1-14.52,25" transform="translate(-23.02 -11.62)"/><path class="cls-7" d="M1254.82,111.57a29.4,29.4,0,0,1-14.51,25" transform="translate(-23.02 -11.62)"/><path class="cls-7" d="M1269.32,136.59a29.43,29.43,0,0,1-14.5-26" transform="translate(-23.02 -11.62)"/><line class="cls-7" x1="1138.8" y1="152.95" x2="1266.8" y2="152.95"/><polyline class="cls-7" points="1148.33 163.95 1148.44 174.71 1148.8 208.95"/><polyline class="cls-7" points="1147.8 180.95 1171.8 174.95 1166.8 203.95 1173.8 203.95"/><line class="cls-7" x1="1182.8" y1="174.95" x2="1201.8" y2="181.95"/><path class="cls-7" d="M1236.64,175.57l.18,54s0,11,2,13c4.53,4.53,7,6,12,6s11-3,11-10-3-12-8-12" transform="translate(-23.02 -11.62)"/><path class="cls-7" d="M1255.88,247.54a13.25,13.25,0,0,0,5.62,1c5,0,11-3,11-10s-3-12-8-12" transform="translate(-23.02 -11.62)"/><path class="cls-7" d="M1266.88,247.54a13.25,13.25,0,0,0,5.62,1c5,0,11-3,11-10s-3-12-8-12" transform="translate(-23.02 -11.62)"/><path class="cls-7" d="M1277.88,247.54a13.25,13.25,0,0,0,5.62,1c5,0,11-3,11-10s-3-12-8-12" transform="translate(-23.02 -11.62)"/><path class="cls-7" d="M1288.88,247.54a13.25,13.25,0,0,0,5.62,1c5,0,11-3,11-10s-3-12-8-12h-47.18" transform="translate(-23.02 -11.62)"/><line class="cls-7" x1="1224.82" y1="163.95" x2="1224.82" y2="205.45"/><line class="cls-7" x1="1235.82" y1="163.95" x2="1235.82" y2="205.45"/><line class="cls-7" x1="1246.82" y1="163.95" x2="1246.82" y2="205.45"/><line class="cls-7" x1="1257.79" y1="163.95" x2="1257.79" y2="211.95"/><path class="cls-8" d="M1239.81,243.54l-9.49,4.53c.16,1.53-.3,2.67-1.5,5.5a15.25,15.25,0,0,1-14,9c-6.08-.07-14-3.88-14-10v-6h0a17.34,17.34,0,0,1-1,7c-2.25,5.31-6.94,9.07-13,9a16.35,16.35,0,0,1-16-16c-5.67,1.57-13.71-3.63-14-12-.24-7.12,5.33-11.49,6-12a15.5,15.5,0,0,1,8-3" transform="translate(-23.02 -11.62)"/><line class="cls-7" x1="1205.8" y1="225.95" x2="1213.8" y2="217.95"/><path d="M1178,214.3a3.32,3.32,0,0,0-2.76,1.58A3.41,3.41,0,0,0,1175,219a3.6,3.6,0,0,0,2.33,2,3.86,3.86,0,0,0,4.73-3,4.23,4.23,0,0,0-3-4.78,4.62,4.62,0,0,0-5.76,5.08,5.09,5.09,0,0,0,3.71,4.28,5.57,5.57,0,0,0,5.46-1.64,5.72,5.72,0,0,0,1.23-5.55,6.2,6.2,0,0,0-4-4.12,6.72,6.72,0,0,0-5.7.71,6.87,6.87,0,0,0-3.17,4.82,7.66,7.66,0,0,0,1.45,5.66,7.74,7.74,0,0,0,5,3,20.88,20.88,0,0,0,3.22.11h3.35l13.4-.05,13.4,0,3.35,0a22.27,22.27,0,0,0,3.22-.11,7.73,7.73,0,0,0,6.44-8.69,6.87,6.87,0,0,0-3.17-4.82,6.68,6.68,0,0,0-5.7-.71,6.22,6.22,0,0,0-4,4.12,5.71,5.71,0,0,0,1.24,5.55,5.59,5.59,0,0,0,5.45,1.64,5.12,5.12,0,0,0,3.71-4.28,4.62,4.62,0,0,0-5.76-5.08,4.23,4.23,0,0,0-3,4.78,3.88,3.88,0,0,0,4.73,3,3.58,3.58,0,0,0,2.32-2,3.38,3.38,0,0,0-.18-3.12,3.32,3.32,0,0,0-2.76-1.58,3.4,3.4,0,0,1,2.89,1.5,3.6,3.6,0,0,1,.33,3.31,3.92,3.92,0,0,1-2.48,2.32A4.28,4.28,0,0,1,1214,221a4.44,4.44,0,0,1-2.06-2.83,5,5,0,0,1,.56-3.49,5.13,5.13,0,0,1,2.78-2.25,5.49,5.49,0,0,1,3.6.14,5.67,5.67,0,0,1,3.53,5.9,6.32,6.32,0,0,1-4.49,5.36,6.88,6.88,0,0,1-6.81-1.89,7,7,0,0,1-1.78-3.23,7.67,7.67,0,0,1,.08-3.69,7.83,7.83,0,0,1,4.88-5.29,8.35,8.35,0,0,1,7.17.82,8.63,8.63,0,0,1,4,6,9.46,9.46,0,0,1-1.73,7,9.58,9.58,0,0,1-6.16,3.79,12.72,12.72,0,0,1-1.8.15h-1.68l-3.36,0-13.43,0-13.43,0-3.36,0h-1.68a12.72,12.72,0,0,1-1.8-.15,9.58,9.58,0,0,1-6.16-3.79,9.46,9.46,0,0,1-1.73-7,8.59,8.59,0,0,1,4-6,8.32,8.32,0,0,1,7.17-.83,7.81,7.81,0,0,1,4.87,5.29,7.55,7.55,0,0,1,.08,3.69,7,7,0,0,1-8.59,5.12,6.29,6.29,0,0,1-4.47-5.36,5.66,5.66,0,0,1,3.52-5.9,5.43,5.43,0,0,1,3.6-.13,5,5,0,0,1,2.77,2.25,4.87,4.87,0,0,1,.57,3.48,4.48,4.48,0,0,1-2.06,2.83,4.28,4.28,0,0,1-3.42.44,3.92,3.92,0,0,1-2.48-2.32,3.6,3.6,0,0,1,.33-3.31A3.41,3.41,0,0,1,1178,214.3Z" transform="translate(-23.02 -11.62)"/><polyline class="cls-9" points="1147.8 235.95 1104.8 258.95 1104.8 265.84 1104.8 308.95"/><line class="cls-7" x1="1105.3" y1="265.45" x2="1150.8" y2="265.45"/><line class="cls-7" x1="1104.8" y1="280.17" x2="1154.3" y2="280.17"/><line class="cls-7" x1="1104.8" y1="294.95" x2="1159.3" y2="294.95"/><line class="cls-7" x1="1140.8" y1="250.95" x2="1120.1" y2="250.95"/><path class="cls-7" d="M1156.81,255.41a59.5,59.5,0,0,1,19.51,28.66c3,10,6,22,6,36" transform="translate(-23.02 -11.62)"/><path class="cls-9" d="M1341.82,280.57s-12,8-15,13c-1.86,3.09-4.86,6.95-7.12,13a48.84,48.84,0,0,0-2.88,14" transform="translate(-23.02 -11.62)"/><line class="cls-7" x1="1199.8" y1="294.95" x2="1296.8" y2="294.95"/><line class="cls-7" x1="1205.8" y1="279.95" x2="1305.31" y2="279.95"/><line class="cls-7" x1="1213.8" y1="265.95" x2="1313.8" y2="265.95"/><line class="cls-6" x1="1228.8" y1="250.95" x2="1292.96" y2="250.95"/><path class="cls-7" d="M1222.82,319.57a108.86,108.86,0,0,1,2-19,50.15,50.15,0,0,1,8-18s6-10,12-16,25-15,25-15l12.4-3" transform="translate(-23.02 -11.62)"/><line class="cls-10" x1="1104.8" y1="284.94" x2="1093.8" y2="271.95"/><line class="cls-10" x1="1104.8" y1="294.94" x2="1093.8" y2="281.95"/><line class="cls-10" x1="1104.8" y1="304.94" x2="1093.8" y2="291.95"/><circle cx="1158.8" cy="185.95" r="4"/><circle cx="1191.8" cy="185.95" r="4"/><circle cx="1228.8" cy="225.95" r="4"/><path d="M1190.32,227.57v8h15a5.5,5.5,0,0,0,5.5-5.5,5.4,5.4,0,0,0-.61-2.5Z" transform="translate(-23.02 -11.62)"/><path d="M1193.82,246.57h-15v1h0c0,.17,0,.33,0,.5a7.5,7.5,0,0,0,15,0,4.19,4.19,0,0,0,0-.5h0Z" transform="translate(-23.02 -11.62)"/><path d="M1222.82,246.57h-15v1h0c0,.17,0,.33,0,.5a7.5,7.5,0,0,0,15,0,4.19,4.19,0,0,0,0-.5h0Z" transform="translate(-23.02 -11.62)"/><path d="M1172.82,241.57v-15h-1v0a4.19,4.19,0,0,0-.5,0,7.5,7.5,0,0,0,0,15l.5,0v0Z" transform="translate(-23.02 -11.62)"/><polyline class="cls-7" points="1063.8 309.95 1063.59 259.45 1094.3 259.45 1104.8 273.12"/><text class="cls-4" transform="translate(1007.99 39.45)">K</text><path class="cls-1" d="M1332.51,370.57c.74,20.27,1.38,37,1.43,38.31.13,3.42-1.12,4.89-1.25,6a12.52,12.52,0,0,1-1.56,3.75c-.46.7-1.17.32-1.62.32s-2.73-3.06-3.19-3.31-.91-.19-1.62.38-.45,1.53-.45,2.36,4.15,4.71,4.48,5.53a2.36,2.36,0,0,1-.59,2.23c-.45.64-1.69.38-2.73.19s-3.89-2.42-4.48-2.42-.78,1.84-.65,3,5,3.19,5.53,3.6.66.77.66,2.18-.6,1-1,1.54-5.78,0-6.56,0-.3.11-.72.65c-.25.31,0,2,0,2.18,0,.53.18.65.78,1s6.38,0,6.92.65.66,1.41.18,2.71-4.39,2.48-5.29,3.07a2.28,2.28,0,0,0-1.21,2,2.25,2.25,0,0,0,1.33,2.36c1,.53,5.17-2.83,6.43-3.12s1.63,1.77,1.69,2.89-3.85,5.77-4.27,6.54a1.15,1.15,0,0,0,0,1.28s1.62,2.38,3.31,1.43,3.55-5.19,4.69-6,1,.44,2,.82.19,7.09.78,7.85,2.21.77,2.21.77,1.55,0,2.13-.77-.19-7.46.78-7.85.84-1.65,2-.82,3,5.07,4.69,6,3.31-1.43,3.31-1.43a1.15,1.15,0,0,0,0-1.28c-.42-.77-4.33-5.42-4.27-6.54s.42-3.19,1.68-2.89,5.41,3.65,6.44,3.12a2.25,2.25,0,0,0,1.32-2.36,2.29,2.29,0,0,0-1.2-2c-.9-.59-4.82-1.77-5.3-3.07s-.36-2.06.18-2.71,6.32-.3,6.92-.65.78-.47.78-1,.43-1.65,0-2.18.06-.65-.72-.65-6.13.53-6.55,0-1-.12-1-1.54.18-1.77.66-2.18,5.42-2.47,5.54-3.6-.08-3-.66-3-3.44,2.23-4.48,2.42-2.27.45-2.73-.19a2.36,2.36,0,0,1-.58-2.23c.32-.82,4.48-4.71,4.48-5.53s.26-1.79-.46-2.36-1.16-.64-1.62-.38-2.73,3.31-3.18,3.31-1.17.38-1.62-.32a12.27,12.27,0,0,1-1.56-3.75c-.13-1.09-1.38-2.56-1.26-6,0-1.32.69-18,1.44-38.31m1.74-48.85c.51-15,.84-26.17.73-27.07a14.78,14.78,0,0,0-2.43-5.78,9.9,9.9,0,0,0-5.21-1.28,9.79,9.79,0,0,0-5.19,1.28,14.67,14.67,0,0,0-2.42,5.78c-.11.9.22,12.05.72,27.07m12.84,116.37c-.41,1.11-1.46,1.83-2.27,1.47a1.86,1.86,0,0,1-.77-2.55,2,2,0,0,1,2.27-1.47A1.91,1.91,0,0,1,1343.6,438.09Zm-2.27-8.48a2,2,0,0,1,2.27,1.46,1.91,1.91,0,0,1-.77,2.55c-.84.3-1.69-.23-2.27-1.46A1.86,1.86,0,0,1,1341.33,429.61Zm-4-3.15a2.22,2.22,0,0,1,0,4.27c-.89,0-1.61-1-1.61-2.13S1336.45,426.46,1337.34,426.46Zm0,5.85c.89,0,1.62,1.18,1.62,2.62s-.73,2.62-1.62,2.62-1.61-1.17-1.61-2.62S1336.45,432.31,1337.34,432.31Zm0,6.82a1.94,1.94,0,0,1,1.62,2.14c0,1.18-.41,2.14-1.62,2.13s-1.61-.95-1.61-2.13S1336.45,439.13,1337.34,439.13ZM1334,440c-.79.41-1.85-.36-2.26-1.47a1.91,1.91,0,0,1,.77-2.55,2,2,0,0,1,2.26,1.47A1.88,1.88,0,0,1,1334,440Zm-2.26-8.88c.41-1.11,1.51-1.87,2.26-1.46a2,2,0,0,1,.77,2.55c-.41,1.1-1.44,1.8-2.26,1.46S1331.32,432.18,1331.73,431.07Z" transform="translate(-23.02 -11.62)"/><path class="cls-1" d="M1313.11,421.36" transform="translate(-23.02 -11.62)"/><path class="cls-2" d="M1342.69,424.9a5.54,5.54,0,0,0-6-4.28,5.37,5.37,0,0,0-4.21,3.89" transform="translate(-23.02 -11.62)"/><path class="cls-2" d="M1332.08,442.55a5.54,5.54,0,0,0,6,4.29,5.38,5.38,0,0,0,4.2-3.89" transform="translate(-23.02 -11.62)"/><path class="cls-3" d="M1398.24,560.46c4.08,11.52,18.59,12,21.68,0,3.3-12.88-14.63-20.24-21.68-27.73-7.06,7.49-25,14.85-21.68,27.73C1379.64,572.46,1394.15,572,1398.24,560.46Z" transform="translate(-23.02 -11.62)"/><path class="cls-3" d="M1323.64,527.26c6.18,17.44,28.15,18.16,32.82,0,5-19.49-22.14-30.63-32.82-42-10.67,11.34-37.81,22.48-32.81,42C1295.5,545.42,1317.46,544.7,1323.64,527.26Z" transform="translate(-23.02 -11.62)"/><polyline class="cls-6" points="1122.16 381.62 1079.26 349.54 1063.66 338.12 1063.97 309.29 1334.35 309.29"/><path class="cls-7" d="M1276.18,531.24a29,29,0,1,0-58-1v1a29,29,0,1,0-58-1v-64h116Z" transform="translate(-23.02 -11.62)"/><path class="cls-7" d="M1232.7,505.23a29.43,29.43,0,0,1,14.48,26v-1a29.41,29.41,0,0,1,14.52-25" transform="translate(-23.02 -11.62)"/><path class="cls-7" d="M1189.18,530.24a29.4,29.4,0,0,1,14.51-25" transform="translate(-23.02 -11.62)"/><path class="cls-7" d="M1174.68,505.22a29.43,29.43,0,0,1,14.5,26" transform="translate(-23.02 -11.62)"/><line class="cls-7" x1="1259.16" y1="465.62" x2="1131.16" y2="465.62"/><polyline class="cls-7" points="1249.63 454.62 1249.52 443.86 1249.16 409.62"/><polyline class="cls-7" points="1250.16 437.62 1226.16 443.62 1231.16 414.62 1224.16 414.62"/><line class="cls-7" x1="1215.16" y1="443.62" x2="1196.16" y2="436.62"/><path class="cls-7" d="M1207.36,466.24l-.18-54s0-11-2-13c-4.53-4.53-7-6-12-6s-11,3-11,10,3,12,8,12" transform="translate(-23.02 -11.62)"/><path class="cls-7" d="M1188.12,394.27a13.25,13.25,0,0,0-5.62-1c-5,0-11,3-11,10s3,12,8,12" transform="translate(-23.02 -11.62)"/><path class="cls-7" d="M1177.12,394.27a13.25,13.25,0,0,0-5.62-1c-5,0-11,3-11,10s3,12,8,12" transform="translate(-23.02 -11.62)"/><path class="cls-7" d="M1166.12,394.27a13.25,13.25,0,0,0-5.62-1c-5,0-11,3-11,10s3,12,8,12" transform="translate(-23.02 -11.62)"/><path class="cls-7" d="M1155.12,394.27a13.25,13.25,0,0,0-5.62-1c-5,0-11,3-11,10s3,12,8,12h47.18" transform="translate(-23.02 -11.62)"/><line class="cls-7" x1="1173.14" y1="454.62" x2="1173.14" y2="413.12"/><line class="cls-7" x1="1162.14" y1="454.62" x2="1162.14" y2="413.12"/><line class="cls-7" x1="1151.14" y1="454.62" x2="1151.14" y2="413.12"/><line class="cls-7" x1="1140.17" y1="454.62" x2="1140.17" y2="406.62"/><path class="cls-8" d="M1204.19,398.27l9.49-4.53c-.16-1.53.3-2.67,1.5-5.5a15.25,15.25,0,0,1,14-9c6.08.07,14,3.88,14,10v6h0a17.34,17.34,0,0,1,1-7c2.25-5.31,6.94-9.07,13-9a16.35,16.35,0,0,1,16,16c5.67-1.57,13.71,3.63,14,12,.24,7.12-5.33,11.49-6,12a15.5,15.5,0,0,1-8,3" transform="translate(-23.02 -11.62)"/><line class="cls-7" x1="1192.16" y1="392.62" x2="1184.16" y2="400.62"/><path d="M1266.05,427.51a3.32,3.32,0,0,0,2.76-1.58,3.41,3.41,0,0,0,.19-3.12,3.6,3.6,0,0,0-2.33-2,3.82,3.82,0,0,0-3,.49,3.88,3.88,0,0,0-1.71,2.51,4.23,4.23,0,0,0,3,4.78,4.62,4.62,0,0,0,5.76-5.08,5.09,5.09,0,0,0-3.71-4.28,5.57,5.57,0,0,0-5.46,1.64,5.72,5.72,0,0,0-1.23,5.55,6.2,6.2,0,0,0,4,4.12,6.68,6.68,0,0,0,5.7-.71,6.87,6.87,0,0,0,3.17-4.82,7.66,7.66,0,0,0-1.45-5.66,7.74,7.74,0,0,0-5-3,20.88,20.88,0,0,0-3.22-.11h-3.35l-13.4.05-13.4,0-3.35,0a23.8,23.8,0,0,0-3.22.11,7.73,7.73,0,0,0-6.44,8.69,6.87,6.87,0,0,0,3.17,4.82,6.68,6.68,0,0,0,5.7.71,6.22,6.22,0,0,0,4-4.12,5.71,5.71,0,0,0-1.24-5.55,5.56,5.56,0,0,0-5.45-1.63,5.09,5.09,0,0,0-3.71,4.27,4.62,4.62,0,0,0,5.76,5.08,4.23,4.23,0,0,0,3-4.78,3.88,3.88,0,0,0-4.73-3,3.61,3.61,0,0,0-2.32,2,3.32,3.32,0,0,0,2.94,4.71,3.43,3.43,0,0,1-2.89-1.51,3.6,3.6,0,0,1-.33-3.31,3.92,3.92,0,0,1,2.48-2.32,4.32,4.32,0,0,1,3.42.45,4.4,4.4,0,0,1,2.06,2.82,5,5,0,0,1-.56,3.49,5.09,5.09,0,0,1-2.78,2.25,5.49,5.49,0,0,1-3.6-.14,5.67,5.67,0,0,1-3.53-5.9,6.32,6.32,0,0,1,4.49-5.36,7,7,0,0,1,8.59,5.13,7.63,7.63,0,0,1-.08,3.68,7.83,7.83,0,0,1-4.88,5.29,8.35,8.35,0,0,1-7.17-.82,8.63,8.63,0,0,1-4-6,9.46,9.46,0,0,1,1.73-7,9.58,9.58,0,0,1,6.16-3.79,14.4,14.4,0,0,1,1.8-.15h1.68l3.36,0,13.43,0,13.43,0,3.36,0h1.68a14.4,14.4,0,0,1,1.8.15,9.58,9.58,0,0,1,6.16,3.79,9.46,9.46,0,0,1,1.73,7,8.63,8.63,0,0,1-4,6,8.35,8.35,0,0,1-7.17.82,7.79,7.79,0,0,1-4.87-5.29,7.55,7.55,0,0,1-.08-3.69,7,7,0,0,1,8.59-5.12,6.3,6.3,0,0,1,4.47,5.36,5.66,5.66,0,0,1-3.52,5.9,5.43,5.43,0,0,1-3.6.13,5,5,0,0,1-2.77-2.25,4.87,4.87,0,0,1-.57-3.48,4.48,4.48,0,0,1,2.06-2.83,4.28,4.28,0,0,1,3.42-.44,3.92,3.92,0,0,1,2.48,2.32,3.6,3.6,0,0,1-.33,3.31A3.41,3.41,0,0,1,1266.05,427.51Z" transform="translate(-23.02 -11.62)"/><polyline class="cls-9" points="1250.16 382.62 1293.16 359.62 1293.16 352.73 1293.16 309.62"/><line class="cls-7" x1="1292.66" y1="353.12" x2="1247.16" y2="353.12"/><line class="cls-7" x1="1293.16" y1="338.4" x2="1243.66" y2="338.4"/><line class="cls-7" x1="1293.16" y1="323.62" x2="1238.66" y2="323.62"/><line class="cls-7" x1="1257.16" y1="367.62" x2="1277.87" y2="367.62"/><path class="cls-7" d="M1287.19,386.4a59.5,59.5,0,0,1-19.51-28.66c-3-10-6-22-6-36" transform="translate(-23.02 -11.62)"/><path class="cls-9" d="M1102.18,361.24s12-8,15-13c1.86-3.09,4.86-6.95,7.12-13a48.84,48.84,0,0,0,2.88-14" transform="translate(-23.02 -11.62)"/><line class="cls-7" x1="1198.16" y1="323.62" x2="1101.16" y2="323.62"/><line class="cls-7" x1="1192.16" y1="338.62" x2="1092.65" y2="338.62"/><line class="cls-7" x1="1184.16" y1="352.62" x2="1084.16" y2="352.62"/><line class="cls-6" x1="1169.16" y1="367.62" x2="1105" y2="367.62"/><path class="cls-7" d="M1221.18,322.24a108.86,108.86,0,0,1-2,19,50.15,50.15,0,0,1-8,18s-6,10-12,16-25,15-25,15l-12.4,3" transform="translate(-23.02 -11.62)"/><line class="cls-10" x1="1293.16" y1="333.63" x2="1304.16" y2="346.62"/><line class="cls-10" x1="1293.16" y1="323.63" x2="1304.16" y2="336.62"/><line class="cls-10" x1="1293.16" y1="313.63" x2="1304.16" y2="326.62"/><circle cx="1239.16" cy="432.62" r="4"/><circle cx="1206.16" cy="432.62" r="4"/><circle cx="1169.16" cy="392.62" r="4"/><path d="M1253.68,414.24v-8h-15a5.5,5.5,0,0,0-5.5,5.5,5.4,5.4,0,0,0,.61,2.5Z" transform="translate(-23.02 -11.62)"/><path d="M1250.18,395.24h15v-1h0c0-.17,0-.33,0-.5a7.5,7.5,0,0,0-15,0,4.19,4.19,0,0,0,0,.5h0Z" transform="translate(-23.02 -11.62)"/><path d="M1221.18,395.24h15v-1h0c0-.17,0-.33,0-.5a7.5,7.5,0,0,0-15,0,4.19,4.19,0,0,0,0,.5h0Z" transform="translate(-23.02 -11.62)"/><path d="M1271.18,400.24v15h1v0l.5,0a7.5,7.5,0,0,0,0-15,4.19,4.19,0,0,0-.5,0v0Z" transform="translate(-23.02 -11.62)"/><polyline class="cls-7" points="1334.16 308.62 1334.38 359.12 1303.66 359.12 1293.16 345.45"/><path class="cls-3" d="M1167.66,102.12c-.58-1.65-2.65-1.72-3.09,0s2.08,2.88,3.09,3.95c1-1.07,3.56-2.12,3.09-3.95S1168.24,100.47,1167.66,102.12Z" transform="translate(-23.02 -11.62)"/><path class="cls-3" d="M1196.66,102.12c-.58-1.65-2.65-1.72-3.09,0s2.08,2.88,3.09,3.95c1-1.07,3.56-2.12,3.09-3.95S1197.24,100.47,1196.66,102.12Z" transform="translate(-23.02 -11.62)"/><path class="cls-3" d="M1225.66,102.12c-.58-1.65-2.65-1.72-3.09,0s2.08,2.88,3.09,3.95c1-1.07,3.56-2.12,3.09-3.95S1226.24,100.47,1225.66,102.12Z" transform="translate(-23.02 -11.62)"/><path class="cls-3" d="M1254.66,102.12c-.58-1.65-2.65-1.72-3.09,0s2.08,2.88,3.09,3.95c1-1.07,3.56-2.12,3.09-3.95S1255.24,100.47,1254.66,102.12Z" transform="translate(-23.02 -11.62)"/><path class="cls-3" d="M1283.66,102.12c-.58-1.65-2.65-1.72-3.09,0s2.08,2.88,3.09,3.95c1-1.07,3.56-2.12,3.09-3.95S1284.24,100.47,1283.66,102.12Z" transform="translate(-23.02 -11.62)"/></g><g id="Spade"><path class="cls-11" d="M622.4,199.19c-3.41-3.6-5.11-3.08-5.11-3.08H587.91s-1.7-.52-5.1,3.08-2.63,6-2.63,6V233.3s2,7.89,4.64,11.83,4,6.17,7.88,6.52a33.26,33.26,0,0,0,6.5,0l0,18.13.35-.2h6l.35.2,0-18.13a33.26,33.26,0,0,0,6.5,0c3.86-.35,5.26-2.58,7.89-6.52S625,233.3,625,233.3V205.19S625.8,202.79,622.4,199.19ZM591,222.1c-.07,2.23-.27,4.46-.46,6.68,0,.22,0,.26-.13.38a1.5,1.5,0,0,1-1.66,0c-.13-.12-.11-.16-.13-.38-.19-2.22-.39-4.45-.46-6.68-.1-3.64,0-7.3,0-10.94l0-4.09c0-.23,0-.46,0-.69a1.38,1.38,0,0,1,2.74,0c0,.23,0,.46,0,.69l0,4.09C591.07,214.8,591.13,218.46,591,222.1Zm6.49,0c-.06,2.23-.26,4.46-.46,6.68,0,.22,0,.26-.12.38a1.52,1.52,0,0,1-1.67,0c-.13-.12-.1-.16-.12-.38-.19-2.22-.4-4.45-.46-6.68-.11-3.64-.05-7.3,0-10.94,0-1.36,0-2.73,0-4.09a4,4,0,0,1,0-.69,1.38,1.38,0,0,1,2.74,0,5.3,5.3,0,0,1,0,.69c0,1.36,0,2.73,0,4.09C597.57,214.8,597.63,218.46,597.52,222.1Zm6.5,0c-.07,2.23-.27,4.46-.46,6.68,0,.22,0,.26-.13.38a1.25,1.25,0,0,1-.83.25,1.26,1.26,0,0,1-.83-.25c-.13-.12-.11-.16-.13-.38-.19-2.22-.39-4.45-.46-6.68-.1-3.64,0-7.3,0-10.94l0-4.09c0-.23,0-.46,0-.69a1.38,1.38,0,0,1,2.74,0c0,.23,0,.46,0,.69l0,4.09C604.06,214.8,604.12,218.46,604,222.1Zm6.49,0c-.06,2.23-.26,4.46-.46,6.68,0,.22,0,.26-.12.38a1.28,1.28,0,0,1-.83.25,1.25,1.25,0,0,1-.83-.25c-.14-.12-.11-.16-.13-.38-.19-2.22-.4-4.45-.46-6.68-.11-3.64,0-7.3,0-10.94,0-1.36,0-2.73,0-4.09a5.31,5.31,0,0,1,0-.69,1.38,1.38,0,0,1,2.74,0,5.3,5.3,0,0,1,0,.69c0,1.36,0,2.73,0,4.09C610.56,214.8,610.62,218.46,610.51,222.1Zm6.5,0c-.07,2.23-.27,4.46-.46,6.68,0,.22,0,.26-.13.38a1.25,1.25,0,0,1-.83.25,1.26,1.26,0,0,1-.83-.25c-.13-.12-.11-.16-.13-.38-.19-2.22-.39-4.45-.46-6.68-.1-3.64,0-7.3,0-10.94,0-1.36,0-2.73,0-4.09a5.3,5.3,0,0,1,0-.69,1.38,1.38,0,0,1,2.74,0,5.31,5.31,0,0,1,0,.69c0,1.36,0,2.73,0,4.09C617.05,214.8,617.11,218.46,617,222.1Z" transform="translate(-23.02 -11.62)"/><path class="cls-12" d="M606.18,319.6l-.24,0H599l-.66,26.62s.31,3.55,3.2,4.57a8.74,8.74,0,0,0,1,.31,8.21,8.21,0,0,0,1-.31c2.89-1,3.2-4.57,3.2-4.57Zm-3.58,12.47a1.5,1.5,0,1,1,1.34-1.49A1.42,1.42,0,0,1,602.6,332.07Zm0-5.26a1.5,1.5,0,1,1,1.34-1.49A1.42,1.42,0,0,1,602.6,326.81Z" transform="translate(-23.02 -11.62)"/><polyline class="cls-5" points="555.27 554.4 555.27 58.88 830.53 58.41 830.53 554.4 554.39 554.28"/><use width="65.25" height="64.5" transform="translate(558.92 83.25)" xlink:href="#spade-2"/><path d="M549.3,75.09c-3.91-2.91-8-5.93-10.53-9.44l0,0-.09-.07-.07-.09,0,0,0,0-.07.09-.09.07,0,0c-2.57,3.51-6.61,6.53-10.53,9.44-7.67,5.7-15.6,11.6-12.77,21.56,1.57,5.53,5.9,9.26,11,9.51,4.91.24,9.26-2.74,11.52-7.81-.31,5.4-1.11,10.87-5.51,14.43l-.3.24h13.46l-.3-.24c-4.4-3.56-5.2-9-5.51-14.43,2.26,5.07,6.63,8.05,11.52,7.81,5.13-.25,9.46-4,11-9.51C564.9,86.69,557,80.79,549.3,75.09Z" transform="translate(-23.02 -11.62)"/><line class="cls-6" x1="573.82" y1="307.99" x2="557.76" y2="307.99"/><polyline class="cls-6" points="769.94 235.66 812.84 267.74 828.44 279.16 828.13 307.99 573.82 307.99"/><path class="cls-7" d="M662,109.28a29,29,0,1,0,58,1v-1a29,29,0,1,0,58,1v64H662Z" transform="translate(-23.02 -11.62)"/><path class="cls-7" d="M705.44,135.29a29.41,29.41,0,0,1-14.48-26v1a29.41,29.41,0,0,1-14.52,25" transform="translate(-23.02 -11.62)"/><path class="cls-7" d="M749,110.28a29.4,29.4,0,0,1-14.51,25" transform="translate(-23.02 -11.62)"/><path class="cls-7" d="M763.45,135.3a29.44,29.44,0,0,1-14.49-26" transform="translate(-23.02 -11.62)"/><line class="cls-7" x1="632.94" y1="151.66" x2="760.94" y2="151.66"/><polyline class="cls-7" points="642.47 162.66 642.58 173.41 642.94 207.66"/><polyline class="cls-7" points="641.94 179.66 665.94 173.66 660.94 202.66 667.94 202.66"/><line class="cls-7" x1="676.94" y1="173.66" x2="695.94" y2="180.66"/><path class="cls-7" d="M730.78,174.28l.18,54s0,11,2,13c4.53,4.53,7,6,12,6s11-3,11-10-3-12-8-12" transform="translate(-23.02 -11.62)"/><path class="cls-7" d="M750,246.25a13.25,13.25,0,0,0,5.62,1c5,0,11-3,11-10s-3-12-8-12" transform="translate(-23.02 -11.62)"/><path class="cls-7" d="M761,246.25a13.25,13.25,0,0,0,5.62,1c5,0,11-3,11-10s-3-12-8-12" transform="translate(-23.02 -11.62)"/><path class="cls-7" d="M772,246.25a13.25,13.25,0,0,0,5.62,1c5,0,11-3,11-10s-3-12-8-12" transform="translate(-23.02 -11.62)"/><path class="cls-7" d="M783,246.25a13.25,13.25,0,0,0,5.62,1c5,0,11-3,11-10s-3-12-8-12H744.46" transform="translate(-23.02 -11.62)"/><line class="cls-7" x1="718.96" y1="162.66" x2="718.96" y2="204.16"/><line class="cls-7" x1="729.96" y1="162.66" x2="729.96" y2="204.16"/><line class="cls-7" x1="740.96" y1="162.66" x2="740.96" y2="204.16"/><line class="cls-7" x1="751.93" y1="162.66" x2="751.93" y2="210.66"/><path class="cls-8" d="M733.94,242.25l-9.48,4.53c.15,1.53-.3,2.67-1.5,5.5a15.25,15.25,0,0,1-14,9c-6.08-.07-14-3.88-14-10v-6h0a17.34,17.34,0,0,1-1,7c-2.25,5.31-6.94,9.07-13,9a16.34,16.34,0,0,1-16-16c-5.67,1.57-13.72-3.63-14-12-.25-7.12,5.33-11.5,6-12a15.38,15.38,0,0,1,8-3" transform="translate(-23.02 -11.62)"/><line class="cls-7" x1="699.94" y1="224.66" x2="707.94" y2="216.66"/><path d="M672.09,213a3.32,3.32,0,0,0-2.76,1.58,3.41,3.41,0,0,0-.19,3.12,3.57,3.57,0,0,0,2.33,2,3.82,3.82,0,0,0,3-.49,3.88,3.88,0,0,0,1.71-2.51,4.22,4.22,0,0,0-3-4.78,4.61,4.61,0,0,0-5.75,5.08,5.09,5.09,0,0,0,3.71,4.28,5.57,5.57,0,0,0,5.46-1.64,5.72,5.72,0,0,0,1.23-5.55,6.24,6.24,0,0,0-4-4.13,6.72,6.72,0,0,0-5.7.72,6.87,6.87,0,0,0-3.17,4.82,7.71,7.71,0,0,0,6.44,8.69,20.88,20.88,0,0,0,3.22.11h3.35l13.4-.05,13.4,0h3.35a22.33,22.33,0,0,0,3.22-.1,7.73,7.73,0,0,0,6.44-8.69,6.87,6.87,0,0,0-3.17-4.82A6.68,6.68,0,0,0,709,210a6.2,6.2,0,0,0-4,4.12,5.73,5.73,0,0,0,1.23,5.55,5.59,5.59,0,0,0,5.46,1.63,5.1,5.1,0,0,0,3.71-4.27,4.62,4.62,0,0,0-5.76-5.08,4.23,4.23,0,0,0-3,4.78,3.87,3.87,0,0,0,4.73,3,3.61,3.61,0,0,0,2.32-2,3.38,3.38,0,0,0-.18-3.12,3.33,3.33,0,0,0-2.76-1.59,3.43,3.43,0,0,1,2.89,1.51,3.6,3.6,0,0,1,.33,3.31,3.92,3.92,0,0,1-2.48,2.32,4.32,4.32,0,0,1-3.42-.45,4.4,4.4,0,0,1-2.06-2.82,5,5,0,0,1,.56-3.49,5,5,0,0,1,2.78-2.25,5.52,5.52,0,0,1,3.59.13,5.66,5.66,0,0,1,3.53,5.9,6.29,6.29,0,0,1-4.48,5.37,7,7,0,0,1-8.59-5.13,7.55,7.55,0,0,1,.08-3.69,7.83,7.83,0,0,1,4.88-5.28,8.35,8.35,0,0,1,7.17.82,8.63,8.63,0,0,1,4,6,9.52,9.52,0,0,1-1.73,7,9.62,9.62,0,0,1-6.17,3.79,14.09,14.09,0,0,1-1.79.15h-5l-13.43.05L678,226.23h-5a14.4,14.4,0,0,1-1.8-.15,9.54,9.54,0,0,1-7.89-10.8,8.63,8.63,0,0,1,4-6,8.35,8.35,0,0,1,7.17-.82,7.84,7.84,0,0,1,4.87,5.29,7.55,7.55,0,0,1,.08,3.69,7,7,0,0,1-1.77,3.23,6.9,6.9,0,0,1-6.82,1.89,6.32,6.32,0,0,1-4.48-5.36,5.68,5.68,0,0,1,3.53-5.9,5.43,5.43,0,0,1,3.6-.13,5,5,0,0,1,2.77,2.24,4.85,4.85,0,0,1,.56,3.49,4.42,4.42,0,0,1-2.05,2.82,4.32,4.32,0,0,1-3.42.45,3.92,3.92,0,0,1-2.48-2.32,3.6,3.6,0,0,1,.33-3.31A3.41,3.41,0,0,1,672.09,213Z" transform="translate(-23.02 -11.62)"/><polyline class="cls-9" points="641.94 234.66 598.94 257.66 598.94 264.55 598.94 307.66"/><line class="cls-7" x1="599.44" y1="264.16" x2="644.94" y2="264.16"/><line class="cls-7" x1="598.94" y1="278.88" x2="648.44" y2="278.88"/><line class="cls-7" x1="598.94" y1="293.66" x2="653.44" y2="293.66"/><line class="cls-7" x1="634.94" y1="249.66" x2="614.24" y2="249.66"/><path class="cls-7" d="M651,254.12a59.45,59.45,0,0,1,19.51,28.66c3,10,6,22,6,36" transform="translate(-23.02 -11.62)"/><path class="cls-9" d="M836,279.28s-12,8-15,13c-1.86,3.09-4.86,7-7.12,13a48.76,48.76,0,0,0-2.88,14" transform="translate(-23.02 -11.62)"/><line class="cls-7" x1="693.94" y1="293.66" x2="790.94" y2="293.66"/><line class="cls-7" x1="699.94" y1="278.66" x2="799.45" y2="278.66"/><line class="cls-6" x1="722.94" y1="249.66" x2="787.1" y2="249.66"/><path class="cls-7" d="M717,318.28a108.86,108.86,0,0,1,2-19,50.15,50.15,0,0,1,8-18s6-10,12-16,25-15,25-15l12.4-3" transform="translate(-23.02 -11.62)"/><line class="cls-10" x1="598.94" y1="283.65" x2="587.94" y2="270.66"/><line class="cls-10" x1="598.94" y1="293.65" x2="587.94" y2="280.66"/><line class="cls-10" x1="598.94" y1="303.65" x2="587.94" y2="290.66"/><circle cx="652.94" cy="184.66" r="4"/><circle cx="685.94" cy="184.66" r="4"/><circle cx="722.94" cy="224.66" r="4"/><path d="M684.46,226.28v8h15a5.5,5.5,0,0,0,5.5-5.5,5.4,5.4,0,0,0-.61-2.5Z" transform="translate(-23.02 -11.62)"/><path d="M688,245.28H673v1h0c0,.16,0,.33,0,.5a7.5,7.5,0,0,0,15,0c0-.17,0-.34,0-.5h0Z" transform="translate(-23.02 -11.62)"/><path d="M717,245.28H702v1h0c0,.16,0,.33,0,.5a7.5,7.5,0,0,0,15,0c0-.17,0-.34,0-.5h0Z" transform="translate(-23.02 -11.62)"/><path d="M667,240.28v-15h-1v0l-.5,0a7.5,7.5,0,0,0,0,15c.17,0,.33,0,.5,0v0Z" transform="translate(-23.02 -11.62)"/><polyline class="cls-7" points="557.94 308.66 557.72 258.16 588.44 258.16 598.94 271.82"/><path d="M663.43,100.17A6.19,6.19,0,0,1,662.07,99h0a6.25,6.25,0,0,1-1.37,1.22c-1,.74-2,1.51-1.65,2.8a1.61,1.61,0,0,0,1.43,1.23,1.57,1.57,0,0,0,1.49-1,2.38,2.38,0,0,1-.71,1.86l0,0h1.74l0,0a2.38,2.38,0,0,1-.71-1.86,1.57,1.57,0,0,0,1.49,1,1.63,1.63,0,0,0,1.43-1.23C665.45,101.68,664.43,100.91,663.43,100.17Z" transform="translate(-23.02 -11.62)"/><path d="M692.43,100.17A6.19,6.19,0,0,1,691.07,99h0a6.25,6.25,0,0,1-1.37,1.22c-1,.74-2,1.5-1.65,2.79a1.58,1.58,0,0,0,1.43,1.23,1.54,1.54,0,0,0,1.49-1,2.41,2.41,0,0,1-.71,1.87l0,0h1.74l0,0a2.41,2.41,0,0,1-.71-1.87,1.54,1.54,0,0,0,1.49,1,1.6,1.6,0,0,0,1.43-1.23C694.45,101.67,693.43,100.91,692.43,100.17Z" transform="translate(-23.02 -11.62)"/><path d="M721.43,100.17A6.74,6.74,0,0,1,720.07,99h0v0h0v0h0a6.81,6.81,0,0,1-1.37,1.22c-1,.74-2,1.5-1.65,2.79a1.58,1.58,0,0,0,1.43,1.23,1.56,1.56,0,0,0,1.49-1,2.41,2.41,0,0,1-.71,1.87l0,0h1.74l0,0a2.41,2.41,0,0,1-.71-1.87,1.56,1.56,0,0,0,1.49,1,1.6,1.6,0,0,0,1.43-1.23C723.45,101.67,722.43,100.91,721.43,100.17Z" transform="translate(-23.02 -11.62)"/><path d="M750.43,100.17A6.74,6.74,0,0,1,749.07,99h0a6.81,6.81,0,0,1-1.37,1.22c-1,.74-2,1.5-1.65,2.79a1.6,1.6,0,0,0,1.43,1.23,1.56,1.56,0,0,0,1.49-1,2.41,2.41,0,0,1-.71,1.87l0,0h1.74l0,0a2.41,2.41,0,0,1-.71-1.87,1.56,1.56,0,0,0,1.49,1,1.62,1.62,0,0,0,1.43-1.23C752.45,101.67,751.43,100.91,750.43,100.17Z" transform="translate(-23.02 -11.62)"/><path d="M779.43,100.17a6.49,6.49,0,0,1-1.36-1.23h0a6.55,6.55,0,0,1-1.37,1.23c-1,.73-2,1.5-1.65,2.79a1.61,1.61,0,0,0,1.43,1.23,1.57,1.57,0,0,0,1.49-1,2.42,2.42,0,0,1-.71,1.87l0,0h1.74l0,0a2.42,2.42,0,0,1-.71-1.87,1.57,1.57,0,0,0,1.49,1,1.63,1.63,0,0,0,1.43-1.23C781.45,101.67,780.43,100.9,779.43,100.17Z" transform="translate(-23.02 -11.62)"/><text class="cls-13" transform="translate(500.83 37.96)">K</text><path class="cls-11" d="M809.6,440.17c3.41,3.6,5.11,3.08,5.11,3.08h29.38s1.7.52,5.1-3.08,2.63-6,2.63-6V406.05s-2-7.88-4.64-11.82-4-6.17-7.88-6.52a33.26,33.26,0,0,0-6.5,0l0-18.13-.35.2h-6l-.35-.2,0,18.13a33.26,33.26,0,0,0-6.5,0c-3.86.35-5.26,2.58-7.89,6.52S807,406.05,807,406.05v28.12S806.2,436.57,809.6,440.17ZM841,417.26c.07-2.23.27-4.46.46-6.68,0-.22,0-.26.13-.38a1.5,1.5,0,0,1,1.66,0c.13.12.11.16.13.38.19,2.22.39,4.45.46,6.68.1,3.64,0,7.3,0,10.94l0,4.09c0,.23,0,.46,0,.69a1.38,1.38,0,0,1-2.74,0c0-.23,0-.46,0-.69l0-4.09C840.93,424.56,840.87,420.9,841,417.26Zm-6.49,0c.06-2.23.26-4.46.46-6.68,0-.22,0-.26.12-.38a1.52,1.52,0,0,1,1.67,0c.13.12.1.16.12.38.19,2.22.4,4.45.46,6.68.11,3.64.05,7.3,0,10.94,0,1.36,0,2.73,0,4.09a4,4,0,0,1,0,.69,1.38,1.38,0,0,1-2.74,0,5.3,5.3,0,0,1,0-.69c0-1.36,0-2.73,0-4.09C834.43,424.56,834.37,420.9,834.48,417.26Zm-6.5,0c.07-2.23.27-4.46.46-6.68,0-.22,0-.26.13-.38a1.25,1.25,0,0,1,.83-.25,1.26,1.26,0,0,1,.83.25c.13.12.11.16.13.38.19,2.22.39,4.45.46,6.68.1,3.64,0,7.3,0,10.94l0,4.09c0,.23,0,.46,0,.69a1.38,1.38,0,0,1-2.74,0c0-.23,0-.46,0-.69l0-4.09C827.94,424.56,827.88,420.9,828,417.26Zm-6.49,0c.06-2.23.26-4.46.46-6.68,0-.22,0-.26.12-.38a1.28,1.28,0,0,1,.83-.25,1.25,1.25,0,0,1,.83.25c.14.12.11.16.13.38.19,2.22.4,4.45.46,6.68.11,3.64,0,7.3,0,10.94,0,1.36,0,2.73,0,4.09a5.31,5.31,0,0,1,0,.69,1.38,1.38,0,0,1-2.74,0,5.3,5.3,0,0,1,0-.69c0-1.36,0-2.73,0-4.09C821.44,424.56,821.38,420.9,821.49,417.26Zm-6.5,0c.07-2.23.27-4.46.46-6.68,0-.22,0-.26.13-.38a1.25,1.25,0,0,1,.83-.25,1.26,1.26,0,0,1,.83.25c.13.12.11.16.13.38.19,2.22.39,4.45.46,6.68.1,3.64,0,7.3,0,10.94,0,1.36,0,2.73,0,4.09a5.3,5.3,0,0,1,0,.69,1.38,1.38,0,0,1-2.74,0,5.31,5.31,0,0,1,0-.69c0-1.36,0-2.73,0-4.09C815,424.56,814.89,420.9,815,417.26Z" transform="translate(-23.02 -11.62)"/><path class="cls-12" d="M825.8,319.76l.24,0h7l.66-26.78s-.31-3.57-3.22-4.61c-.39-.13-.73-.23-1-.31-.31.08-.65.18-1,.31-2.91,1-3.22,4.61-3.22,4.61Zm3.6-12.53a1.5,1.5,0,1,1-1.35,1.49A1.43,1.43,0,0,1,829.4,307.23Zm0,5.29a1.5,1.5,0,1,1-1.35,1.5A1.43,1.43,0,0,1,829.4,312.52Z" transform="translate(-23.02 -11.62)"/><use width="65.25" height="64.5" transform="translate(827.04 532.87) rotate(180)" xlink:href="#spade-2"/><path d="M882.7,564.27c3.91,2.91,8,5.93,10.53,9.44l0,0,.09.07.07.09,0,0,0,0,.07-.09.09-.07,0,0c2.57-3.51,6.61-6.53,10.53-9.44,7.67-5.7,15.6-11.6,12.77-21.56-1.57-5.53-5.9-9.26-11-9.51-4.91-.24-9.26,2.74-11.52,7.81.31-5.4,1.11-10.87,5.51-14.43l.3-.24H886.67l.3.24c4.4,3.56,5.2,9,5.51,14.43-2.26-5.07-6.63-8-11.52-7.81-5.13.25-9.46,4-11,9.51C867.1,552.67,875,558.57,882.7,564.27Z" transform="translate(-23.02 -11.62)"/><line class="cls-6" x1="812.15" y1="308.13" x2="828.21" y2="308.13"/><polyline class="cls-6" points="616.02 380.46 573.13 348.38 557.52 336.96 557.83 308.13 812.15 308.13"/><path class="cls-7" d="M770,530.08a29,29,0,1,0-58-1v1a29,29,0,1,0-58-1v-64H770Z" transform="translate(-23.02 -11.62)"/><path class="cls-7" d="M726.56,504.07a29.41,29.41,0,0,1,14.48,26v-1a29.41,29.41,0,0,1,14.52-25" transform="translate(-23.02 -11.62)"/><path class="cls-7" d="M683,529.08a29.4,29.4,0,0,1,14.51-25" transform="translate(-23.02 -11.62)"/><path class="cls-7" d="M668.55,504.06a29.44,29.44,0,0,1,14.49,26" transform="translate(-23.02 -11.62)"/><line class="cls-7" x1="753.02" y1="464.46" x2="625.02" y2="464.46"/><polyline class="cls-7" points="743.49 453.46 743.38 442.7 743.02 408.46"/><polyline class="cls-7" points="744.02 436.46 720.02 442.46 725.02 413.46 718.02 413.46"/><line class="cls-7" x1="709.02" y1="442.46" x2="690.02" y2="435.46"/><path class="cls-7" d="M701.22,465.08l-.18-54s0-11-2-13c-4.53-4.53-7-6-12-6s-11,3-11,10,3,12,8,12" transform="translate(-23.02 -11.62)"/><path class="cls-7" d="M682,393.11a13.25,13.25,0,0,0-5.62-1c-5,0-11,3-11,10s3,12,8,12" transform="translate(-23.02 -11.62)"/><path class="cls-7" d="M671,393.11a13.25,13.25,0,0,0-5.62-1c-5,0-11,3-11,10s3,12,8,12" transform="translate(-23.02 -11.62)"/><path class="cls-7" d="M660,393.11a13.25,13.25,0,0,0-5.62-1c-5,0-11,3-11,10s3,12,8,12" transform="translate(-23.02 -11.62)"/><path class="cls-7" d="M649,393.11a13.25,13.25,0,0,0-5.62-1c-5,0-11,3-11,10s3,12,8,12h47.18" transform="translate(-23.02 -11.62)"/><line class="cls-7" x1="667" y1="453.46" x2="667" y2="411.96"/><line class="cls-7" x1="656" y1="453.46" x2="656" y2="411.96"/><line class="cls-7" x1="645" y1="453.46" x2="645" y2="411.96"/><line class="cls-7" x1="634.04" y1="453.46" x2="634.04" y2="405.46"/><path class="cls-8" d="M698.06,397.11l9.48-4.53c-.15-1.53.3-2.67,1.5-5.5a15.25,15.25,0,0,1,14-9c6.08.07,14,3.88,14,10v6h0a17.34,17.34,0,0,1,1-7c2.25-5.31,6.94-9.07,13-9a16.34,16.34,0,0,1,16,16c5.67-1.57,13.72,3.63,14,12,.25,7.12-5.33,11.49-6,12a15.38,15.38,0,0,1-8,3" transform="translate(-23.02 -11.62)"/><line class="cls-7" x1="686.02" y1="391.46" x2="678.02" y2="399.46"/><path d="M759.91,426.35a3.32,3.32,0,0,0,2.76-1.58,3.41,3.41,0,0,0,.19-3.12,3.57,3.57,0,0,0-2.33-2,3.82,3.82,0,0,0-3,.49,3.88,3.88,0,0,0-1.71,2.51,4.22,4.22,0,0,0,3,4.78,4.61,4.61,0,0,0,5.75-5.08,5.09,5.09,0,0,0-3.71-4.28,5.57,5.57,0,0,0-5.46,1.64,5.72,5.72,0,0,0-1.23,5.55,6.24,6.24,0,0,0,4,4.13,6.72,6.72,0,0,0,5.7-.72,6.87,6.87,0,0,0,3.17-4.82,7.71,7.71,0,0,0-6.44-8.69,20.88,20.88,0,0,0-3.22-.11h-3.35l-13.4.05-13.4,0-3.35,0a23.8,23.8,0,0,0-3.22.11,7.73,7.73,0,0,0-6.44,8.69,6.87,6.87,0,0,0,3.17,4.82,6.68,6.68,0,0,0,5.7.71,6.2,6.2,0,0,0,4-4.12,5.73,5.73,0,0,0-1.23-5.55,5.59,5.59,0,0,0-5.46-1.63,5.1,5.1,0,0,0-3.71,4.27,4.62,4.62,0,0,0,5.76,5.08,4.23,4.23,0,0,0,3-4.78,3.87,3.87,0,0,0-4.73-3,3.61,3.61,0,0,0-2.32,2,3.32,3.32,0,0,0,2.94,4.71,3.43,3.43,0,0,1-2.89-1.51,3.6,3.6,0,0,1-.33-3.31,3.92,3.92,0,0,1,2.48-2.32,4.32,4.32,0,0,1,3.42.45,4.4,4.4,0,0,1,2.06,2.82,5,5,0,0,1-.56,3.49,5.09,5.09,0,0,1-2.78,2.25,5.52,5.52,0,0,1-3.59-.13,5.66,5.66,0,0,1-3.53-5.91,6.29,6.29,0,0,1,4.48-5.36,7,7,0,0,1,8.59,5.13,7.51,7.51,0,0,1-.08,3.68,7.83,7.83,0,0,1-4.88,5.29,8.35,8.35,0,0,1-7.17-.82,8.63,8.63,0,0,1-4-6,9.53,9.53,0,0,1,7.9-10.8,14.09,14.09,0,0,1,1.79-.15h5l13.43-.05,13.43.05h5a14.4,14.4,0,0,1,1.8.15,9.54,9.54,0,0,1,7.89,10.8,8.63,8.63,0,0,1-4,6,8.35,8.35,0,0,1-7.17.82,7.84,7.84,0,0,1-4.87-5.29,7.55,7.55,0,0,1-.08-3.69,7,7,0,0,1,1.77-3.23,6.9,6.9,0,0,1,6.82-1.89,6.32,6.32,0,0,1,4.48,5.36,5.68,5.68,0,0,1-3.53,5.9,5.43,5.43,0,0,1-3.6.13,5,5,0,0,1-2.77-2.24,4.85,4.85,0,0,1-.56-3.49,4.46,4.46,0,0,1,2.05-2.83,4.32,4.32,0,0,1,3.42-.44,3.92,3.92,0,0,1,2.48,2.32,3.6,3.6,0,0,1-.33,3.31A3.41,3.41,0,0,1,759.91,426.35Z" transform="translate(-23.02 -11.62)"/><polyline class="cls-9" points="744.02 381.46 787.02 358.46 787.02 351.57 787.02 308.46"/><line class="cls-7" x1="786.52" y1="351.96" x2="741.02" y2="351.96"/><line class="cls-7" x1="787.02" y1="337.24" x2="737.52" y2="337.24"/><line class="cls-7" x1="787.02" y1="322.46" x2="732.52" y2="322.46"/><line class="cls-7" x1="751.02" y1="366.46" x2="771.73" y2="366.46"/><path class="cls-7" d="M781.05,385.24a59.5,59.5,0,0,1-19.51-28.66c-3-10-6-22-6-36" transform="translate(-23.02 -11.62)"/><path class="cls-9" d="M596,360.08s12-8,15-13c1.86-3.09,4.86-6.95,7.12-13a48.76,48.76,0,0,0,2.88-14" transform="translate(-23.02 -11.62)"/><line class="cls-7" x1="692.02" y1="322.46" x2="595.02" y2="322.46"/><line class="cls-7" x1="686.02" y1="337.46" x2="586.51" y2="337.46"/><line class="cls-6" x1="663.02" y1="366.46" x2="598.86" y2="366.46"/><path class="cls-7" d="M715,321.08a108.86,108.86,0,0,1-2,19,50.15,50.15,0,0,1-8,18s-6,10-12,16-25,15-25,15l-12.4,3" transform="translate(-23.02 -11.62)"/><line class="cls-10" x1="787.02" y1="332.47" x2="798.02" y2="345.46"/><line class="cls-10" x1="787.02" y1="322.47" x2="798.02" y2="335.46"/><line class="cls-10" x1="787.02" y1="312.47" x2="798.02" y2="325.46"/><circle cx="733.02" cy="431.46" r="4"/><circle cx="700.02" cy="431.46" r="4"/><circle cx="663.02" cy="391.46" r="4"/><path d="M747.54,413.08v-8h-15a5.5,5.5,0,0,0-5.5,5.5,5.4,5.4,0,0,0,.61,2.5Z" transform="translate(-23.02 -11.62)"/><path d="M744,394.08h15v-1h0c0-.17,0-.33,0-.5a7.5,7.5,0,1,0-15,0c0,.17,0,.33,0,.5h0Z" transform="translate(-23.02 -11.62)"/><path d="M715,394.08h15v-1h0c0-.17,0-.33,0-.5a7.5,7.5,0,1,0-15,0c0,.17,0,.33,0,.5h0Z" transform="translate(-23.02 -11.62)"/><path d="M765,399.08v15h1v0l.5,0a7.5,7.5,0,0,0,0-15c-.17,0-.33,0-.5,0v0Z" transform="translate(-23.02 -11.62)"/><polyline class="cls-7" points="828.02 307.46 828.24 357.96 797.52 357.96 787.02 344.29"/><path d="M768.57,539.18a6.49,6.49,0,0,1,1.36,1.23h0a6.55,6.55,0,0,1,1.37-1.23c1-.73,2-1.5,1.65-2.79a1.61,1.61,0,0,0-1.43-1.23,1.57,1.57,0,0,0-1.49,1,2.42,2.42,0,0,1,.71-1.87l0,0h-1.74l0,0a2.42,2.42,0,0,1,.71,1.87,1.57,1.57,0,0,0-1.49-1,1.63,1.63,0,0,0-1.43,1.23C766.55,537.68,767.57,538.45,768.57,539.18Z" transform="translate(-23.02 -11.62)"/><path d="M739.57,539.19a6.19,6.19,0,0,1,1.36,1.22h0a6.25,6.25,0,0,1,1.37-1.22c1-.74,2-1.5,1.65-2.79a1.58,1.58,0,0,0-1.43-1.23,1.54,1.54,0,0,0-1.49,1,2.41,2.41,0,0,1,.71-1.87l0,0h-1.74l0,0a2.41,2.41,0,0,1,.71,1.87,1.54,1.54,0,0,0-1.49-1,1.6,1.6,0,0,0-1.43,1.23C737.55,537.69,738.57,538.45,739.57,539.19Z" transform="translate(-23.02 -11.62)"/><path d="M710.57,539.19a6.74,6.74,0,0,1,1.36,1.22h0v0h0v0h0a6.81,6.81,0,0,1,1.37-1.22c1-.74,2-1.5,1.65-2.79a1.58,1.58,0,0,0-1.43-1.23,1.56,1.56,0,0,0-1.49,1,2.41,2.41,0,0,1,.71-1.87l0,0h-1.74l0,0a2.41,2.41,0,0,1,.71,1.87,1.56,1.56,0,0,0-1.49-1,1.6,1.6,0,0,0-1.43,1.23C708.55,537.69,709.57,538.45,710.57,539.19Z" transform="translate(-23.02 -11.62)"/><path d="M681.57,539.19a6.74,6.74,0,0,1,1.36,1.22h0a6.81,6.81,0,0,1,1.37-1.22c1-.74,2-1.5,1.65-2.79a1.6,1.6,0,0,0-1.43-1.23,1.56,1.56,0,0,0-1.49,1,2.41,2.41,0,0,1,.71-1.87l0,0h-1.74l0,0a2.41,2.41,0,0,1,.71,1.87,1.56,1.56,0,0,0-1.49-1,1.62,1.62,0,0,0-1.43,1.23C679.55,537.69,680.57,538.45,681.57,539.19Z" transform="translate(-23.02 -11.62)"/><path d="M652.57,539.19a6.49,6.49,0,0,1,1.36,1.23h0a6.55,6.55,0,0,1,1.37-1.23c1-.73,2-1.5,1.65-2.79a1.6,1.6,0,0,0-1.43-1.23,1.57,1.57,0,0,0-1.49,1,2.42,2.42,0,0,1,.71-1.87l0,0h-1.74l0,0a2.42,2.42,0,0,1,.71,1.87,1.57,1.57,0,0,0-1.49-1,1.62,1.62,0,0,0-1.43,1.23C650.55,537.69,651.57,538.46,652.57,539.19Z" transform="translate(-23.02 -11.62)"/><text class="cls-13" transform="translate(885.14 578.16) rotate(180)">K</text></g><g id="Diamond"><polyline class="cls-5" points="1551 556.46 1551 60.94 1826.26 60.46 1826.26 556.46 1550.12 556.34"/><path class="cls-14" d="M1597.61,269.81a136.67,136.67,0,0,0-.54-15.41c-.42-6.05-1.87-14.15.89-19.78,2.36-4.8,7.29-7.51,9.69-12.35,2.77-5.6,2.32-12.12,2.32-18.22a29.2,29.2,0,0,0-4.83-15.94c-5.53-8.3-13.87-10.92-21.26-3.64a26.31,26.31,0,0,0-6.18,10.16c-2.59,7.53-2.86,18.61,0,26.06,1.66,4.29,4.9,7,7.82,10.32s3.8,6.67,3.9,11.1c.22,9.22-1.44,18.49-1,27.7m-5.11,49.5c-.12,1.52-.25,3-.38,4.54-.44,5.3-.75,11,.75,16.14a13.21,13.21,0,0,0,3.37,6,8.22,8.22,0,0,0,11.92,0,13.32,13.32,0,0,0,3.38-6c1.5-5.16,1.19-10.84.74-16.14-.13-1.51-.25-3-.38-4.54m-19.49-105.57a2.54,2.54,0,0,1-2-.66c-.37-.52-.17-2.62-.2-3.27-.09-2.25,0-4.49,0-6.74,0-1.33-.35-3.74.67-4.78s1.79-.49,2.34.69c1,3.28.28,7.82.27,11.24C1584.27,211.4,1584.58,213.3,1583.23,213.74Zm7.58,1.61c-.66,1.77-2.63,1.82-3.28,0-.46-1.3-.23-3.86-.26-5.28,0-2.78,0-5.58,0-8.37a27.36,27.36,0,0,1,.26-5.37c.74-3.27,2.4-3.27,3.25-.16a24.76,24.76,0,0,1,.29,5.53q.08,4,0,8.06C1591.05,211.2,1591.3,214,1590.81,215.35Zm7.3,0c-.65,1.77-2.62,1.82-3.27,0-.46-1.3-.23-3.86-.26-5.28,0-2.78,0-5.58,0-8.37a28.15,28.15,0,0,1,.27-5.37c.74-3.27,2.4-3.27,3.24-.16a24.75,24.75,0,0,1,.3,5.53c0,2.69,0,5.38,0,8.06C1598.35,211.2,1598.6,214,1598.11,215.35Zm4.49-1.61c-2.22-.38-1.24-7.71-1.23-9.43s-.11-9.24,2.84-5.33c.94,3.18.33,7.56.2,10.84C1604.36,211.2,1604.85,214.13,1602.6,213.74Z" transform="translate(-23.02 -11.62)"/><path class="cls-15" d="M1585.29,221c.15.25,2.82,4.62,7.79,4.6,4.35,0,6.9-4.19,7.2-4.6" transform="translate(-23.02 -11.62)"/><polygon class="cls-3" points="1512.13 102.87 1535.35 79.95 1511.72 56.02 1511.72 56.02 1511.72 56.02 1487.49 79.95 1510.71 102.87 1511.41 103.58 1511.42 103.58 1511.43 103.58 1512.13 102.87"/><polygon class="cls-3" points="1587.86 149.57 1619.51 117.3 1587.3 83.59 1587.3 83.59 1587.3 83.59 1554.26 117.29 1585.92 149.57 1586.88 150.58 1586.89 150.56 1586.9 150.58 1587.86 149.57"/><polyline class="cls-6" points="1764.98 235.69 1807.87 267.77 1823.48 279.19 1823.17 308.03 1552.79 308.03"/><path class="cls-7" d="M1657,109.31a29,29,0,1,0,58,1v-1a29,29,0,1,0,58,1v64H1657Z" transform="translate(-23.02 -11.62)"/><path class="cls-7" d="M1700.48,135.32a29.39,29.39,0,0,1-14.48-26v1a29.42,29.42,0,0,1-14.52,25" transform="translate(-23.02 -11.62)"/><path class="cls-7" d="M1744,110.31a29.45,29.45,0,0,1-14.51,25" transform="translate(-23.02 -11.62)"/><path class="cls-7" d="M1758.49,135.33a29.41,29.41,0,0,1-14.49-26" transform="translate(-23.02 -11.62)"/><line class="cls-7" x1="1627.98" y1="151.69" x2="1755.98" y2="151.69"/><polyline class="cls-7" points="1637.51 162.69 1637.62 173.45 1637.98 207.69"/><polyline class="cls-7" points="1636.98 179.69 1660.98 173.69 1655.98 202.69 1662.98 202.69"/><line class="cls-7" x1="1671.98" y1="173.69" x2="1690.98" y2="180.69"/><path class="cls-7" d="M1725.82,174.31l.18,54s0,11,2,13c4.52,4.53,7,6,12,6s11-3,11-10-3-12-8-12" transform="translate(-23.02 -11.62)"/><path class="cls-7" d="M1745.05,246.28a13.13,13.13,0,0,0,5.62,1c5,0,11-3,11-10s-3-12-8-12" transform="translate(-23.02 -11.62)"/><path class="cls-7" d="M1756.05,246.28a13.13,13.13,0,0,0,5.62,1c5,0,11-3,11-10s-3-12-8-12" transform="translate(-23.02 -11.62)"/><path class="cls-7" d="M1767.05,246.28a13.13,13.13,0,0,0,5.62,1c5,0,11-3,11-10s-3-12-8-12" transform="translate(-23.02 -11.62)"/><path class="cls-7" d="M1778.06,246.28a13.05,13.05,0,0,0,5.61,1c5,0,11-3,11-10s-3-12-8-12H1739.5" transform="translate(-23.02 -11.62)"/><line class="cls-7" x1="1714" y1="162.69" x2="1714" y2="204.19"/><line class="cls-7" x1="1725" y1="162.69" x2="1725" y2="204.19"/><line class="cls-7" x1="1736" y1="162.69" x2="1736" y2="204.19"/><line class="cls-7" x1="1746.96" y1="162.69" x2="1746.96" y2="210.69"/><path class="cls-8" d="M1729,242.28l-9.48,4.53c.15,1.54-.3,2.67-1.5,5.5a15.27,15.27,0,0,1-14,9c-6.08-.07-14-3.88-14-10v-6h0a17.34,17.34,0,0,1-1,7c-2.26,5.31-7,9.07-13,9a16.33,16.33,0,0,1-16-16c-5.67,1.58-13.72-3.63-14-12-.25-7.12,5.32-11.49,6-12a15.56,15.56,0,0,1,8-3" transform="translate(-23.02 -11.62)"/><line class="cls-7" x1="1694.98" y1="224.69" x2="1702.98" y2="216.69"/><path d="M1667.12,213a3.33,3.33,0,0,0-2.76,1.59,3.42,3.42,0,0,0-.18,3.11,3.6,3.6,0,0,0,2.32,2,3.88,3.88,0,0,0,4.74-3,4.21,4.21,0,0,0-.58-3,4.27,4.27,0,0,0-2.39-1.81,4.47,4.47,0,0,0-3,.21,4.61,4.61,0,0,0-2.78,4.87,5.08,5.08,0,0,0,3.7,4.27,5.57,5.57,0,0,0,5.46-1.63,5.69,5.69,0,0,0,1.23-5.55,6.2,6.2,0,0,0-4-4.13,6.75,6.75,0,0,0-5.71.72,6.86,6.86,0,0,0-3.17,4.81,7.72,7.72,0,0,0,6.45,8.69,20.75,20.75,0,0,0,3.21.11h3.35l13.41,0,13.4,0h3.35a20.75,20.75,0,0,0,3.21-.11,7.73,7.73,0,0,0,6.45-8.69,6.89,6.89,0,0,0-3.17-4.81A6.75,6.75,0,0,0,1704,210a6.22,6.22,0,0,0-4,4.13,5.69,5.69,0,0,0,1.23,5.54,5.56,5.56,0,0,0,5.46,1.64,5.09,5.09,0,0,0,3.7-4.28,4.61,4.61,0,0,0-2.78-4.86,4.53,4.53,0,0,0-3-.21,4.18,4.18,0,0,0-2.38,1.81,4.11,4.11,0,0,0-.58,3,3.85,3.85,0,0,0,4.73,3,3.56,3.56,0,0,0,2.32-2,3.44,3.44,0,0,0-.18-3.12,3.35,3.35,0,0,0-2.76-1.58,3.39,3.39,0,0,1,2.88,1.5,3.63,3.63,0,0,1,.34,3.31,3.91,3.91,0,0,1-2.49,2.32,4.28,4.28,0,0,1-3.42-.44,4.46,4.46,0,0,1-2-2.83,4.81,4.81,0,0,1,.56-3.48,5.06,5.06,0,0,1,2.77-2.25,5.42,5.42,0,0,1,3.6.13,5.66,5.66,0,0,1,3.53,5.9,6.27,6.27,0,0,1-4.48,5.36,6.9,6.9,0,0,1-6.82-1.88,7,7,0,0,1-1.77-3.24,7.55,7.55,0,0,1,.08-3.69,7.84,7.84,0,0,1,4.87-5.29,8.37,8.37,0,0,1,7.18.83,8.59,8.59,0,0,1,4,6,9.55,9.55,0,0,1-7.9,10.8,12.6,12.6,0,0,1-1.8.15h-5l-13.43,0-13.44,0h-5a12.6,12.6,0,0,1-1.8-.15,9.55,9.55,0,0,1-7.9-10.8,8.64,8.64,0,0,1,4-6,8.37,8.37,0,0,1,7.18-.82,7.84,7.84,0,0,1,4.87,5.28,7.55,7.55,0,0,1,.08,3.69,7,7,0,0,1-1.77,3.24,6.9,6.9,0,0,1-6.82,1.88,6.27,6.27,0,0,1-4.48-5.36,5.67,5.67,0,0,1,3.53-5.9,5.55,5.55,0,0,1,3.6-.13,5.06,5.06,0,0,1,2.77,2.25,4.89,4.89,0,0,1,.56,3.49,4.47,4.47,0,0,1-2,2.82,4.28,4.28,0,0,1-3.42.44,3.94,3.94,0,0,1-2.49-2.31,3.64,3.64,0,0,1,.34-3.32A3.41,3.41,0,0,1,1667.12,213Z" transform="translate(-23.02 -11.62)"/><polyline class="cls-9" points="1636.98 234.69 1593.98 257.69 1593.98 264.59 1593.98 307.69"/><line class="cls-7" x1="1594.48" y1="264.19" x2="1639.98" y2="264.19"/><line class="cls-7" x1="1593.98" y1="278.91" x2="1643.48" y2="278.91"/><line class="cls-7" x1="1593.98" y1="293.69" x2="1648.48" y2="293.69"/><line class="cls-7" x1="1629.98" y1="249.69" x2="1609.27" y2="249.69"/><path class="cls-7" d="M1646,254.15a59.63,59.63,0,0,1,19.51,28.66c3,10,6,22,6,36" transform="translate(-23.02 -11.62)"/><path class="cls-9" d="M1831,279.31s-12,8-15,13c-1.86,3.1-4.87,7-7.12,13a48.57,48.57,0,0,0-2.88,14" transform="translate(-23.02 -11.62)"/><line class="cls-7" x1="1688.98" y1="293.69" x2="1785.98" y2="293.69"/><line class="cls-7" x1="1694.98" y1="278.69" x2="1794.49" y2="278.69"/><line class="cls-7" x1="1702.98" y1="264.69" x2="1802.98" y2="264.69"/><line class="cls-6" x1="1717.98" y1="249.69" x2="1782.14" y2="249.69"/><path class="cls-7" d="M1712,318.31a108.86,108.86,0,0,1,2-19,50.15,50.15,0,0,1,8-18s6-10,12-16,25-15,25-15l12.4-3" transform="translate(-23.02 -11.62)"/><line class="cls-10" x1="1593.98" y1="283.68" x2="1582.98" y2="270.69"/><line class="cls-10" x1="1593.98" y1="293.68" x2="1582.98" y2="280.69"/><line class="cls-10" x1="1593.98" y1="303.68" x2="1582.98" y2="290.69"/><circle cx="1647.98" cy="184.69" r="4"/><circle cx="1680.98" cy="184.69" r="4"/><circle cx="1717.98" cy="224.69" r="4"/><path d="M1679.5,226.31v8h15a5.49,5.49,0,0,0,4.89-8Z" transform="translate(-23.02 -11.62)"/><path d="M1683,245.31h-15v1h0c0,.17,0,.34,0,.5a7.5,7.5,0,0,0,15,0c0-.16,0-.33,0-.5h0Z" transform="translate(-23.02 -11.62)"/><path d="M1712,245.31h-15v1h0c0,.17,0,.34,0,.5a7.5,7.5,0,0,0,15,0c0-.16,0-.33,0-.5h0Z" transform="translate(-23.02 -11.62)"/><path d="M1662,240.31v-15h-1v0l-.5,0a7.5,7.5,0,0,0,0,15l.5,0v0Z" transform="translate(-23.02 -11.62)"/><polyline class="cls-7" points="1552.98 308.69 1552.76 258.19 1583.48 258.19 1593.98 271.86"/><polygon class="cls-3" points="1634.16 93.49 1637.25 90.44 1634.11 87.25 1634.11 87.25 1634.11 87.25 1630.88 90.44 1633.97 93.49 1634.07 93.59 1634.07 93.59 1634.07 93.59 1634.16 93.49"/><polygon class="cls-3" points="1663.16 93.49 1666.25 90.44 1663.11 87.25 1663.11 87.25 1663.11 87.25 1659.88 90.44 1662.97 93.49 1663.07 93.59 1663.07 93.59 1663.07 93.59 1663.16 93.49"/><polygon class="cls-3" points="1692.16 93.49 1695.25 90.44 1692.11 87.25 1692.11 87.25 1692.11 87.25 1688.88 90.44 1691.97 93.49 1692.07 93.59 1692.07 93.59 1692.07 93.59 1692.16 93.49"/><polygon class="cls-3" points="1721.16 93.49 1724.25 90.44 1721.11 87.25 1721.11 87.25 1721.11 87.25 1717.88 90.44 1720.97 93.49 1721.07 93.59 1721.07 93.59 1721.07 93.59 1721.16 93.49"/><polygon class="cls-3" points="1750.16 93.49 1753.25 90.44 1750.11 87.25 1750.11 87.25 1750.11 87.25 1746.88 90.44 1749.97 93.49 1750.07 93.59 1750.07 93.59 1750.07 93.59 1750.16 93.49"/><text class="cls-4" transform="translate(1496.66 40.19)">K</text><path class="cls-14" d="M1588.43,269.81h0Z" transform="translate(-23.02 -11.62)"/><path class="cls-14" d="M1602.75,319.65" transform="translate(-23.02 -11.62)"/><path class="cls-14" d="M1824.39,369.55a136.67,136.67,0,0,0,.54,15.41c.42,6.05,1.87,14.15-.89,19.78-2.36,4.8-7.29,7.51-9.69,12.35-2.77,5.6-2.32,12.12-2.32,18.22a29.2,29.2,0,0,0,4.83,15.94c5.53,8.3,13.87,10.92,21.26,3.64a26.31,26.31,0,0,0,6.18-10.16c2.59-7.53,2.86-18.61,0-26.06-1.66-4.29-4.9-7-7.82-10.32s-3.8-6.67-3.9-11.1c-.22-9.22,1.44-18.49,1-27.7m5.11-49.5c.12-1.52.25-3,.38-4.54.44-5.3.75-11-.75-16.14a13.21,13.21,0,0,0-3.37-6,8.22,8.22,0,0,0-11.92,0,13.32,13.32,0,0,0-3.38,6c-1.5,5.16-1.19,10.84-.74,16.14.13,1.51.25,3,.38,4.54m19.49,105.57a2.54,2.54,0,0,1,2,.66c.37.52.17,2.61.2,3.27.09,2.25,0,4.49,0,6.74,0,1.33.35,3.74-.67,4.78s-1.79.49-2.34-.69c-1-3.28-.28-7.82-.27-11.24C1837.73,428,1837.42,426.06,1838.77,425.62Zm-7.58-1.61c.66-1.77,2.63-1.82,3.28,0,.46,1.3.23,3.86.26,5.28,0,2.78,0,5.58,0,8.37a27.36,27.36,0,0,1-.26,5.37c-.74,3.27-2.4,3.27-3.25.16a24.76,24.76,0,0,1-.29-5.53q-.08-4,0-8.06C1831,428.16,1830.7,425.34,1831.19,424Zm-7.3,0c.65-1.77,2.62-1.82,3.27,0,.46,1.3.23,3.86.26,5.28,0,2.78,0,5.58,0,8.37a28.15,28.15,0,0,1-.27,5.37c-.74,3.27-2.4,3.27-3.24.16a24.75,24.75,0,0,1-.3-5.53c0-2.69,0-5.38,0-8.06C1823.65,428.16,1823.4,425.34,1823.89,424Zm-4.49,1.61c2.22.38,1.24,7.71,1.23,9.43s.11,9.24-2.84,5.33c-.94-3.18-.33-7.56-.2-10.84C1817.64,428.16,1817.15,425.23,1819.4,425.62Z" transform="translate(-23.02 -11.62)"/><path class="cls-15" d="M1836.71,418.33c-.15-.25-2.82-4.62-7.79-4.6-4.35,0-6.9,4.19-7.2,4.6" transform="translate(-23.02 -11.62)"/><polygon class="cls-3" points="1863.83 513.25 1840.62 536.16 1864.25 560.1 1864.25 560.1 1864.25 560.1 1888.48 536.17 1865.26 513.25 1864.55 512.53 1864.54 512.54 1864.53 512.53 1863.83 513.25"/><polygon class="cls-3" points="1788.1 466.55 1756.45 498.82 1788.67 532.52 1788.67 532.52 1788.67 532.52 1821.7 498.83 1790.04 466.55 1789.08 465.54 1789.07 465.56 1789.06 465.54 1788.1 466.55"/><polyline class="cls-6" points="1610.99 380.43 1568.09 348.34 1552.49 336.93 1552.8 308.09 1823.17 308.09"/><path class="cls-7" d="M1765,530.05a29,29,0,1,0-58-1v1a29,29,0,1,0-58-1v-64h116Z" transform="translate(-23.02 -11.62)"/><path class="cls-7" d="M1721.52,504a29.39,29.39,0,0,1,14.48,26v-1a29.42,29.42,0,0,1,14.52-25" transform="translate(-23.02 -11.62)"/><path class="cls-7" d="M1678,529.05a29.45,29.45,0,0,1,14.51-25" transform="translate(-23.02 -11.62)"/><path class="cls-7" d="M1663.51,504a29.41,29.41,0,0,1,14.49,26" transform="translate(-23.02 -11.62)"/><line class="cls-7" x1="1747.99" y1="464.43" x2="1619.99" y2="464.43"/><polyline class="cls-7" points="1738.46 453.43 1738.34 442.67 1737.99 408.43"/><polyline class="cls-7" points="1738.99 436.43 1714.99 442.43 1719.99 413.43 1712.99 413.43"/><line class="cls-7" x1="1703.99" y1="442.43" x2="1684.99" y2="435.43"/><path class="cls-7" d="M1696.18,465.05l-.18-54s0-11-2-13c-4.52-4.53-7-6-12-6s-11,3-11,10,3,12,8,12" transform="translate(-23.02 -11.62)"/><path class="cls-7" d="M1677,393.08a13.13,13.13,0,0,0-5.62-1c-5,0-11,3-11,10s3,12,8,12" transform="translate(-23.02 -11.62)"/><path class="cls-7" d="M1666,393.08a13.13,13.13,0,0,0-5.62-1c-5,0-11,3-11,10s3,12,8,12" transform="translate(-23.02 -11.62)"/><path class="cls-7" d="M1655,393.08a13.13,13.13,0,0,0-5.62-1c-5,0-11,3-11,10s3,12,8,12" transform="translate(-23.02 -11.62)"/><path class="cls-7" d="M1643.94,393.08a13.05,13.05,0,0,0-5.61-1c-5,0-11,3-11,10s3,12,8,12h47.17" transform="translate(-23.02 -11.62)"/><line class="cls-7" x1="1661.97" y1="453.43" x2="1661.97" y2="411.93"/><line class="cls-7" x1="1650.97" y1="453.43" x2="1650.97" y2="411.93"/><line class="cls-7" x1="1639.97" y1="453.43" x2="1639.97" y2="411.93"/><line class="cls-7" x1="1629" y1="453.43" x2="1629" y2="405.43"/><path class="cls-8" d="M1693,397.08l9.48-4.53c-.15-1.54.3-2.67,1.5-5.5a15.27,15.27,0,0,1,14-9c6.08.07,14,3.88,14,10v6h0a17.34,17.34,0,0,1,1-7c2.26-5.31,7-9.07,13-9a16.33,16.33,0,0,1,16,16c5.67-1.58,13.72,3.63,14,12,.25,7.12-5.32,11.49-6,12a15.56,15.56,0,0,1-8,3" transform="translate(-23.02 -11.62)"/><line class="cls-7" x1="1680.99" y1="391.43" x2="1672.99" y2="399.43"/><path d="M1754.88,426.32a3.33,3.33,0,0,0,2.76-1.59,3.42,3.42,0,0,0,.18-3.11,3.6,3.6,0,0,0-2.32-2,3.88,3.88,0,0,0-4.74,3,4.21,4.21,0,0,0,.58,3,4.27,4.27,0,0,0,2.39,1.81,4.47,4.47,0,0,0,3-.21,4.62,4.62,0,0,0,2.78-4.87,5.08,5.08,0,0,0-3.7-4.27,5.57,5.57,0,0,0-5.46,1.63,5.69,5.69,0,0,0-1.23,5.55,6.2,6.2,0,0,0,4,4.13,6.75,6.75,0,0,0,5.71-.72,6.86,6.86,0,0,0,3.17-4.81,7.73,7.73,0,0,0-6.45-8.7,22.15,22.15,0,0,0-3.21-.1h-3.35l-13.41,0-13.4,0h-3.35a20.75,20.75,0,0,0-3.21.11,7.73,7.73,0,0,0-6.45,8.69,6.89,6.89,0,0,0,3.17,4.81,6.75,6.75,0,0,0,5.71.72,6.22,6.22,0,0,0,4-4.13,5.69,5.69,0,0,0-1.23-5.54,5.56,5.56,0,0,0-5.46-1.64,5.09,5.09,0,0,0-3.7,4.28,4.61,4.61,0,0,0,2.78,4.86,4.53,4.53,0,0,0,3,.21,4.18,4.18,0,0,0,2.38-1.81,4.11,4.11,0,0,0,.58-3,3.85,3.85,0,0,0-1.7-2.51,3.81,3.81,0,0,0-3-.49,3.56,3.56,0,0,0-2.32,2,3.44,3.44,0,0,0,.18,3.12,3.35,3.35,0,0,0,2.76,1.58,3.39,3.39,0,0,1-2.88-1.5,3.64,3.64,0,0,1-.34-3.32,3.92,3.92,0,0,1,2.49-2.31,4.28,4.28,0,0,1,3.42.44,4.46,4.46,0,0,1,2,2.83,4.81,4.81,0,0,1-.56,3.48,5.06,5.06,0,0,1-2.77,2.25,5.42,5.42,0,0,1-3.6-.13,5.66,5.66,0,0,1-3.53-5.9,6.27,6.27,0,0,1,4.48-5.36,6.9,6.9,0,0,1,6.82,1.88,7,7,0,0,1,1.77,3.24,7.55,7.55,0,0,1-.08,3.69,7.84,7.84,0,0,1-4.87,5.29,8.37,8.37,0,0,1-7.18-.83,8.59,8.59,0,0,1-4-6,9.55,9.55,0,0,1,7.9-10.8,12.6,12.6,0,0,1,1.8-.15h5l13.43,0,13.44,0h5a12.6,12.6,0,0,1,1.8.15,9.55,9.55,0,0,1,7.9,10.8,8.64,8.64,0,0,1-4,6,8.37,8.37,0,0,1-7.18.82,7.84,7.84,0,0,1-4.87-5.28,7.55,7.55,0,0,1-.08-3.69,7,7,0,0,1,1.77-3.24,6.9,6.9,0,0,1,6.82-1.88,6.27,6.27,0,0,1,4.48,5.36,5.67,5.67,0,0,1-3.53,5.9,5.55,5.55,0,0,1-3.6.13,5.06,5.06,0,0,1-2.77-2.25,4.89,4.89,0,0,1-.56-3.49,4.42,4.42,0,0,1,2-2.82,4.28,4.28,0,0,1,3.42-.44,3.92,3.92,0,0,1,2.49,2.31,3.64,3.64,0,0,1-.34,3.32A3.41,3.41,0,0,1,1754.88,426.32Z" transform="translate(-23.02 -11.62)"/><polyline class="cls-9" points="1738.99 381.43 1781.99 358.43 1781.99 351.53 1781.99 308.43"/><line class="cls-7" x1="1781.49" y1="351.93" x2="1735.99" y2="351.93"/><line class="cls-7" x1="1781.99" y1="337.21" x2="1732.49" y2="337.21"/><line class="cls-7" x1="1781.99" y1="322.42" x2="1727.49" y2="322.42"/><line class="cls-7" x1="1745.99" y1="366.43" x2="1766.69" y2="366.42"/><path class="cls-7" d="M1776,385.21a59.63,59.63,0,0,1-19.51-28.66c-3-10-6-22-6-36" transform="translate(-23.02 -11.62)"/><path class="cls-9" d="M1591,360.05s12-8,15-13c1.86-3.1,4.87-7,7.12-13a48.57,48.57,0,0,0,2.88-14" transform="translate(-23.02 -11.62)"/><line class="cls-7" x1="1686.99" y1="322.43" x2="1589.99" y2="322.43"/><line class="cls-7" x1="1680.99" y1="337.43" x2="1581.47" y2="337.43"/><line class="cls-7" x1="1672.99" y1="351.43" x2="1572.98" y2="351.43"/><line class="cls-6" x1="1657.99" y1="366.43" x2="1593.82" y2="366.43"/><path class="cls-7" d="M1710,321.05a108.86,108.86,0,0,1-2,19,50.15,50.15,0,0,1-8,18s-6,10-12,16-25,15-25,15l-12.4,3" transform="translate(-23.02 -11.62)"/><line class="cls-10" x1="1781.99" y1="332.44" x2="1792.99" y2="345.43"/><line class="cls-10" x1="1781.99" y1="322.44" x2="1792.99" y2="335.43"/><line class="cls-10" x1="1781.99" y1="312.44" x2="1792.99" y2="325.43"/><circle cx="1727.99" cy="431.43" r="4"/><circle cx="1694.99" cy="431.43" r="4"/><circle cx="1657.99" cy="391.43" r="4"/><path d="M1742.5,413.05v-8h-15a5.49,5.49,0,0,0-4.89,8Z" transform="translate(-23.02 -11.62)"/><path d="M1739,394.05h15v-1h0c0-.17,0-.34,0-.5a7.5,7.5,0,0,0-15,0c0,.16,0,.33,0,.5h0Z" transform="translate(-23.02 -11.62)"/><path d="M1710,394.05h15v-1h0c0-.17,0-.34,0-.5a7.5,7.5,0,0,0-15,0c0,.16,0,.33,0,.5h0Z" transform="translate(-23.02 -11.62)"/><path d="M1760,399.05v15h1v0l.5,0a7.5,7.5,0,0,0,0-15l-.5,0v0Z" transform="translate(-23.02 -11.62)"/><polyline class="cls-7" points="1822.99 307.43 1823.2 357.93 1792.49 357.93 1781.99 344.26"/><polygon class="cls-3" points="1741.8 522.63 1738.71 525.68 1741.86 528.86 1741.86 528.86 1741.86 528.86 1745.08 525.68 1741.99 522.63 1741.9 522.53 1741.89 522.53 1741.89 522.53 1741.8 522.63"/><polygon class="cls-3" points="1712.8 522.63 1709.71 525.68 1712.86 528.86 1712.86 528.86 1712.86 528.86 1716.08 525.68 1712.99 522.63 1712.9 522.53 1712.89 522.53 1712.89 522.53 1712.8 522.63"/><polygon class="cls-3" points="1683.8 522.63 1680.71 525.68 1683.86 528.86 1683.86 528.86 1683.86 528.86 1687.08 525.68 1683.99 522.63 1683.9 522.53 1683.89 522.53 1683.89 522.53 1683.8 522.63"/><polygon class="cls-3" points="1654.8 522.63 1651.71 525.68 1654.86 528.86 1654.86 528.86 1654.86 528.86 1658.08 525.68 1654.99 522.63 1654.9 522.53 1654.89 522.53 1654.89 522.53 1654.8 522.63"/><polygon class="cls-3" points="1625.8 522.63 1622.71 525.68 1625.86 528.86 1625.86 528.86 1625.86 528.86 1629.08 525.68 1625.99 522.63 1625.9 522.53 1625.89 522.53 1625.89 522.53 1625.8 522.63"/><text class="cls-4" transform="translate(1879.3 575.93) rotate(180)">K</text><path class="cls-14" d="M1833.57,369.55h0Z" transform="translate(-23.02 -11.62)"/><path class="cls-14" d="M1819.25,319.71" transform="translate(-23.02 -11.62)"/></g><g id="Club"><path class="cls-16" d="M118.69,224.63c-.3-5.74-.39-11.48-.87-17.2a176.07,176.07,0,0,0-2.71-18.27c-1.46,3.4-1.42,7.19-1.3,10.81s.06,7.28-.13,10.94-.59,7.45-1,11.18c-.08.77-.07,4.44-1.6,3.26-1-.8-.87-3.84-.91-5-.12-3.36-.15-6.73-.24-10.1-.09-3.9-.23-7.81-.27-11.71,0-3.07.51-6.45-.67-9.38-1.38,3.29-1.19,7.11-1.25,10.57s0,6.8-.21,10.71c-.16,3.66-.46,7.33-.75,11-.1,1.26-.26,3.95-1.69,3.95s-1.64-3.06-1.72-4.33c-.22-3.7-.51-7.38-.76-11.07-.23-3.54-.06-6.88-.09-10.42,0-3.37,0-7.2-1.34-10.39h0c-1.27,3.17-.63,6.87-.69,10.18-.07,3.79-.17,7.57-.26,11.35-.08,3.27-.12,6.55-.23,9.82,0,1.13.15,4-.87,4.82-1.58,1.24-1.56-2.54-1.66-3.36-.46-3.83-.82-7.64-1-11.5-.19-3.66-.2-7.26-.09-10.91.1-3.5.09-7.13-1.31-10.4A230.91,230.91,0,0,0,91.29,229c-.08,5.22.39,10.49,3.38,14.94,1.52,2.26,3.91,3.75,5.37,6s1.36,4.85,1.34,7.35c0,4.45-.13,8.91-.26,13.36h8c0-1.31-.08-2.62-.11-3.93-.07-2.92-.22-5.85-.26-8.77,0-2.21-.18-4.6.64-6.7.93-2.38,3.24-3.77,4.83-5.67a20.11,20.11,0,0,0,3.69-6.32C119.5,234.62,119,229.48,118.69,224.63Z" transform="translate(-23.02 -11.62)"/><path class="cls-16" d="M96.31,327.72c-.06,4.9-.5,10.26,1.67,14.82,1.89,4,6.4,6.82,10.6,4.29,3.34-2,4.49-6.21,4.94-9.82a88.77,88.77,0,0,0,.07-17.25c0-.59-.11-1.17-.17-1.76H96.92C96.58,321.22,96.34,324.45,96.31,327.72Z" transform="translate(-23.02 -11.62)"/><text class="cls-13" transform="translate(393.24 576.56) rotate(180)">K</text><path d="M71.72,86.18a7.72,7.72,0,0,0-5.62-3.1c-1.81-.18-3.94,1.07-5.64,2.08a15.72,15.72,0,0,1-1.84,1,5.91,5.91,0,0,1,.2-.89,16.19,16.19,0,0,1,1.69-3.53c1.6-2.75,3.25-5.6.11-10.14C58.81,69,55.1,67.51,49.29,67.14l-.75,0h-.08l-.75,0c-5.81.37-9.52,1.83-11.33,4.45-3.14,4.54-1.49,7.39.11,10.14a16.66,16.66,0,0,1,1.69,3.53,5.71,5.71,0,0,1,.2.9,17.64,17.64,0,0,1-1.84-1c-1.71-1-3.82-2.26-5.64-2.08a7.72,7.72,0,0,0-5.62,3.1c-2.45,3.27-2.59,8.38-1.91,12.07,1,5.42,4.11,9.08,8.53,10a10.2,10.2,0,0,0,2.19.24c4,0,8-2.31,10.86-6.37a18.14,18.14,0,0,0,1.15-1.94c.16-.29.35-.64.51-.9a9,9,0,0,1,.44,1v4.45a19.25,19.25,0,0,1-5.76,9l-1.69,1.39H57.39L55.7,113.8a19.25,19.25,0,0,1-5.76-9v-4.46a8.63,8.63,0,0,1,.44-1c.16.26.35.61.51.9a18.14,18.14,0,0,0,1.15,1.94c2.81,4.06,6.83,6.37,10.86,6.37a10.2,10.2,0,0,0,2.19-.24c4.42-1,7.52-4.6,8.53-10C74.31,94.56,74.17,89.45,71.72,86.18Z" transform="translate(-23.02 -11.62)"/><text class="cls-13" transform="translate(10.73 39.55)">K</text><path d="M424.72,553.18a7.72,7.72,0,0,1-5.62,3.1c-1.81.18-3.94-1.07-5.64-2.08a17.38,17.38,0,0,0-1.84-1,5.91,5.91,0,0,0,.2.89,16.19,16.19,0,0,0,1.69,3.53c1.6,2.76,3.25,5.6.11,10.14-1.81,2.62-5.52,4.08-11.33,4.45l-.75,0h-.08l-.75,0c-5.81-.37-9.52-1.83-11.33-4.45-3.14-4.54-1.49-7.38.11-10.14a16.66,16.66,0,0,0,1.69-3.53,5.91,5.91,0,0,0,.2-.89,17.38,17.38,0,0,0-1.84,1c-1.71,1-3.82,2.26-5.64,2.08a7.72,7.72,0,0,1-5.62-3.1c-2.45-3.27-2.59-8.38-1.91-12.07,1-5.42,4.11-9.07,8.53-10a10.2,10.2,0,0,1,2.19-.24c4,0,8.05,2.31,10.86,6.37a18.14,18.14,0,0,1,1.15,1.94c.16.29.35.64.51.9a8.27,8.27,0,0,0,.44-1v-4.45a19.25,19.25,0,0,0-5.76-9l-1.69-1.39h17.78l-1.69,1.39a19.25,19.25,0,0,0-5.76,9V539a8.63,8.63,0,0,0,.44,1c.16-.26.35-.61.51-.9a18.14,18.14,0,0,1,1.15-1.94c2.81-4.06,6.83-6.37,10.86-6.37a10.2,10.2,0,0,1,2.19.24c4.42.95,7.52,4.6,8.53,10C427.31,544.8,427.17,549.91,424.72,553.18Z" transform="translate(-23.02 -11.62)"/><polyline class="cls-5" points="64.77 556 64.77 60.48 340.03 60 340.03 556 63.89 555.88"/><polyline class="cls-6" points="278.98 236.06 321.88 268.14 337.48 279.56 337.17 308.39 66.8 308.39"/><use width="65.47" height="61.8" transform="translate(69.34 86.67)" xlink:href="#club-2"/><path class="cls-7" d="M171,109.68a29,29,0,1,0,58,1v-1a29,29,0,1,0,58,1v64H171Z" transform="translate(-23.02 -11.62)"/><path class="cls-7" d="M214.48,135.69a29.43,29.43,0,0,1-14.48-26v1a29.41,29.41,0,0,1-14.52,25" transform="translate(-23.02 -11.62)"/><path class="cls-7" d="M258,110.68a29.4,29.4,0,0,1-14.51,25" transform="translate(-23.02 -11.62)"/><path class="cls-7" d="M272.5,135.7a29.43,29.43,0,0,1-14.5-26" transform="translate(-23.02 -11.62)"/><line class="cls-7" x1="141.98" y1="152.06" x2="269.98" y2="152.06"/><polyline class="cls-7" points="151.51 163.06 151.62 173.82 151.98 208.06"/><polyline class="cls-7" points="150.98 180.06 174.98 174.06 169.98 203.06 176.98 203.06"/><line class="cls-7" x1="185.98" y1="174.06" x2="204.98" y2="181.06"/><path class="cls-7" d="M239.82,174.68l.18,54s0,11,2,13c4.53,4.53,7,6,12,6s11-3,11-10-3-12-8-12" transform="translate(-23.02 -11.62)"/><path class="cls-7" d="M259.06,246.65a13.25,13.25,0,0,0,5.62,1c5,0,11-3,11-10s-3-12-8-12" transform="translate(-23.02 -11.62)"/><path class="cls-7" d="M270.06,246.65a13.25,13.25,0,0,0,5.62,1c5,0,11-3,11-10s-3-12-8-12" transform="translate(-23.02 -11.62)"/><path class="cls-7" d="M281.06,246.65a13.25,13.25,0,0,0,5.62,1c5,0,11-3,11-10s-3-12-8-12" transform="translate(-23.02 -11.62)"/><path class="cls-7" d="M292.06,246.65a13.25,13.25,0,0,0,5.62,1c5,0,11-3,11-10s-3-12-8-12H253.5" transform="translate(-23.02 -11.62)"/><line class="cls-7" x1="228" y1="163.06" x2="228" y2="204.56"/><line class="cls-7" x1="239" y1="163.06" x2="239" y2="204.56"/><line class="cls-7" x1="250" y1="163.06" x2="250" y2="204.56"/><line class="cls-7" x1="260.97" y1="163.06" x2="260.97" y2="211.06"/><path class="cls-8" d="M243,242.65l-9.49,4.53c.16,1.53-.3,2.67-1.5,5.5a15.25,15.25,0,0,1-14,9c-6.08-.07-14-3.88-14-10v-6h0a17.34,17.34,0,0,1-1,7c-2.25,5.31-6.94,9.07-13,9a16.35,16.35,0,0,1-16-16c-5.67,1.57-13.71-3.63-14-12-.24-7.12,5.33-11.49,6-12a15.5,15.5,0,0,1,8-3" transform="translate(-23.02 -11.62)"/><line class="cls-7" x1="208.98" y1="225.06" x2="216.98" y2="217.06"/><path d="M181.13,213.41a3.32,3.32,0,0,0-2.76,1.58,3.38,3.38,0,0,0-.18,3.12,3.56,3.56,0,0,0,2.32,2,3.85,3.85,0,0,0,4.73-3,4.23,4.23,0,0,0-3-4.78,4.62,4.62,0,0,0-5.76,5.08,5.1,5.1,0,0,0,3.71,4.28,5.57,5.57,0,0,0,5.46-1.64,5.7,5.7,0,0,0,1.23-5.55,6.2,6.2,0,0,0-4-4.12,6.72,6.72,0,0,0-5.7.71,6.87,6.87,0,0,0-3.17,4.82,7.66,7.66,0,0,0,1.45,5.66,7.74,7.74,0,0,0,5,3,20.88,20.88,0,0,0,3.22.11h3.35l13.4,0,13.4,0,3.35,0a23.74,23.74,0,0,0,3.22-.11,7.73,7.73,0,0,0,6.44-8.69,6.87,6.87,0,0,0-3.17-4.82,6.68,6.68,0,0,0-5.7-.71,6.19,6.19,0,0,0-3.95,4.12,5.68,5.68,0,0,0,1.23,5.55,5.56,5.56,0,0,0,5.45,1.63,5.09,5.09,0,0,0,3.71-4.27,4.62,4.62,0,0,0-5.76-5.08,4.3,4.3,0,0,0-2.38,1.81,4.25,4.25,0,0,0-.58,3,3.88,3.88,0,0,0,4.73,3,3.58,3.58,0,0,0,2.32-2,3.38,3.38,0,0,0-.18-3.12,3.32,3.32,0,0,0-2.76-1.58,3.4,3.4,0,0,1,2.89,1.5,3.6,3.6,0,0,1,.33,3.31,3.92,3.92,0,0,1-2.48,2.32,4.32,4.32,0,0,1-3.42-.44,4.44,4.44,0,0,1-2.06-2.83,4.9,4.9,0,0,1,.57-3.49,5,5,0,0,1,2.77-2.25,5.49,5.49,0,0,1,3.6.14,5.67,5.67,0,0,1,3.53,5.9,6.32,6.32,0,0,1-4.48,5.36,7,7,0,0,1-8.59-5.13,7.51,7.51,0,0,1,.07-3.68,7.83,7.83,0,0,1,4.88-5.29,8.35,8.35,0,0,1,7.17.82,8.63,8.63,0,0,1,4,6,9.46,9.46,0,0,1-1.73,7,9.58,9.58,0,0,1-6.16,3.79,12.72,12.72,0,0,1-1.8.15h-1.68l-3.36,0-13.43,0-13.43,0-3.36,0H182a12.72,12.72,0,0,1-1.8-.15,9.54,9.54,0,0,1-7.89-10.8,8.59,8.59,0,0,1,4-6,8.32,8.32,0,0,1,7.17-.83,7.79,7.79,0,0,1,4.87,5.29,7.55,7.55,0,0,1,.08,3.69,7,7,0,0,1-8.58,5.12,6.29,6.29,0,0,1-4.48-5.36,5.67,5.67,0,0,1,3.52-5.9,5.43,5.43,0,0,1,3.6-.13,5,5,0,0,1,2.77,2.25,4.87,4.87,0,0,1,.57,3.48,4.48,4.48,0,0,1-2.06,2.83,4.28,4.28,0,0,1-3.42.44,3.92,3.92,0,0,1-2.48-2.32,3.6,3.6,0,0,1,.33-3.31A3.42,3.42,0,0,1,181.13,213.41Z" transform="translate(-23.02 -11.62)"/><polyline class="cls-9" points="150.98 235.06 107.98 258.06 107.98 264.95 107.98 308.06"/><line class="cls-7" x1="108.48" y1="264.56" x2="153.98" y2="264.56"/><line class="cls-7" x1="107.98" y1="279.28" x2="157.48" y2="279.28"/><line class="cls-7" x1="107.98" y1="294.06" x2="162.48" y2="294.06"/><line class="cls-7" x1="143.98" y1="250.06" x2="123.28" y2="250.06"/><path class="cls-7" d="M160,254.52a59.5,59.5,0,0,1,19.51,28.66c3,10,6,22,6,36" transform="translate(-23.02 -11.62)"/><path class="cls-9" d="M345,279.68s-12,8-15,13c-1.86,3.09-4.86,6.95-7.12,13a48.84,48.84,0,0,0-2.88,14" transform="translate(-23.02 -11.62)"/><line class="cls-7" x1="202.98" y1="294.06" x2="299.98" y2="294.06"/><line class="cls-7" x1="208.98" y1="279.06" x2="308.49" y2="279.06"/><line class="cls-7" x1="216.98" y1="265.06" x2="316.99" y2="265.06"/><line class="cls-6" x1="231.98" y1="250.06" x2="296.14" y2="250.06"/><path class="cls-7" d="M226,318.68a108.86,108.86,0,0,1,2-19,50.15,50.15,0,0,1,8-18s6-10,12-16,25-15,25-15l12.4-3" transform="translate(-23.02 -11.62)"/><line class="cls-10" x1="107.98" y1="284.05" x2="96.98" y2="271.06"/><line class="cls-10" x1="107.98" y1="294.05" x2="96.98" y2="281.06"/><line class="cls-10" x1="107.98" y1="304.05" x2="96.98" y2="291.06"/><circle cx="161.98" cy="185.06" r="4"/><circle cx="194.98" cy="185.06" r="4"/><circle cx="231.98" cy="225.06" r="4"/><path d="M193.5,226.68v8h15a5.5,5.5,0,0,0,5.5-5.5,5.4,5.4,0,0,0-.61-2.5Z" transform="translate(-23.02 -11.62)"/><path d="M197,245.68H182v1h0a4.19,4.19,0,0,0,0,.5,7.5,7.5,0,0,0,15,0,4.19,4.19,0,0,0,0-.5h0Z" transform="translate(-23.02 -11.62)"/><path d="M226,245.68H211v1h0a4.19,4.19,0,0,0,0,.5,7.5,7.5,0,0,0,15,0,4.19,4.19,0,0,0,0-.5h0Z" transform="translate(-23.02 -11.62)"/><path d="M176,240.68v-15h-1v0a4.19,4.19,0,0,0-.5,0,7.5,7.5,0,0,0,0,15,4.19,4.19,0,0,0,.5,0v0Z" transform="translate(-23.02 -11.62)"/><path d="M173.78,101.84a.85.85,0,0,0-.65-.36,1.11,1.11,0,0,0-.65.24,1.5,1.5,0,0,1-.22.11.33.33,0,0,1,0-.1,1.92,1.92,0,0,1,.19-.41.91.91,0,0,0,0-1.17,1.61,1.61,0,0,0-1.31-.52H171a1.61,1.61,0,0,0-1.31.52.91.91,0,0,0,0,1.17,2.6,2.6,0,0,1,.2.41.84.84,0,0,1,0,.1l-.21-.11a1.16,1.16,0,0,0-.66-.24.85.85,0,0,0-.65.36,1.88,1.88,0,0,0-.22,1.39,1.34,1.34,0,0,0,1,1.16,1.07,1.07,0,0,0,.25,0,1.58,1.58,0,0,0,1.26-.74,1.27,1.27,0,0,0,.13-.22l.06-.11,0,.13V104a2.15,2.15,0,0,1-.66,1l-.2.16h2.06l-.2-.16a2.15,2.15,0,0,1-.66-1v-.52l.05-.12.06.11.13.22a1.58,1.58,0,0,0,1.26.74,1.07,1.07,0,0,0,.25,0,1.34,1.34,0,0,0,1-1.16A1.88,1.88,0,0,0,173.78,101.84Z" transform="translate(-23.02 -11.62)"/><path d="M202.78,101.84a.85.85,0,0,0-.65-.36,1.11,1.11,0,0,0-.65.24,1.5,1.5,0,0,1-.22.11.33.33,0,0,1,0-.1,1.92,1.92,0,0,1,.19-.41.91.91,0,0,0,0-1.17,1.61,1.61,0,0,0-1.31-.52H200a1.61,1.61,0,0,0-1.31.52.91.91,0,0,0,0,1.17,2.6,2.6,0,0,1,.2.41.84.84,0,0,1,0,.1l-.21-.11a1.16,1.16,0,0,0-.66-.24.85.85,0,0,0-.65.36,1.88,1.88,0,0,0-.22,1.39,1.34,1.34,0,0,0,1,1.16,1.07,1.07,0,0,0,.25,0,1.58,1.58,0,0,0,1.26-.74,1.27,1.27,0,0,0,.13-.22l.06-.11,0,.13V104a2.15,2.15,0,0,1-.66,1l-.2.16h2.06l-.2-.16a2.15,2.15,0,0,1-.66-1v-.52l.05-.12.06.11.13.22a1.58,1.58,0,0,0,1.26.74,1.07,1.07,0,0,0,.25,0,1.34,1.34,0,0,0,1-1.16A1.88,1.88,0,0,0,202.78,101.84Z" transform="translate(-23.02 -11.62)"/><path d="M231.78,101.84a.85.85,0,0,0-.65-.36,1.11,1.11,0,0,0-.65.24,1.5,1.5,0,0,1-.22.11.33.33,0,0,1,0-.1,1.92,1.92,0,0,1,.19-.41.91.91,0,0,0,0-1.17,1.61,1.61,0,0,0-1.31-.52H229a1.61,1.61,0,0,0-1.31.52.91.91,0,0,0,0,1.17,2.6,2.6,0,0,1,.2.41.84.84,0,0,1,0,.1l-.21-.11a1.16,1.16,0,0,0-.66-.24.85.85,0,0,0-.65.36,1.88,1.88,0,0,0-.22,1.39,1.34,1.34,0,0,0,1,1.16,1.07,1.07,0,0,0,.25,0,1.58,1.58,0,0,0,1.26-.74,1.27,1.27,0,0,0,.13-.22l.06-.11,0,.13V104a2.15,2.15,0,0,1-.66,1l-.2.16h2.06l-.2-.16a2.15,2.15,0,0,1-.66-1v-.52l.05-.12.06.11.13.22a1.58,1.58,0,0,0,1.26.74,1.07,1.07,0,0,0,.25,0,1.34,1.34,0,0,0,1-1.16A1.88,1.88,0,0,0,231.78,101.84Z" transform="translate(-23.02 -11.62)"/><path d="M260.78,101.84a.85.85,0,0,0-.65-.36,1.11,1.11,0,0,0-.65.24,1.5,1.5,0,0,1-.22.11.33.33,0,0,1,0-.1,1.92,1.92,0,0,1,.19-.41.91.91,0,0,0,0-1.17,1.61,1.61,0,0,0-1.31-.52H258a1.61,1.61,0,0,0-1.31.52.91.91,0,0,0,0,1.17,2.6,2.6,0,0,1,.2.41.84.84,0,0,1,0,.1l-.21-.11a1.16,1.16,0,0,0-.66-.24.85.85,0,0,0-.65.36,1.88,1.88,0,0,0-.22,1.39,1.34,1.34,0,0,0,1,1.16,1.07,1.07,0,0,0,.25,0,1.58,1.58,0,0,0,1.26-.74,1.27,1.27,0,0,0,.13-.22l.06-.11.05.13V104a2.15,2.15,0,0,1-.66,1l-.2.16h2.06l-.2-.16a2.15,2.15,0,0,1-.66-1v-.52l.05-.12.06.11.13.22a1.58,1.58,0,0,0,1.26.74,1.07,1.07,0,0,0,.25,0,1.34,1.34,0,0,0,1-1.16A1.88,1.88,0,0,0,260.78,101.84Z" transform="translate(-23.02 -11.62)"/><path d="M289.78,101.84a.85.85,0,0,0-.65-.36,1.11,1.11,0,0,0-.65.24,1.5,1.5,0,0,1-.22.11.33.33,0,0,1,0-.1,1.92,1.92,0,0,1,.19-.41.91.91,0,0,0,0-1.17,1.61,1.61,0,0,0-1.31-.52H287a1.61,1.61,0,0,0-1.31.52.91.91,0,0,0,0,1.17,2.6,2.6,0,0,1,.2.41.84.84,0,0,1,0,.1l-.21-.11a1.16,1.16,0,0,0-.66-.24.85.85,0,0,0-.65.36,1.88,1.88,0,0,0-.22,1.39,1.34,1.34,0,0,0,1,1.16,1.07,1.07,0,0,0,.25,0,1.58,1.58,0,0,0,1.26-.74,1.27,1.27,0,0,0,.13-.22l.06-.11.05.13V104a2.15,2.15,0,0,1-.66,1l-.2.16h2.06l-.2-.16a2.15,2.15,0,0,1-.66-1v-.52l.05-.12.06.11.13.22a1.58,1.58,0,0,0,1.26.74,1.07,1.07,0,0,0,.25,0,1.34,1.34,0,0,0,1-1.16A1.88,1.88,0,0,0,289.78,101.84Z" transform="translate(-23.02 -11.62)"/><polyline class="cls-6" points="125 381 82.11 348.92 66.5 337.5 66.81 308.67 337.19 308.67 337.19 358.5"/><use width="65.47" height="61.8" transform="translate(334.65 530.39) rotate(180)" xlink:href="#club-2"/><path class="cls-7" d="M279,530.62a29,29,0,1,0-58-1v1a29,29,0,1,0-58-1v-64H279Z" transform="translate(-23.02 -11.62)"/><path class="cls-7" d="M235.54,504.61a29.42,29.42,0,0,1,14.48,26v-1a29.43,29.43,0,0,1,14.52-25" transform="translate(-23.02 -11.62)"/><path class="cls-7" d="M192,529.62a29.4,29.4,0,0,1,14.51-25" transform="translate(-23.02 -11.62)"/><path class="cls-7" d="M177.53,504.61a29.4,29.4,0,0,1,14.49,26" transform="translate(-23.02 -11.62)"/><line class="cls-7" x1="262" y1="465" x2="134" y2="465"/><polyline class="cls-7" points="252.47 454 252.36 443.25 252 409"/><polyline class="cls-7" points="253 437 229 443 234 414 227 414"/><line class="cls-7" x1="218" y1="443" x2="199" y2="436"/><path class="cls-7" d="M210.2,465.62l-.18-54s0-11-2-13c-4.53-4.52-7-6-12-6s-11,3-11,10,3,12,8,12" transform="translate(-23.02 -11.62)"/><path class="cls-7" d="M191,393.66a13.09,13.09,0,0,0-5.62-1c-5,0-11,3-11,10s3,12,8,12" transform="translate(-23.02 -11.62)"/><path class="cls-7" d="M180,393.66a13.09,13.09,0,0,0-5.62-1c-5,0-11,3-11,10s3,12,8,12" transform="translate(-23.02 -11.62)"/><path class="cls-7" d="M169,393.66a13.09,13.09,0,0,0-5.62-1c-5,0-11,3-11,10s3,12,8,12" transform="translate(-23.02 -11.62)"/><path class="cls-7" d="M158,393.66a13.09,13.09,0,0,0-5.62-1c-5,0-11,3-11,10s3,12,8,12h47.18" transform="translate(-23.02 -11.62)"/><line class="cls-7" x1="175.98" y1="454" x2="175.98" y2="412.5"/><line class="cls-7" x1="164.98" y1="454" x2="164.98" y2="412.5"/><line class="cls-7" x1="153.98" y1="454" x2="153.98" y2="412.5"/><line class="cls-7" x1="143.02" y1="454" x2="143.02" y2="406"/><path class="cls-8" d="M207,397.66l9.48-4.54c-.15-1.53.3-2.67,1.5-5.5a15.25,15.25,0,0,1,14-9c6.08.07,14,3.88,14,10v6h0a17.34,17.34,0,0,1,1-7c2.25-5.31,6.94-9.07,13-9a16.35,16.35,0,0,1,16,16c5.67-1.57,13.72,3.64,14,12,.25,7.13-5.33,11.5-6,12a15.38,15.38,0,0,1-8,3" transform="translate(-23.02 -11.62)"/><line class="cls-7" x1="195" y1="392" x2="187" y2="400"/><path d="M268.9,426.9a3.33,3.33,0,0,0,2.75-1.59,3.41,3.41,0,0,0,.19-3.12,3.63,3.63,0,0,0-2.33-2,3.88,3.88,0,0,0-4.73,3,4.22,4.22,0,0,0,3,4.78,4.53,4.53,0,0,0,3-.21,4.63,4.63,0,0,0,2.78-4.87,5.09,5.09,0,0,0-3.71-4.28,5.57,5.57,0,0,0-5.45,1.64,5.71,5.71,0,0,0-1.24,5.55,6.24,6.24,0,0,0,4,4.13,6.72,6.72,0,0,0,5.7-.72,6.87,6.87,0,0,0,3.17-4.82,7.71,7.71,0,0,0-6.44-8.69,22.22,22.22,0,0,0-3.22-.11h-3.35l-13.4.05-13.4,0h-3.35a20.93,20.93,0,0,0-3.22.11,7.72,7.72,0,0,0-6.44,8.68,6.85,6.85,0,0,0,3.17,4.82,6.74,6.74,0,0,0,5.71.72,6.22,6.22,0,0,0,3.95-4.13,5.73,5.73,0,0,0-1.23-5.55,5.58,5.58,0,0,0-5.46-1.63,5.09,5.09,0,0,0-3.7,4.27,4.62,4.62,0,0,0,2.77,4.87,4.56,4.56,0,0,0,3,.21,4.22,4.22,0,0,0,3-4.77,3.85,3.85,0,0,0-1.7-2.51,3.81,3.81,0,0,0-3-.49,3.56,3.56,0,0,0-2.32,2,3.31,3.31,0,0,0,2.94,4.7,3.44,3.44,0,0,1-2.89-1.5,3.64,3.64,0,0,1-.33-3.32,3.92,3.92,0,0,1,2.48-2.32,4.35,4.35,0,0,1,3.43.45,4.42,4.42,0,0,1,2,2.82,4.89,4.89,0,0,1-.56,3.49,5,5,0,0,1-2.78,2.25,5.46,5.46,0,0,1-3.59-.13,5.67,5.67,0,0,1-3.53-5.9,6.29,6.29,0,0,1,4.48-5.37,7,7,0,0,1,8.59,5.13,7.55,7.55,0,0,1-.08,3.69,7.85,7.85,0,0,1-4.88,5.29,8.39,8.39,0,0,1-7.17-.83,8.61,8.61,0,0,1-4-6,9.5,9.5,0,0,1,1.74-7,9.64,9.64,0,0,1,6.16-3.79,12.42,12.42,0,0,1,1.79-.14h5l13.43-.05,13.43.05h5a12.66,12.66,0,0,1,1.8.14,9.64,9.64,0,0,1,6.16,3.79,9.52,9.52,0,0,1,1.74,7,8.67,8.67,0,0,1-4,6,8.35,8.35,0,0,1-7.17.82,7.84,7.84,0,0,1-4.87-5.29,7.51,7.51,0,0,1-.08-3.68,7,7,0,0,1,1.77-3.24,6.92,6.92,0,0,1,6.82-1.89,6.32,6.32,0,0,1,4.48,5.37,5.66,5.66,0,0,1-3.53,5.89,5.43,5.43,0,0,1-3.6.13,5,5,0,0,1-2.77-2.24,4.85,4.85,0,0,1-.56-3.49,4.42,4.42,0,0,1,2-2.82,4.33,4.33,0,0,1,3.42-.45,4,4,0,0,1,2.49,2.32,3.63,3.63,0,0,1-.34,3.31A3.4,3.4,0,0,1,268.9,426.9Z" transform="translate(-23.02 -11.62)"/><polyline class="cls-9" points="253 382 296 359 296 352.11 296 309"/><line class="cls-7" x1="295.5" y1="352.5" x2="250" y2="352.5"/><line class="cls-7" x1="296" y1="337.78" x2="246.5" y2="337.78"/><line class="cls-7" x1="296" y1="323" x2="241.5" y2="323"/><line class="cls-7" x1="260" y1="367" x2="280.71" y2="367"/><path class="cls-7" d="M290,385.79a59.59,59.59,0,0,1-19.51-28.67c-3-10-6-22-6-36" transform="translate(-23.02 -11.62)"/><path class="cls-9" d="M105,360.62s12-8,15-13c1.86-3.09,4.86-6.95,7.12-13a48.76,48.76,0,0,0,2.88-14" transform="translate(-23.02 -11.62)"/><line class="cls-7" x1="201" y1="323" x2="104" y2="323"/><line class="cls-7" x1="195" y1="338" x2="95.49" y2="338"/><line class="cls-7" x1="187" y1="352" x2="87" y2="352"/><line class="cls-6" x1="172" y1="367" x2="107.84" y2="367"/><path class="cls-7" d="M224,321.62a108.86,108.86,0,0,1-2,19,50.15,50.15,0,0,1-8,18s-6,10-12,16-25,15-25,15l-12.4,3" transform="translate(-23.02 -11.62)"/><polyline class="cls-7" points="295 344.84 305.5 358.5 337.98 358.5"/><line class="cls-10" x1="296" y1="333.02" x2="307" y2="346"/><line class="cls-10" x1="296" y1="323.02" x2="307" y2="336"/><line class="cls-10" x1="296" y1="313.02" x2="307" y2="326"/><circle cx="242" cy="432" r="4"/><circle cx="209" cy="432" r="4"/><circle cx="172" cy="392" r="4"/><path d="M256.52,413.62v-8h-15a5.5,5.5,0,0,0-5.5,5.5,5.4,5.4,0,0,0,.61,2.5Z" transform="translate(-23.02 -11.62)"/><path d="M253,394.62h15v-1h0c0-.16,0-.33,0-.5a7.5,7.5,0,0,0-15,0c0,.17,0,.34,0,.5h0Z" transform="translate(-23.02 -11.62)"/><path d="M224,394.62h15v-1h0c0-.16,0-.33,0-.5a7.5,7.5,0,0,0-15,0c0,.17,0,.34,0,.5h0Z" transform="translate(-23.02 -11.62)"/><path d="M274,399.62v15h1v0l.5,0a7.5,7.5,0,0,0,0-15c-.17,0-.33,0-.5,0v0Z" transform="translate(-23.02 -11.62)"/><path d="M276.24,538.47a.91.91,0,0,0,.65.36,1.33,1.33,0,0,0,.66-.24l.21-.12a.89.89,0,0,1,0,.11,1.87,1.87,0,0,1-.2.4.93.93,0,0,0,0,1.18,1.64,1.64,0,0,0,1.31.51H279a1.65,1.65,0,0,0,1.32-.51.93.93,0,0,0,0-1.18,1.84,1.84,0,0,1-.19-.4c0-.05,0-.09,0-.11a1.64,1.64,0,0,1,.22.12,1.26,1.26,0,0,0,.65.24.91.91,0,0,0,.65-.36,1.91,1.91,0,0,0,.22-1.4,1.31,1.31,0,0,0-1-1.16,1.07,1.07,0,0,0-.25,0,1.58,1.58,0,0,0-1.26.74l-.13.22-.06.11a.87.87,0,0,1,0-.12v-.52a2.14,2.14,0,0,1,.67-1l.19-.16H277.9l.2.16a2.2,2.2,0,0,1,.66,1v.52a.35.35,0,0,1-.05.12l-.06-.11-.13-.22a1.58,1.58,0,0,0-1.26-.74,1.07,1.07,0,0,0-.25,0,1.34,1.34,0,0,0-1,1.16A1.91,1.91,0,0,0,276.24,538.47Z" transform="translate(-23.02 -11.62)"/><path d="M247.24,538.47a.91.91,0,0,0,.65.36,1.33,1.33,0,0,0,.66-.24l.21-.12a.89.89,0,0,1,0,.11,1.87,1.87,0,0,1-.2.4.93.93,0,0,0,0,1.18,1.64,1.64,0,0,0,1.31.51H250a1.65,1.65,0,0,0,1.32-.51.93.93,0,0,0,0-1.18,1.84,1.84,0,0,1-.19-.4c0-.05,0-.09,0-.11a1.64,1.64,0,0,1,.22.12,1.26,1.26,0,0,0,.65.24.91.91,0,0,0,.65-.36,1.91,1.91,0,0,0,.22-1.4,1.31,1.31,0,0,0-1-1.16,1.07,1.07,0,0,0-.25,0,1.58,1.58,0,0,0-1.26.74l-.13.22-.06.11a.87.87,0,0,1-.05-.12v-.52a2.14,2.14,0,0,1,.67-1l.19-.16H248.9l.2.16a2.2,2.2,0,0,1,.66,1v.52a.35.35,0,0,1,0,.12l-.06-.11-.13-.22a1.58,1.58,0,0,0-1.26-.74,1.07,1.07,0,0,0-.25,0,1.34,1.34,0,0,0-1,1.16A1.91,1.91,0,0,0,247.24,538.47Z" transform="translate(-23.02 -11.62)"/><path d="M218.24,538.47a.91.91,0,0,0,.65.36,1.33,1.33,0,0,0,.66-.24l.21-.12a.89.89,0,0,1,0,.11,1.87,1.87,0,0,1-.2.4.93.93,0,0,0,0,1.18,1.64,1.64,0,0,0,1.31.51H221a1.65,1.65,0,0,0,1.32-.51.93.93,0,0,0,0-1.18,1.84,1.84,0,0,1-.19-.4c0-.05,0-.09,0-.11a1.64,1.64,0,0,1,.22.12,1.26,1.26,0,0,0,.65.24.91.91,0,0,0,.65-.36,1.91,1.91,0,0,0,.22-1.4,1.31,1.31,0,0,0-1-1.16,1.07,1.07,0,0,0-.25,0,1.58,1.58,0,0,0-1.26.74l-.13.22-.06.11a.87.87,0,0,1-.05-.12v-.52a2.14,2.14,0,0,1,.67-1l.19-.16H219.9l.2.16a2.2,2.2,0,0,1,.66,1v.52a.35.35,0,0,1,0,.12l-.06-.11-.13-.22a1.58,1.58,0,0,0-1.26-.74,1.07,1.07,0,0,0-.25,0,1.34,1.34,0,0,0-1,1.16A1.91,1.91,0,0,0,218.24,538.47Z" transform="translate(-23.02 -11.62)"/><path d="M189.24,538.47a.91.91,0,0,0,.65.36,1.33,1.33,0,0,0,.66-.24l.21-.12a.89.89,0,0,1,0,.11,1.87,1.87,0,0,1-.2.4.93.93,0,0,0,0,1.18,1.64,1.64,0,0,0,1.31.51H192a1.65,1.65,0,0,0,1.32-.51.93.93,0,0,0,0-1.18,1.84,1.84,0,0,1-.19-.4c0-.05,0-.09,0-.11a1.64,1.64,0,0,1,.22.12,1.26,1.26,0,0,0,.65.24.91.91,0,0,0,.65-.36,1.91,1.91,0,0,0,.22-1.4,1.31,1.31,0,0,0-1-1.16,1.07,1.07,0,0,0-.25,0,1.58,1.58,0,0,0-1.26.74l-.13.22-.06.11a.87.87,0,0,1-.05-.12v-.52a2.14,2.14,0,0,1,.67-1l.19-.16H190.9l.2.16a2.2,2.2,0,0,1,.66,1v.52a.35.35,0,0,1,0,.12l-.06-.11-.13-.22a1.58,1.58,0,0,0-1.26-.74,1.07,1.07,0,0,0-.25,0,1.34,1.34,0,0,0-1,1.16A1.91,1.91,0,0,0,189.24,538.47Z" transform="translate(-23.02 -11.62)"/><path d="M160.24,538.47a.91.91,0,0,0,.65.36,1.33,1.33,0,0,0,.66-.24l.21-.12a.89.89,0,0,1,0,.11,1.87,1.87,0,0,1-.2.4.93.93,0,0,0,0,1.18,1.64,1.64,0,0,0,1.31.51H163a1.65,1.65,0,0,0,1.32-.51.93.93,0,0,0,0-1.18,1.84,1.84,0,0,1-.19-.4c0-.05,0-.09,0-.11a1.64,1.64,0,0,1,.22.12,1.26,1.26,0,0,0,.65.24.91.91,0,0,0,.65-.36,1.91,1.91,0,0,0,.22-1.4,1.31,1.31,0,0,0-1-1.16,1.07,1.07,0,0,0-.25,0,1.58,1.58,0,0,0-1.26.74l-.13.22-.06.11a.87.87,0,0,1-.05-.12v-.52a2.14,2.14,0,0,1,.67-1l.19-.16H161.9l.2.16a2.2,2.2,0,0,1,.66,1v.52a.35.35,0,0,1,0,.12l-.06-.11-.13-.22a1.58,1.58,0,0,0-1.26-.74,1.07,1.07,0,0,0-.25,0,1.34,1.34,0,0,0-1,1.16A1.91,1.91,0,0,0,160.24,538.47Z" transform="translate(-23.02 -11.62)"/><polyline class="cls-7" points="66.98 309.06 66.77 258.56 97.48 258.56 107.98 272.23"/><path class="cls-17" d="M96.32,227.83s.58,1.85,1.68,1.85,1.67-2,1.67-2" transform="translate(-23.02 -11.62)"/><path class="cls-17" d="M103.35,227.83s.58,1.85,1.68,1.85,1.67-2,1.67-2" transform="translate(-23.02 -11.62)"/><path class="cls-17" d="M110.38,227.83s.58,1.85,1.68,1.85,1.67-2,1.67-2" transform="translate(-23.02 -11.62)"/><path class="cls-18" d="M96,318h.92c.1-.94.21-1.88.32-2.82h15.83c.14.94.25,1.88.35,2.82H116V307H96Z" transform="translate(-23.02 -11.62)"/><path class="cls-18" d="M97.24,315.18c-.11.94-.22,1.88-.32,2.82h16.5c-.1-.94-.21-1.88-.35-2.82Z" transform="translate(-23.02 -11.62)"/><path class="cls-16" d="M331.59,414.94c.3,5.73.39,11.47.87,17.2a175.88,175.88,0,0,0,2.71,18.26c1.46-3.39,1.42-7.18,1.3-10.8s-.06-7.29.13-11,.59-7.45,1-11.17c.08-.77.08-4.45,1.6-3.26,1,.8.87,3.83.91,5,.12,3.36.16,6.73.24,10.09.09,3.91.23,7.81.27,11.72,0,3.07-.51,6.45.67,9.37,1.38-3.28,1.19-7.1,1.25-10.57s.05-6.79.21-10.7c.16-3.67.46-7.34.75-11,.1-1.26.26-3.95,1.69-3.95s1.64,3.07,1.72,4.34c.22,3.69.51,7.38.76,11.07.23,3.53.06,6.87.09,10.42,0,3.36,0,7.2,1.34,10.38h0c1.27-3.16.63-6.86.69-10.18.07-3.78.17-7.56.26-11.35.08-3.27.12-6.54.23-9.81,0-1.13-.15-4,.87-4.82,1.59-1.25,1.56,2.54,1.66,3.36.46,3.83.82,7.64,1,11.49.19,3.66.2,7.26.09,10.92-.1,3.49-.09,7.12,1.32,10.39A231.68,231.68,0,0,0,359,410.53c.08-5.23-.39-10.49-3.38-14.95-1.52-2.25-3.91-3.75-5.37-6s-1.36-4.86-1.34-7.35c0-4.46.13-8.91.26-13.37h-8c0,1.31.08,2.62.11,3.93.07,2.93.22,5.85.26,8.78,0,2.2.18,4.6-.64,6.69-.93,2.39-3.24,3.77-4.83,5.68a20,20,0,0,0-3.69,6.32C330.78,405,331.33,410.08,331.59,414.94Z" transform="translate(-23.02 -11.62)"/><path class="cls-16" d="M354,311.84c.06-4.9.5-10.26-1.66-14.82-1.9-4-6.41-6.81-10.61-4.29-3.33,2-4.49,6.22-4.94,9.83a88.67,88.67,0,0,0-.07,17.24c.05.59.11,1.18.17,1.76h16.5C353.7,318.35,353.94,315.11,354,311.84Z" transform="translate(-23.02 -11.62)"/><path class="cls-17" d="M353.73,412.53s-.58-1.85-1.67-1.85-1.68,2-1.68,2" transform="translate(-23.02 -11.62)"/><path class="cls-17" d="M346.7,412.53s-.58-1.85-1.67-1.85-1.68,2-1.68,2" transform="translate(-23.02 -11.62)"/><path class="cls-17" d="M339.67,412.53s-.58-1.85-1.67-1.85-1.68,2-1.68,2" transform="translate(-23.02 -11.62)"/></g></svg>