<?xml version="1.0" encoding="utf-8"?>
<!-- Generator: Adobe Illustrator 23.0.1, SVG Export Plug-In . SVG Version: 6.00 Build 0)  -->
<svg version="1.1" xmlns="http://www.w3.org/2000/svg" xmlns:xlink="http://www.w3.org/1999/xlink" x="0px" y="0px"
	 viewBox="0 0 449.975 639.231" enable-background="new 0 0 449.975 639.231" xml:space="preserve">
<g id="Beer">
	<g>
		<path fill="#3B2814" d="M99.521,281.048c1.105-4.367,2.201-9.618,1.604-11.348c-1.083-3.14-6.668-18.136-5.758-21.931h23.032
			c0,0-2.097,16.278-5.312,21.931c-1.193,2.097-1.092,5.1-0.494,8.048"/>
		<g>
			<polygon opacity="0.8" fill="#F9DFC7" points="96.974,247.489 116.284,247.489 116.538,242.111 97.228,242.111 			"/>
			<polygon opacity="0.8012" fill="#F8DEC6" points="116.289,247.518 96.969,247.518 97.222,242.14 116.542,242.14 			"/>
			<polygon opacity="0.8024" fill="#F7DDC5" points="116.293,247.547 96.965,247.547 97.216,242.17 116.545,242.17 			"/>
			<polygon opacity="0.8036" fill="#F6DCC4" points="116.298,247.575 96.96,247.575 97.21,242.199 116.548,242.199 			"/>
			<polygon opacity="0.8048" fill="#F4DBC3" points="116.303,247.604 96.956,247.604 97.204,242.228 116.551,242.228 			"/>
			<polygon opacity="0.806" fill="#F3DAC2" points="116.307,247.633 96.952,247.633 97.198,242.257 116.554,242.257 			"/>
			<polygon opacity="0.8071" fill="#F2D8C1" points="116.312,247.662 96.947,247.662 97.192,242.286 116.557,242.286 			"/>
			<polygon opacity="0.8083" fill="#F1D7C0" points="116.317,247.691 96.943,247.691 97.187,242.315 116.56,242.315 			"/>
			<polygon opacity="0.8095" fill="#F0D6BE" points="116.321,247.72 96.938,247.72 97.181,242.345 116.563,242.345 			"/>
			<polygon opacity="0.8107" fill="#EFD5BD" points="116.326,247.749 96.934,247.749 97.175,242.374 116.567,242.374 			"/>
			<polygon opacity="0.8119" fill="#EED4BC" points="116.331,247.778 96.93,247.778 97.169,242.403 116.57,242.403 			"/>
			<polygon opacity="0.8131" fill="#EDD3BB" points="116.335,247.807 96.925,247.807 97.163,242.432 116.573,242.432 			"/>
			<polygon opacity="0.8143" fill="#EBD2BA" points="116.34,247.835 96.921,247.835 97.157,242.461 116.576,242.461 			"/>
			<polygon opacity="0.8155" fill="#EAD1B9" points="116.345,247.864 96.917,247.864 97.151,242.491 116.579,242.491 			"/>
			<polygon opacity="0.8167" fill="#E9D0B8" points="116.349,247.893 96.912,247.893 97.145,242.52 116.582,242.52 			"/>
			<polygon opacity="0.8179" fill="#E8CFB7" points="116.354,247.922 96.908,247.922 97.139,242.549 116.585,242.549 			"/>
			<polygon opacity="0.819" fill="#E7CEB6" points="116.358,247.951 96.903,247.951 97.133,242.578 116.589,242.578 			"/>
			<polygon opacity="0.8202" fill="#E6CCB5" points="116.363,247.98 96.899,247.98 97.128,242.607 116.592,242.607 			"/>
			<polygon opacity="0.8214" fill="#E5CBB4" points="116.368,248.009 96.895,248.009 97.122,242.636 116.595,242.636 			"/>
			<polygon opacity="0.8226" fill="#E4CAB3" points="116.372,248.038 96.89,248.038 97.116,242.666 116.598,242.666 			"/>
			<polygon opacity="0.8238" fill="#E2C9B2" points="116.377,248.067 96.886,248.067 97.11,242.695 116.601,242.695 			"/>
			<polygon opacity="0.825" fill="#E1C8B1" points="116.382,248.095 96.882,248.095 97.104,242.724 116.604,242.724 			"/>
			<polygon opacity="0.8262" fill="#E0C7B0" points="116.386,248.124 96.877,248.124 97.098,242.753 116.607,242.753 			"/>
			<polygon opacity="0.8274" fill="#DFC6AE" points="116.391,248.153 96.873,248.153 97.092,242.782 116.61,242.782 			"/>
			<polygon opacity="0.8286" fill="#DEC5AD" points="116.396,248.182 96.868,248.182 97.086,242.811 116.614,242.811 			"/>
			<polygon opacity="0.8298" fill="#DDC4AC" points="116.4,248.211 96.864,248.211 97.08,242.841 116.617,242.841 			"/>
			<polygon opacity="0.831" fill="#DCC3AB" points="116.405,248.24 96.86,248.24 97.075,242.87 116.62,242.87 			"/>
			<polygon opacity="0.8321" fill="#DAC2AA" points="116.41,248.269 96.855,248.269 97.069,242.899 116.623,242.899 			"/>
			<polygon opacity="0.8333" fill="#D9C0A9" points="116.414,248.298 96.851,248.298 97.063,242.928 116.626,242.928 			"/>
			<polygon opacity="0.8345" fill="#D8BFA8" points="116.419,248.327 96.846,248.327 97.057,242.957 116.629,242.957 			"/>
			<polygon opacity="0.8357" fill="#D7BEA7" points="116.423,248.355 96.842,248.355 97.051,242.987 116.632,242.987 			"/>
			<polygon opacity="0.8369" fill="#D6BDA6" points="116.428,248.384 96.838,248.384 97.045,243.016 116.635,243.016 			"/>
			<polygon opacity="0.8381" fill="#D5BCA5" points="116.433,248.413 96.833,248.413 97.039,243.045 116.639,243.045 			"/>
			<polygon opacity="0.8393" fill="#D4BBA4" points="116.437,248.442 96.829,248.442 97.033,243.074 116.642,243.074 			"/>
			<polygon opacity="0.8405" fill="#D3BAA3" points="116.442,248.471 96.825,248.471 97.027,243.103 116.645,243.103 			"/>
			<polygon opacity="0.8417" fill="#D1B9A2" points="116.447,248.5 96.82,248.5 97.022,243.132 116.648,243.132 			"/>
			<polygon opacity="0.8429" fill="#D0B8A1" points="116.451,248.529 96.816,248.529 97.016,243.162 116.651,243.162 			"/>
			<polygon opacity="0.844" fill="#CFB7A0" points="116.456,248.558 96.811,248.558 97.01,243.191 116.654,243.191 			"/>
			<polygon opacity="0.8452" fill="#CEB69F" points="116.461,248.587 96.807,248.587 97.004,243.22 116.657,243.22 			"/>
			<polygon opacity="0.8464" fill="#CDB59D" points="116.465,248.615 96.803,248.615 96.998,243.249 116.66,243.249 			"/>
			<polygon opacity="0.8476" fill="#CCB39C" points="116.47,248.644 96.798,248.644 96.992,243.278 116.664,243.278 			"/>
			<polygon opacity="0.8488" fill="#CBB29B" points="116.475,248.673 96.794,248.673 96.986,243.307 116.667,243.307 			"/>
			<polygon opacity="0.85" fill="#C9B19A" points="116.479,248.702 96.79,248.702 96.98,243.337 116.67,243.337 			"/>
			<polygon opacity="0.8512" fill="#C8B099" points="116.484,248.731 96.785,248.731 96.974,243.366 116.673,243.366 			"/>
			<polygon opacity="0.8524" fill="#C7AF98" points="116.488,248.76 96.781,248.76 96.968,243.395 116.676,243.395 			"/>
			<polygon opacity="0.8536" fill="#C6AE97" points="116.493,248.789 96.776,248.789 96.963,243.424 116.679,243.424 			"/>
			<polygon opacity="0.8548" fill="#C5AD96" points="116.498,248.818 96.772,248.818 96.957,243.453 116.682,243.453 			"/>
			<polygon opacity="0.856" fill="#C4AC95" points="116.502,248.847 96.768,248.847 96.951,243.482 116.686,243.482 			"/>
			<polygon opacity="0.8571" fill="#C3AB94" points="116.507,248.875 96.763,248.875 96.945,243.512 116.689,243.512 			"/>
			<polygon opacity="0.8583" fill="#C2AA93" points="116.512,248.904 96.759,248.904 96.939,243.541 116.692,243.541 			"/>
			<polygon opacity="0.8595" fill="#C0A992" points="116.516,248.933 96.755,248.933 96.933,243.57 116.695,243.57 			"/>
			<polygon opacity="0.8607" fill="#BFA791" points="116.521,248.962 96.75,248.962 96.927,243.599 116.698,243.599 			"/>
			<polygon opacity="0.8619" fill="#BEA690" points="116.526,248.991 96.746,248.991 96.921,243.628 116.701,243.628 			"/>
			<polygon opacity="0.8631" fill="#BDA58F" points="116.53,249.02 96.741,249.02 96.915,243.658 116.704,243.658 			"/>
			<polygon opacity="0.8643" fill="#BCA48D" points="116.535,249.049 96.737,249.049 96.91,243.687 116.707,243.687 			"/>
			<polygon opacity="0.8655" fill="#BBA38C" points="116.54,249.078 96.733,249.078 96.904,243.716 116.711,243.716 			"/>
			<polygon opacity="0.8667" fill="#BAA28B" points="116.544,249.107 96.728,249.107 96.898,243.745 116.714,243.745 			"/>
			<polygon opacity="0.8679" fill="#B9A18A" points="116.549,249.135 96.724,249.135 96.892,243.774 116.717,243.774 			"/>
			<polygon opacity="0.869" fill="#B7A089" points="116.553,249.164 96.719,249.164 96.886,243.803 116.72,243.803 			"/>
			<polygon opacity="0.8702" fill="#B69F88" points="116.558,249.193 96.715,249.193 96.88,243.833 116.723,243.833 			"/>
			<polygon opacity="0.8714" fill="#B59E87" points="116.563,249.222 96.711,249.222 96.874,243.862 116.726,243.862 			"/>
			<polygon opacity="0.8726" fill="#B49D86" points="116.567,249.251 96.706,249.251 96.868,243.891 116.729,243.891 			"/>
			<polygon opacity="0.8738" fill="#B39B85" points="116.572,249.28 96.702,249.28 96.862,243.92 116.732,243.92 			"/>
			<polygon opacity="0.875" fill="#B29A84" points="116.577,249.309 96.698,249.309 96.856,243.949 116.736,243.949 			"/>
			<polygon opacity="0.8762" fill="#B19983" points="116.581,249.338 96.693,249.338 96.851,243.978 116.739,243.978 			"/>
			<polygon opacity="0.8774" fill="#AF9882" points="116.586,249.367 96.689,249.367 96.845,244.008 116.742,244.008 			"/>
			<polygon opacity="0.8786" fill="#AE9781" points="116.591,249.395 96.684,249.395 96.839,244.037 116.745,244.037 			"/>
			<polygon opacity="0.8798" fill="#AD9680" points="116.595,249.424 96.68,249.424 96.833,244.066 116.748,244.066 			"/>
			<polygon opacity="0.881" fill="#AC957F" points="116.6,249.453 96.676,249.453 96.827,244.095 116.751,244.095 			"/>
			<polygon opacity="0.8821" fill="#AB947D" points="116.604,249.482 96.671,249.482 96.821,244.124 116.754,244.124 			"/>
			<polygon opacity="0.8833" fill="#AA937C" points="116.609,249.511 96.667,249.511 96.815,244.154 116.757,244.154 			"/>
			<polygon opacity="0.8845" fill="#A9927B" points="116.614,249.54 96.663,249.54 96.809,244.183 116.761,244.183 			"/>
			<polygon opacity="0.8857" fill="#A8917A" points="116.618,249.569 96.658,249.569 96.803,244.212 116.764,244.212 			"/>
			<polygon opacity="0.8869" fill="#A68F79" points="116.623,249.598 96.654,249.598 96.798,244.241 116.767,244.241 			"/>
			<polygon opacity="0.8881" fill="#A58E78" points="116.628,249.627 96.649,249.627 96.792,244.27 116.77,244.27 			"/>
			<polygon opacity="0.8893" fill="#A48D77" points="116.632,249.655 96.645,249.655 96.786,244.299 116.773,244.299 			"/>
			<polygon opacity="0.8905" fill="#A38C76" points="116.637,249.684 96.641,249.684 96.78,244.329 116.776,244.329 			"/>
			<polygon opacity="0.8917" fill="#A28B75" points="116.642,249.713 96.636,249.713 96.774,244.358 116.779,244.358 			"/>
			<polygon opacity="0.8929" fill="#A18A74" points="116.646,249.742 96.632,249.742 96.768,244.387 116.783,244.387 			"/>
			<polygon opacity="0.894" fill="#A08973" points="116.651,249.771 96.627,249.771 96.762,244.416 116.786,244.416 			"/>
			<polygon opacity="0.8952" fill="#9F8872" points="116.656,249.8 96.623,249.8 96.756,244.445 116.789,244.445 			"/>
			<polygon opacity="0.8964" fill="#9D8771" points="116.66,249.829 96.619,249.829 96.75,244.474 116.792,244.474 			"/>
			<polygon opacity="0.8976" fill="#9C8670" points="116.665,249.858 96.614,249.858 96.745,244.504 116.795,244.504 			"/>
			<polygon opacity="0.8988" fill="#9B856F" points="116.669,249.887 96.61,249.887 96.739,244.533 116.798,244.533 			"/>
			<polygon opacity="0.9" fill="#9A836D" points="116.674,249.915 96.606,249.915 96.733,244.562 116.801,244.562 			"/>
			<polygon opacity="0.9012" fill="#99826C" points="116.679,249.944 96.601,249.944 96.727,244.591 116.804,244.591 			"/>
			<polygon opacity="0.9024" fill="#98816B" points="116.683,249.973 96.597,249.973 96.721,244.62 116.808,244.62 			"/>
			<polygon opacity="0.9036" fill="#97806A" points="116.688,250.002 96.592,250.002 96.715,244.649 116.811,244.649 			"/>
			<polygon opacity="0.9048" fill="#957F69" points="116.693,250.031 96.588,250.031 96.709,244.679 116.814,244.679 			"/>
			<polygon opacity="0.906" fill="#947E68" points="116.697,250.06 96.584,250.06 96.703,244.708 116.817,244.708 			"/>
			<polygon opacity="0.9071" fill="#937D67" points="116.702,250.089 96.579,250.089 96.697,244.737 116.82,244.737 			"/>
			<polygon opacity="0.9083" fill="#927C66" points="116.707,250.118 96.575,250.118 96.691,244.766 116.823,244.766 			"/>
			<polygon opacity="0.9095" fill="#917B65" points="116.711,250.147 96.571,250.147 96.686,244.795 116.826,244.795 			"/>
			<polygon opacity="0.9107" fill="#907A64" points="116.716,250.175 96.566,250.175 96.68,244.825 116.829,244.825 			"/>
			<polygon opacity="0.9119" fill="#8F7963" points="116.721,250.204 96.562,250.204 96.674,244.854 116.833,244.854 			"/>
			<polygon opacity="0.9131" fill="#8E7862" points="116.725,250.233 96.557,250.233 96.668,244.883 116.836,244.883 			"/>
			<polygon opacity="0.9143" fill="#8C7661" points="116.73,250.262 96.553,250.262 96.662,244.912 116.839,244.912 			"/>
			<polygon opacity="0.9155" fill="#8B7560" points="116.734,250.291 96.549,250.291 96.656,244.941 116.842,244.941 			"/>
			<polygon opacity="0.9167" fill="#8A745F" points="116.739,250.32 96.544,250.32 96.65,244.97 116.845,244.97 			"/>
			<polygon opacity="0.9179" fill="#89735E" points="116.744,250.349 96.54,250.349 96.644,245 116.848,245 			"/>
			<polygon opacity="0.919" fill="#88725C" points="116.748,250.378 96.535,250.378 96.638,245.029 116.851,245.029 			"/>
			<polygon opacity="0.9202" fill="#87715B" points="116.753,250.407 96.531,250.407 96.633,245.058 116.854,245.058 			"/>
			<polygon opacity="0.9214" fill="#86705A" points="116.758,250.436 96.527,250.436 96.627,245.087 116.858,245.087 			"/>
			<polygon opacity="0.9226" fill="#856F59" points="116.762,250.464 96.522,250.464 96.621,245.116 116.861,245.116 			"/>
			<polygon opacity="0.9238" fill="#836E58" points="116.767,250.493 96.518,250.493 96.615,245.145 116.864,245.145 			"/>
			<polygon opacity="0.925" fill="#826D57" points="116.772,250.522 96.514,250.522 96.609,245.175 116.867,245.175 			"/>
			<polygon opacity="0.9262" fill="#816C56" points="116.776,250.551 96.509,250.551 96.603,245.204 116.87,245.204 			"/>
			<polygon opacity="0.9274" fill="#806A55" points="116.781,250.58 96.505,250.58 96.597,245.233 116.873,245.233 			"/>
			<polygon opacity="0.9286" fill="#7F6954" points="116.786,250.609 96.5,250.609 96.591,245.262 116.876,245.262 			"/>
			<polygon opacity="0.9298" fill="#7E6853" points="116.79,250.638 96.496,250.638 96.585,245.291 116.879,245.291 			"/>
			<polygon opacity="0.931" fill="#7D6752" points="116.795,250.667 96.492,250.667 96.579,245.321 116.883,245.321 			"/>
			<polygon opacity="0.9321" fill="#7B6651" points="116.799,250.695 96.487,250.695 96.574,245.35 116.886,245.35 			"/>
			<polygon opacity="0.9333" fill="#7A6550" points="116.804,250.724 96.483,250.724 96.568,245.379 116.889,245.379 			"/>
			<polygon opacity="0.9345" fill="#79644F" points="116.809,250.753 96.479,250.753 96.562,245.408 116.892,245.408 			"/>
			<polygon opacity="0.9357" fill="#78634E" points="116.813,250.782 96.474,250.782 96.556,245.437 116.895,245.437 			"/>
			<polygon opacity="0.9369" fill="#77624C" points="116.818,250.811 96.47,250.811 96.55,245.466 116.898,245.466 			"/>
			<polygon opacity="0.9381" fill="#76614B" points="116.823,250.84 96.465,250.84 96.544,245.496 116.901,245.496 			"/>
			<polygon opacity="0.9393" fill="#75604A" points="116.827,250.869 96.461,250.869 96.538,245.525 116.905,245.525 			"/>
			<polygon opacity="0.9405" fill="#745E49" points="116.832,250.898 96.457,250.898 96.532,245.554 116.908,245.554 			"/>
			<polygon opacity="0.9417" fill="#725D48" points="116.837,250.927 96.452,250.927 96.526,245.583 116.911,245.583 			"/>
			<polygon opacity="0.9429" fill="#715C47" points="116.841,250.956 96.448,250.956 96.521,245.612 116.914,245.612 			"/>
			<polygon opacity="0.944" fill="#705B46" points="116.846,250.984 96.444,250.984 96.515,245.641 116.917,245.641 			"/>
			<polygon opacity="0.9452" fill="#6F5A45" points="116.851,251.013 96.439,251.013 96.509,245.671 116.92,245.671 			"/>
			<polygon opacity="0.9464" fill="#6E5944" points="116.855,251.042 96.435,251.042 96.503,245.7 116.923,245.7 			"/>
			<polygon opacity="0.9476" fill="#6D5843" points="116.86,251.071 96.43,251.071 96.497,245.729 116.926,245.729 			"/>
			<polygon opacity="0.9488" fill="#6C5742" points="116.864,251.1 96.426,251.1 96.491,245.758 116.93,245.758 			"/>
			<polygon opacity="0.95" fill="#6B5641" points="116.869,251.129 96.422,251.129 96.485,245.787 116.933,245.787 			"/>
			<polygon opacity="0.9512" fill="#695540" points="116.874,251.158 96.417,251.158 96.479,245.816 116.936,245.816 			"/>
			<polygon opacity="0.9524" fill="#68543F" points="116.878,251.187 96.413,251.187 96.473,245.846 116.939,245.846 			"/>
			<polygon opacity="0.9536" fill="#67523E" points="116.883,251.216 96.408,251.216 96.467,245.875 116.942,245.875 			"/>
			<polygon opacity="0.9548" fill="#66513C" points="116.888,251.244 96.404,251.244 96.462,245.904 116.945,245.904 			"/>
			<polygon opacity="0.956" fill="#65503B" points="116.892,251.273 96.4,251.273 96.456,245.933 116.948,245.933 			"/>
			<polygon opacity="0.9571" fill="#644F3A" points="116.897,251.302 96.395,251.302 96.45,245.962 116.951,245.962 			"/>
			<polygon opacity="0.9583" fill="#634E39" points="116.902,251.331 96.391,251.331 96.444,245.992 116.955,245.992 			"/>
			<polygon opacity="0.9595" fill="#614D38" points="116.906,251.36 96.387,251.36 96.438,246.021 116.958,246.021 			"/>
			<polygon opacity="0.9607" fill="#604C37" points="116.911,251.389 96.382,251.389 96.432,246.05 116.961,246.05 			"/>
			<polygon opacity="0.9619" fill="#5F4B36" points="116.916,251.418 96.378,251.418 96.426,246.079 116.964,246.079 			"/>
			<polygon opacity="0.9631" fill="#5E4A35" points="116.92,251.447 96.373,251.447 96.42,246.108 116.967,246.108 			"/>
			<polygon opacity="0.9643" fill="#5D4934" points="116.925,251.476 96.369,251.476 96.414,246.137 116.97,246.137 			"/>
			<polygon opacity="0.9655" fill="#5C4833" points="116.929,251.504 96.365,251.504 96.409,246.167 116.973,246.167 			"/>
			<polygon opacity="0.9667" fill="#5B4732" points="116.934,251.533 96.36,251.533 96.403,246.196 116.976,246.196 			"/>
			<polygon opacity="0.9679" fill="#5A4531" points="116.939,251.562 96.356,251.562 96.397,246.225 116.98,246.225 			"/>
			<polygon opacity="0.969" fill="#584430" points="116.943,251.591 96.352,251.591 96.391,246.254 116.983,246.254 			"/>
			<polygon opacity="0.9702" fill="#57432F" points="116.948,251.62 96.347,251.62 96.385,246.283 116.986,246.283 			"/>
			<polygon opacity="0.9714" fill="#56422E" points="116.953,251.649 96.343,251.649 96.379,246.312 116.989,246.312 			"/>
			<polygon opacity="0.9726" fill="#55412D" points="116.957,251.678 96.338,251.678 96.373,246.342 116.992,246.342 			"/>
			<polygon opacity="0.9738" fill="#54402B" points="116.962,251.707 96.334,251.707 96.367,246.371 116.995,246.371 			"/>
			<polygon opacity="0.975" fill="#533F2A" points="116.967,251.736 96.33,251.736 96.361,246.4 116.998,246.4 			"/>
			<polygon opacity="0.9762" fill="#523E29" points="116.971,251.764 96.325,251.764 96.356,246.429 117.002,246.429 			"/>
			<polygon opacity="0.9774" fill="#503D28" points="116.976,251.793 96.321,251.793 96.35,246.458 117.005,246.458 			"/>
			<polygon opacity="0.9786" fill="#4F3C27" points="116.981,251.822 96.316,251.822 96.344,246.488 117.008,246.488 			"/>
			<polygon opacity="0.9798" fill="#4E3B26" points="116.985,251.851 96.312,251.851 96.338,246.517 117.011,246.517 			"/>
			<polygon opacity="0.981" fill="#4D3925" points="116.99,251.88 96.308,251.88 96.332,246.546 117.014,246.546 			"/>
			<polygon opacity="0.9821" fill="#4C3824" points="116.994,251.909 96.303,251.909 96.326,246.575 117.017,246.575 			"/>
			<polygon opacity="0.9833" fill="#4B3723" points="116.999,251.938 96.299,251.938 96.32,246.604 117.02,246.604 			"/>
			<polygon opacity="0.9845" fill="#4A3622" points="117.004,251.967 96.295,251.967 96.314,246.633 117.023,246.633 			"/>
			<polygon opacity="0.9857" fill="#493521" points="117.008,251.996 96.29,251.996 96.308,246.663 117.027,246.663 			"/>
			<polygon opacity="0.9869" fill="#473420" points="117.013,252.024 96.286,252.024 96.302,246.692 117.03,246.692 			"/>
			<polygon opacity="0.9881" fill="#46331F" points="117.018,252.053 96.281,252.053 96.297,246.721 117.033,246.721 			"/>
			<polygon opacity="0.9893" fill="#45321E" points="117.022,252.082 96.277,252.082 96.291,246.75 117.036,246.75 			"/>
			<polygon opacity="0.9905" fill="#44311D" points="117.027,252.111 96.273,252.111 96.285,246.779 117.039,246.779 			"/>
			<polygon opacity="0.9917" fill="#43301B" points="117.032,252.14 96.268,252.14 96.279,246.808 117.042,246.808 			"/>
			<polygon opacity="0.9929" fill="#422F1A" points="117.036,252.169 96.264,252.169 96.273,246.838 117.045,246.838 			"/>
			<polygon opacity="0.994" fill="#412D19" points="117.041,252.198 96.26,252.198 96.267,246.867 117.048,246.867 			"/>
			<polygon opacity="0.9952" fill="#402C18" points="117.046,252.227 96.255,252.227 96.261,246.896 117.052,246.896 			"/>
			<rect x="96.253" y="246.925" opacity="0.9964" fill="#3E2B17" width="20.799" height="5.33"/>
			<rect x="96.248" y="246.954" opacity="0.9976" fill="#3D2A16" width="20.808" height="5.33"/>
			<rect x="96.243" y="246.983" opacity="0.9988" fill="#3C2915" width="20.817" height="5.33"/>
			<rect x="96.238" y="247.013" fill="#3B2814" width="20.826" height="5.33"/>
		</g>
		<path d="M99.524,281.135l1.884-0.488c0.113-0.627,0.221-1.265,0.324-1.91c0.495-3.102,0.859-6.325,0.919-8.833
			c0.067-2.835-0.937-5.529-2.1-8.647c-1.502-4.03-3.373-9.045-3.373-16.11v-5.695h7.794h3.722h7.795v5.695
			c0,7.066-1.87,12.081-3.373,16.11c-1.163,3.118-2.168,5.812-2.1,8.647c0.055,2.297,0.366,5.193,0.798,8.048l3.627-0.939
			c-0.377-2.553-0.655-5.136-0.704-7.198c-0.05-2.118,0.796-4.386,1.866-7.258c1.608-4.31,3.608-9.673,3.608-17.411v-7.556
			c0-1.028-0.833-1.861-1.861-1.861h-9.656h-3.722h-9.655c-1.028,0-1.861,0.833-1.861,1.861v7.556c0,7.737,2,13.101,3.608,17.411
			c1.071,2.872,1.917,5.14,1.866,7.258c-0.072,3.012-0.629,7.139-1.276,10.656c-0.076,0.413-0.153,0.815-0.231,1.208L99.524,281.135
			"/>
		<circle fill="none" stroke="#EFC39E" stroke-miterlimit="10" cx="99.532" cy="232.15" r="1.668"/>
		<circle fill="none" stroke="#EFC39E" stroke-miterlimit="10" cx="110.677" cy="227.562" r="1.424"/>
		
			<ellipse transform="matrix(0.9539 -0.3 0.3 0.9539 -62.0049 41.1052)" fill="none" stroke="#EFC39E" stroke-width="0.75" stroke-miterlimit="10" cx="102.868" cy="222.489" rx="1.668" ry="1.668"/>
		<circle fill="none" stroke="#EFC39E" stroke-width="0.5" stroke-miterlimit="10" cx="111.084" cy="214.055" r="0.896"/>
	</g>
</g>
<g id="Layer_1">
	<polyline fill="none" stroke="#000000" stroke-miterlimit="10" points="362.79,71.259 86.643,72.585 86.643,567.134 	"/>
	<path fill="none" stroke="#000000" stroke-miterlimit="10" d="M362.79,318.116"/>
	<g>
		<path d="M66.309,57.186l-5.001,4.856c-1.56-0.083-3.189-0.361-4.89-0.834s-3.426-1.125-5.176-1.955
			c-1.75-0.831-4.085-2.25-7.005-4.258c-4.231-0.763-7.719-2.772-10.465-6.026c-2.747-3.253-4.119-7.006-4.119-11.256
			c0-5.196,1.767-9.496,5.301-12.899s8.005-5.105,13.413-5.105c5.375,0,9.842,1.689,13.401,5.068
			c3.559,3.378,5.338,7.624,5.338,12.737c0,4.3-1.344,8.077-4.032,11.331s-6.164,5.304-10.428,6.151l1.319,0.498
			c4.098,1.577,7.051,2.366,8.86,2.366C63.821,57.859,64.982,57.635,66.309,57.186z M48.367,24.44c-3.914,0-7.148,1.262-9.703,3.785
			c-2.555,2.524-3.832,5.703-3.832,9.538c0,3.735,1.285,6.844,3.856,9.326s5.797,3.723,9.678,3.723c3.832,0,7.058-1.27,9.678-3.81
			s3.931-5.669,3.931-9.388c0-3.801-1.286-6.948-3.856-9.438C55.549,25.685,52.298,24.44,48.367,24.44z"/>
	</g>
	<path fill="none" stroke="#000000" stroke-miterlimit="10" d="M85.792,207.547"/>
	<path fill="none" stroke="#000000" stroke-miterlimit="10" d="M361.939,206.221"/>
	<path fill="none" stroke="#000000" stroke-miterlimit="10" d="M85.792,320.702"/>
	<g>
		<path fill="none" stroke="#000000" stroke-width="4" stroke-linejoin="bevel" stroke-miterlimit="10" d="M89.504,319.429
			c59.622,0,119.244,0,178.867,0c28.338,0,63.761-0.553,92.099-0.465c0,0-1.383-4.257-1.383-13.454
			c0-13.069,1.141-26.609-0.616-39.589c-4.291-31.705-15.789-58.64-35.558-83.63c-10.525-13.305-22.395-26.684-37.309-35.03
			c-11.809-6.608-25.884-11.976-38.548-16.645c0.145,7.762-0.145,16.451,0,24.213"/>
		
			<line fill="none" stroke="#000000" stroke-width="4" stroke-linecap="round" stroke-miterlimit="10" x1="247.056" y1="130.615" x2="247.056" y2="97.224"/>
		<path fill="none" stroke="#000000" stroke-width="4" stroke-linecap="round" stroke-miterlimit="10" d="M246.858,97.224
			c-4.655,16.15-20.958,16.115-25.637,0"/>
		<path fill="none" stroke="#000000" stroke-width="4" stroke-miterlimit="10" d="M170.539,160.91
			c-13.836,32.852-28.262,67.518-42.097,100.371c24.378-15.265,38.769-47.021,42.167-75.073"/>
		<path fill="none" stroke="#000000" stroke-width="4" stroke-miterlimit="10" d="M128.442,261.281
			c-1.77,3.434-6.894,9.754-6.959,13.501c-0.048,2.715,2.865,6.425,3.167,10.442c0.843,11.22-0.01,22.809,0.035,34.072"/>
		<path fill="none" stroke="#000000" stroke-width="4" stroke-linecap="round" stroke-miterlimit="10" d="M89.504,319.295
			c0-29.439-3.185-43.429,32.093-43.429"/>
		
			<line fill="none" stroke="#000000" stroke-width="4" stroke-miterlimit="10" x1="124.553" y1="287.239" x2="111.029" y2="287.239"/>
		
			<line fill="none" stroke="#000000" stroke-width="4" stroke-miterlimit="10" x1="124.684" y1="297.382" x2="111.029" y2="297.382"/>
		
			<line fill="none" stroke="#000000" stroke-width="4" stroke-miterlimit="10" x1="124.684" y1="308.733" x2="111.029" y2="308.733"/>
		<path fill="none" stroke="#000000" stroke-width="4" stroke-miterlimit="10" d="M250.978,247.282
			c-12.764,13.214-28.544,18.928-46.883,16.799c-10.823-1.256-29.67-7.394-34.146-18.298"/>
		<path fill="none" stroke="#000000" stroke-width="4" stroke-miterlimit="10" d="M214.489,140.528
			c0,5.613-1.211,11.827,1.59,16.858c3.9,7.007,14.481,9.166,20.453,3.307"/>
		<path fill="none" stroke="#000000" stroke-width="4" stroke-miterlimit="10" d="M184.858,140.528c0,0,2.97,22.796-13.636,22.196"
			/>
		
			<line fill="none" stroke="#000000" stroke-width="4" stroke-linecap="round" stroke-miterlimit="10" x1="231.987" y1="189.194" x2="244.148" y2="177.582"/>
		<path fill="none" stroke="#000000" stroke-width="4" stroke-miterlimit="10" d="M197.595,319.439
			c4.508-9.329,9.016-18.658,13.524-27.986c3.919,9.329,7.839,18.658,11.758,27.986"/>
		
			<line fill="none" stroke="#000000" stroke-width="4" stroke-miterlimit="10" x1="182.171" y1="319.105" x2="198.485" y2="286.605"/>
		
			<line fill="none" stroke="#000000" stroke-width="4" stroke-miterlimit="10" x1="222.637" y1="286.901" x2="235.95" y2="319.439"/>
		<path fill="none" stroke="#000000" stroke-width="4" stroke-miterlimit="10" d="M196.413,183.388
			c-0.251,8.78-3.479,18.367-10.477,24.037c3.007,1.895,6.014,3.79,9.021,5.686"/>
		<path stroke="#000000" stroke-miterlimit="10" d="M185.192,188.329c0.683,2.915-2.202,5.43-5.16,4.052
			c-0.655-0.305-1.196-0.846-1.501-1.501c-1.378-2.959,1.137-5.843,4.052-5.16C183.867,186.021,184.892,187.045,185.192,188.329z"/>
		<path stroke="#000000" stroke-miterlimit="10" d="M217.674,188.329c0.683,2.915-2.202,5.43-5.16,4.052
			c-0.655-0.305-1.196-0.846-1.501-1.501c-1.378-2.959,1.137-5.843,4.052-5.16C216.349,186.021,217.373,187.045,217.674,188.329z"/>
		<g>
			<path stroke="#000000" stroke-miterlimit="10" d="M189.022,222.445c0,0.841,0.256,1.725,0.841,2.615
				c0.667,1.016,1.85,1.854,3.282,2.327c5.818,1.921,11.484-1.041,11.487-4.942H189.022z"/>
		</g>
		<path fill="none" stroke="#000000" stroke-width="4" stroke-linecap="round" stroke-miterlimit="10" d="M221.222,97.224
			c-4.655,16.15-20.958,16.115-25.637,0"/>
		<path fill="none" stroke="#000000" stroke-width="4" stroke-linecap="round" stroke-miterlimit="10" d="M195.585,97.258
			c-4.655,16.15-20.958,16.115-25.637,0"/>
		<path fill="none" stroke="#000000" stroke-width="4" stroke-linecap="round" stroke-miterlimit="10" d="M169.949,97.608
			c0.251,26.867,0.501,53.734,0.752,80.601c0.122,13.038-1.461,27.371,0.376,40.29c1.262,8.881,12.208,17.772,18.873,23.812
			c10.916,9.891,23.826-5.005,32.928-11.705"/>
		<path fill="none" stroke="#000000" stroke-width="4" stroke-miterlimit="10" d="M244.148,175.793"/>
		<path fill="none" stroke="#000000" stroke-width="4" stroke-linecap="round" stroke-miterlimit="10" d="M248.18,173.957
			c-3.273,4.765-20.323,5.138-25.302,4.329c-10.186-1.656-19.407-10.438-23.934-19.385c-3.264,11.831-16.132,19.385-27.722,19.385"
			/>
		<path fill="none" stroke="#000000" stroke-width="4" stroke-miterlimit="10" d="M198.944,158.901"/>
		<path fill="none" stroke="#000000" stroke-width="4" stroke-miterlimit="10" d="M359.08,294.85
			c-42.316-52.76-84.037-106.057-126.974-158.312c-13.523-16.458-46.167-18.54-60.885-1.506"/>
		<path fill="none" stroke="#000000" stroke-width="4" stroke-linecap="round" stroke-miterlimit="10" d="M271.98,205.22
			c-2.232,20.519,7.299,42.65,21.422,56.598c10.502,10.372,25.513,22.283,41.05,21.874"/>
		<path fill="none" stroke="#000000" stroke-width="4" stroke-miterlimit="10" d="M350.842,304.281
			c-28.244-0.419-52.693-14.798-72.097-34.616c-20.949-21.396-27.195-54.793-22.29-83.945"/>
		<path fill="none" stroke="#000000" stroke-width="4" stroke-linecap="round" stroke-miterlimit="10" d="M247.381,175.425
			c-5.096,4.922-5.801,10.572-5.801,17.695c0,6.834-0.81,14.199,0,20.989c1.943,16.282,8.76,34.916,15.946,49.518
			c17.627,35.816,63.247,56.396,101.555,55.801"/>
		<path fill="none" stroke="#000000" stroke-width="4" stroke-miterlimit="10" d="M259.381,271.51
			c-30.973,28.609-80.477,15.901-108.787-9.494c10.805-9.063,21.611-18.126,32.416-27.189"/>
		<path fill="none" stroke="#000000" stroke-width="4" stroke-miterlimit="10" d="M124.684,284.582
			c9.12-7.943,18.898-15.49,27.347-24.136c8.287-8.479,21.123-21.255,23.546-33.636"/>
		<path fill="none" stroke="#000000" stroke-width="4" stroke-miterlimit="10" d="M198.944,157.667V136.88
			c2.041-0.198,4.056-0.139,6.044,0.146c23.372,3.354,42.936,37.977,55.374,53.601c26.361,33.113,52.722,66.226,79.084,99.339
			c6.545,8.221,13.09,19.429,19.634,27.65"/>
		<path fill="none" stroke="#000000" stroke-width="4" stroke-miterlimit="10" d="M198.944,136.88
			c-2.041-0.198-16.053-0.872-28.491,14.752"/>
	</g>
	<path fill="none" stroke="#000000" stroke-miterlimit="10" d="M85.764,207.972"/>
	<polyline fill="none" stroke="#000000" stroke-miterlimit="10" points="85.764,567.984 361.911,566.658 361.911,72.109 	"/>
	<path fill="none" stroke="#000000" stroke-miterlimit="10" d="M85.764,321.127"/>
	<path fill="none" stroke="#000000" stroke-miterlimit="10" d="M362.761,318.541"/>
	<path d="M59.661,76.806c-3.917-2.912-7.964-5.924-10.534-9.44l0.021-0.029l-0.092-0.067l-0.066-0.092l-0.03,0.022l-0.03-0.022
		l-0.066,0.092l-0.092,0.067l0.021,0.029c-2.571,3.517-6.618,6.528-10.534,9.44c-7.67,5.703-15.601,11.601-12.771,21.562
		c1.57,5.527,5.901,9.258,11.033,9.506c4.906,0.242,9.256-2.735,11.517-7.806c-0.304,5.399-1.104,10.867-5.511,14.434l-0.298,0.241
		h6.596h0.271h6.596l-0.298-0.241c-4.407-3.567-5.206-9.035-5.511-14.434c2.261,5.07,6.622,8.048,11.517,7.806
		c5.132-0.248,9.463-3.98,11.032-9.506C75.262,88.407,67.331,82.51,59.661,76.806z"/>
	<path d="M139.485,108.809c-5.311-3.949-10.8-8.033-14.285-12.801l0.028-0.039l-0.125-0.091l-0.09-0.124l-0.041,0.029l-0.041-0.029
		l-0.09,0.124l-0.125,0.091l0.028,0.039c-3.486,4.769-8.974,8.852-14.285,12.801c-10.401,7.734-21.156,15.731-17.318,29.239
		c2.129,7.495,8.002,12.554,14.961,12.891c6.653,0.328,12.552-3.709,15.618-10.585c-0.412,7.322-1.496,14.736-7.473,19.573
		l-0.404,0.326h8.944h0.367h8.944l-0.404-0.326c-5.976-4.838-7.06-12.251-7.473-19.573c3.066,6.876,8.979,10.913,15.618,10.585
		c6.96-0.337,12.832-5.397,14.96-12.891C160.64,124.54,149.886,116.543,139.485,108.809z"/>
	<path d="M171.406,86.502c-0.507-0.377-1.031-0.767-1.364-1.222l0.003-0.004l-0.012-0.009l-0.009-0.012l-0.004,0.003l-0.004-0.003
		l-0.009,0.012l-0.012,0.009l0.003,0.004c-0.333,0.455-0.857,0.845-1.364,1.222c-0.993,0.738-2.02,1.502-1.653,2.791
		c0.203,0.715,0.764,1.198,1.428,1.231c0.635,0.031,1.198-0.354,1.491-1.011c-0.039,0.699-0.143,1.407-0.713,1.869l-0.039,0.031
		h0.854h0.035h0.854l-0.039-0.031c-0.571-0.462-0.674-1.17-0.713-1.869c0.293,0.656,0.857,1.042,1.491,1.011
		c0.664-0.032,1.225-0.515,1.428-1.231C173.426,88.004,172.399,87.24,171.406,86.502z"/>
	<path d="M196.971,86.502c-0.507-0.377-1.031-0.767-1.364-1.222l0.003-0.004l-0.012-0.009l-0.009-0.012l-0.004,0.003l-0.004-0.003
		l-0.009,0.012l-0.012,0.009l0.003,0.004c-0.333,0.455-0.857,0.845-1.364,1.222c-0.993,0.738-2.02,1.502-1.653,2.791
		c0.203,0.715,0.764,1.198,1.428,1.231c0.635,0.031,1.198-0.354,1.491-1.011c-0.039,0.699-0.143,1.407-0.713,1.869l-0.039,0.031
		h0.854h0.035h0.854l-0.039-0.031c-0.571-0.462-0.674-1.17-0.713-1.869c0.293,0.656,0.857,1.042,1.491,1.011
		c0.664-0.032,1.225-0.515,1.428-1.231C198.99,88.004,197.963,87.24,196.971,86.502z"/>
	<path d="M222.535,86.502c-0.507-0.377-1.031-0.767-1.364-1.222l0.003-0.004l-0.012-0.009l-0.009-0.012l-0.004,0.003l-0.004-0.003
		l-0.009,0.012l-0.012,0.009l0.003,0.004c-0.333,0.455-0.857,0.845-1.364,1.222c-0.993,0.738-2.02,1.502-1.653,2.791
		c0.203,0.715,0.764,1.198,1.428,1.231c0.635,0.031,1.198-0.354,1.491-1.011c-0.039,0.699-0.143,1.407-0.713,1.869l-0.039,0.031
		h0.854h0.035h0.854l-0.039-0.031c-0.571-0.462-0.674-1.17-0.713-1.869c0.293,0.656,0.857,1.042,1.491,1.011
		c0.664-0.032,1.225-0.515,1.428-1.231C224.555,88.004,223.528,87.24,222.535,86.502z"/>
	<path d="M248.1,86.502c-0.507-0.377-1.031-0.767-1.364-1.222l0.003-0.004l-0.012-0.009l-0.009-0.012l-0.004,0.003l-0.004-0.003
		l-0.009,0.012l-0.012,0.009l0.003,0.004c-0.333,0.455-0.857,0.845-1.364,1.222c-0.993,0.738-2.02,1.502-1.653,2.791
		c0.203,0.715,0.764,1.198,1.428,1.231c0.635,0.031,1.198-0.354,1.491-1.011c-0.039,0.699-0.143,1.407-0.713,1.869l-0.039,0.031
		h0.854h0.035h0.854l-0.039-0.031c-0.571-0.462-0.674-1.17-0.713-1.869c0.293,0.656,0.857,1.042,1.491,1.011
		c0.664-0.032,1.225-0.515,1.428-1.231C250.119,88.004,249.093,87.24,248.1,86.502z"/>
	<g>
		<path fill="#3B2814" d="M350.155,358.206c-1.105,4.367-2.201,9.618-1.604,11.348c1.083,3.14,6.668,18.135,5.758,21.931h-23.032
			c0,0,2.097-16.278,5.312-21.931c1.193-2.097,1.092-5.1,0.494-8.048"/>
		<g>
			<polygon opacity="0.8" fill="#F9DFC7" points="352.703,391.765 333.392,391.765 333.138,397.143 352.448,397.143 			"/>
			<polygon opacity="0.8012" fill="#F8DEC6" points="333.387,391.736 352.707,391.736 352.454,397.114 333.134,397.114 			"/>
			<polygon opacity="0.8024" fill="#F7DDC5" points="333.383,391.708 352.711,391.708 352.46,397.085 333.131,397.085 			"/>
			<polygon opacity="0.8036" fill="#F6DCC4" points="333.378,391.679 352.716,391.679 352.466,397.055 333.128,397.055 			"/>
			<polygon opacity="0.8048" fill="#F4DBC3" points="333.373,391.65 352.72,391.65 352.472,397.026 333.125,397.026 			"/>
			<polygon opacity="0.806" fill="#F3DAC2" points="333.369,391.621 352.724,391.621 352.478,396.997 333.122,396.997 			"/>
			<polygon opacity="0.8071" fill="#F2D8C1" points="333.364,391.592 352.729,391.592 352.484,396.968 333.119,396.968 			"/>
			<polygon opacity="0.8083" fill="#F1D7C0" points="333.359,391.563 352.733,391.563 352.49,396.939 333.116,396.939 			"/>
			<polygon opacity="0.8095" fill="#F0D6BE" points="333.355,391.534 352.738,391.534 352.495,396.909 333.113,396.909 			"/>
			<polygon opacity="0.8107" fill="#EFD5BD" points="333.35,391.505 352.742,391.505 352.501,396.88 333.109,396.88 			"/>
			<polygon opacity="0.8119" fill="#EED4BC" points="333.345,391.476 352.746,391.476 352.507,396.851 333.106,396.851 			"/>
			<polygon opacity="0.8131" fill="#EDD3BB" points="333.341,391.448 352.751,391.448 352.513,396.822 333.103,396.822 			"/>
			<polygon opacity="0.8143" fill="#EBD2BA" points="333.336,391.419 352.755,391.419 352.519,396.793 333.1,396.793 			"/>
			<polygon opacity="0.8155" fill="#EAD1B9" points="333.332,391.39 352.759,391.39 352.525,396.764 333.097,396.764 			"/>
			<polygon opacity="0.8167" fill="#E9D0B8" points="333.327,391.361 352.764,391.361 352.531,396.734 333.094,396.734 			"/>
			<polygon opacity="0.8179" fill="#E8CFB7" points="333.322,391.332 352.768,391.332 352.537,396.705 333.091,396.705 			"/>
			<polygon opacity="0.819" fill="#E7CEB6" points="333.318,391.303 352.773,391.303 352.543,396.676 333.088,396.676 			"/>
			<polygon opacity="0.8202" fill="#E6CCB5" points="333.313,391.274 352.777,391.274 352.548,396.647 333.084,396.647 			"/>
			<polygon opacity="0.8214" fill="#E5CBB4" points="333.308,391.245 352.781,391.245 352.554,396.618 333.081,396.618 			"/>
			<polygon opacity="0.8226" fill="#E4CAB3" points="333.304,391.216 352.786,391.216 352.56,396.589 333.078,396.589 			"/>
			<polygon opacity="0.8238" fill="#E2C9B2" points="333.299,391.188 352.79,391.188 352.566,396.559 333.075,396.559 			"/>
			<polygon opacity="0.825" fill="#E1C8B1" points="333.294,391.159 352.795,391.159 352.572,396.53 333.072,396.53 			"/>
			<polygon opacity="0.8262" fill="#E0C7B0" points="333.29,391.13 352.799,391.13 352.578,396.501 333.069,396.501 			"/>
			<polygon opacity="0.8274" fill="#DFC6AE" points="333.285,391.101 352.803,391.101 352.584,396.472 333.066,396.472 			"/>
			<polygon opacity="0.8286" fill="#DEC5AD" points="333.28,391.072 352.808,391.072 352.59,396.443 333.062,396.443 			"/>
			<polygon opacity="0.8298" fill="#DDC4AC" points="333.276,391.043 352.812,391.043 352.596,396.413 333.059,396.413 			"/>
			<polygon opacity="0.831" fill="#DCC3AB" points="333.271,391.014 352.816,391.014 352.602,396.384 333.056,396.384 			"/>
			<polygon opacity="0.8321" fill="#DAC2AA" points="333.267,390.985 352.821,390.985 352.607,396.355 333.053,396.355 			"/>
			<polygon opacity="0.8333" fill="#D9C0A9" points="333.262,390.956 352.825,390.956 352.613,396.326 333.05,396.326 			"/>
			<polygon opacity="0.8345" fill="#D8BFA8" points="333.257,390.928 352.83,390.928 352.619,396.297 333.047,396.297 			"/>
			<polygon opacity="0.8357" fill="#D7BEA7" points="333.253,390.899 352.834,390.899 352.625,396.268 333.044,396.268 			"/>
			<polygon opacity="0.8369" fill="#D6BDA6" points="333.248,390.87 352.838,390.87 352.631,396.238 333.041,396.238 			"/>
			<polygon opacity="0.8381" fill="#D5BCA5" points="333.243,390.841 352.843,390.841 352.637,396.209 333.037,396.209 			"/>
			<polygon opacity="0.8393" fill="#D4BBA4" points="333.239,390.812 352.847,390.812 352.643,396.18 333.034,396.18 			"/>
			<polygon opacity="0.8405" fill="#D3BAA3" points="333.234,390.783 352.851,390.783 352.649,396.151 333.031,396.151 			"/>
			<polygon opacity="0.8417" fill="#D1B9A2" points="333.229,390.754 352.856,390.754 352.655,396.122 333.028,396.122 			"/>
			<polygon opacity="0.8429" fill="#D0B8A1" points="333.225,390.725 352.86,390.725 352.66,396.093 333.025,396.093 			"/>
			<polygon opacity="0.844" fill="#CFB7A0" points="333.22,390.696 352.865,390.696 352.666,396.063 333.022,396.063 			"/>
			<polygon opacity="0.8452" fill="#CEB69F" points="333.215,390.668 352.869,390.668 352.672,396.034 333.019,396.034 			"/>
			<polygon opacity="0.8464" fill="#CDB59D" points="333.211,390.639 352.873,390.639 352.678,396.005 333.016,396.005 			"/>
			<polygon opacity="0.8476" fill="#CCB39C" points="333.206,390.61 352.878,390.61 352.684,395.976 333.012,395.976 			"/>
			<polygon opacity="0.8488" fill="#CBB29B" points="333.202,390.581 352.882,390.581 352.69,395.947 333.009,395.947 			"/>
			<polygon opacity="0.85" fill="#C9B19A" points="333.197,390.552 352.887,390.552 352.696,395.918 333.006,395.918 			"/>
			<polygon opacity="0.8512" fill="#C8B099" points="333.192,390.523 352.891,390.523 352.702,395.888 333.003,395.888 			"/>
			<polygon opacity="0.8524" fill="#C7AF98" points="333.188,390.494 352.895,390.494 352.708,395.859 333,395.859 			"/>
			<polygon opacity="0.8536" fill="#C6AE97" points="333.183,390.465 352.9,390.465 352.713,395.83 332.997,395.83 			"/>
			<polygon opacity="0.8548" fill="#C5AD96" points="333.178,390.436 352.904,390.436 352.719,395.801 332.994,395.801 			"/>
			<polygon opacity="0.856" fill="#C4AC95" points="333.174,390.408 352.908,390.408 352.725,395.772 332.991,395.772 			"/>
			<polygon opacity="0.8571" fill="#C3AB94" points="333.169,390.379 352.913,390.379 352.731,395.742 332.987,395.742 			"/>
			<polygon opacity="0.8583" fill="#C2AA93" points="333.164,390.35 352.917,390.35 352.737,395.713 332.984,395.713 			"/>
			<polygon opacity="0.8595" fill="#C0A992" points="333.16,390.321 352.922,390.321 352.743,395.684 332.981,395.684 			"/>
			<polygon opacity="0.8607" fill="#BFA791" points="333.155,390.292 352.926,390.292 352.749,395.655 332.978,395.655 			"/>
			<polygon opacity="0.8619" fill="#BEA690" points="333.15,390.263 352.93,390.263 352.755,395.626 332.975,395.626 			"/>
			<polygon opacity="0.8631" fill="#BDA58F" points="333.146,390.234 352.935,390.234 352.761,395.597 332.972,395.597 			"/>
			<polygon opacity="0.8643" fill="#BCA48D" points="333.141,390.205 352.939,390.205 352.767,395.567 332.969,395.567 			"/>
			<polygon opacity="0.8655" fill="#BBA38C" points="333.137,390.176 352.943,390.176 352.772,395.538 332.966,395.538 			"/>
			<polygon opacity="0.8667" fill="#BAA28B" points="333.132,390.148 352.948,390.148 352.778,395.509 332.962,395.509 			"/>
			<polygon opacity="0.8679" fill="#B9A18A" points="333.127,390.119 352.952,390.119 352.784,395.48 332.959,395.48 			"/>
			<polygon opacity="0.869" fill="#B7A089" points="333.123,390.09 352.957,390.09 352.79,395.451 332.956,395.451 			"/>
			<polygon opacity="0.8702" fill="#B69F88" points="333.118,390.061 352.961,390.061 352.796,395.422 332.953,395.422 			"/>
			<polygon opacity="0.8714" fill="#B59E87" points="333.113,390.032 352.965,390.032 352.802,395.392 332.95,395.392 			"/>
			<polygon opacity="0.8726" fill="#B49D86" points="333.109,390.003 352.97,390.003 352.808,395.363 332.947,395.363 			"/>
			<polygon opacity="0.8738" fill="#B39B85" points="333.104,389.974 352.974,389.974 352.814,395.334 332.944,395.334 			"/>
			<polygon opacity="0.875" fill="#B29A84" points="333.099,389.945 352.978,389.945 352.82,395.305 332.94,395.305 			"/>
			<polygon opacity="0.8762" fill="#B19983" points="333.095,389.916 352.983,389.916 352.825,395.276 332.937,395.276 			"/>
			<polygon opacity="0.8774" fill="#AF9882" points="333.09,389.888 352.987,389.888 352.831,395.246 332.934,395.246 			"/>
			<polygon opacity="0.8786" fill="#AE9781" points="333.085,389.859 352.992,389.859 352.837,395.217 332.931,395.217 			"/>
			<polygon opacity="0.8798" fill="#AD9680" points="333.081,389.83 352.996,389.83 352.843,395.188 332.928,395.188 			"/>
			<polygon opacity="0.881" fill="#AC957F" points="333.076,389.801 353,389.801 352.849,395.159 332.925,395.159 			"/>
			<polygon opacity="0.8821" fill="#AB947D" points="333.072,389.772 353.005,389.772 352.855,395.13 332.922,395.13 			"/>
			<polygon opacity="0.8833" fill="#AA937C" points="333.067,389.743 353.009,389.743 352.861,395.101 332.919,395.101 			"/>
			<polygon opacity="0.8845" fill="#A9927B" points="333.062,389.714 353.014,389.714 352.867,395.071 332.915,395.071 			"/>
			<polygon opacity="0.8857" fill="#A8917A" points="333.058,389.685 353.018,389.685 352.873,395.042 332.912,395.042 			"/>
			<polygon opacity="0.8869" fill="#A68F79" points="333.053,389.656 353.022,389.656 352.879,395.013 332.909,395.013 			"/>
			<polygon opacity="0.8881" fill="#A58E78" points="333.048,389.628 353.027,389.628 352.884,394.984 332.906,394.984 			"/>
			<polygon opacity="0.8893" fill="#A48D77" points="333.044,389.599 353.031,389.599 352.89,394.955 332.903,394.955 			"/>
			<polygon opacity="0.8905" fill="#A38C76" points="333.039,389.57 353.035,389.57 352.896,394.926 332.9,394.926 			"/>
			<polygon opacity="0.8917" fill="#A28B75" points="333.034,389.541 353.04,389.541 352.902,394.896 332.897,394.896 			"/>
			<polygon opacity="0.8929" fill="#A18A74" points="333.03,389.512 353.044,389.512 352.908,394.867 332.894,394.867 			"/>
			<polygon opacity="0.894" fill="#A08973" points="333.025,389.483 353.049,389.483 352.914,394.838 332.89,394.838 			"/>
			<polygon opacity="0.8952" fill="#9F8872" points="333.02,389.454 353.053,389.454 352.92,394.809 332.887,394.809 			"/>
			<polygon opacity="0.8964" fill="#9D8771" points="333.016,389.425 353.057,389.425 352.926,394.78 332.884,394.78 			"/>
			<polygon opacity="0.8976" fill="#9C8670" points="333.011,389.396 353.062,389.396 352.932,394.751 332.881,394.751 			"/>
			<polygon opacity="0.8988" fill="#9B856F" points="333.007,389.368 353.066,389.368 352.937,394.721 332.878,394.721 			"/>
			<polygon opacity="0.9" fill="#9A836D" points="333.002,389.339 353.07,389.339 352.943,394.692 332.875,394.692 			"/>
			<polygon opacity="0.9012" fill="#99826C" points="332.997,389.31 353.075,389.31 352.949,394.663 332.872,394.663 			"/>
			<polygon opacity="0.9024" fill="#98816B" points="332.993,389.281 353.079,389.281 352.955,394.634 332.868,394.634 			"/>
			<polygon opacity="0.9036" fill="#97806A" points="332.988,389.252 353.084,389.252 352.961,394.605 332.865,394.605 			"/>
			<polygon opacity="0.9048" fill="#957F69" points="332.983,389.223 353.088,389.223 352.967,394.575 332.862,394.575 			"/>
			<polygon opacity="0.906" fill="#947E68" points="332.979,389.194 353.092,389.194 352.973,394.546 332.859,394.546 			"/>
			<polygon opacity="0.9071" fill="#937D67" points="332.974,389.165 353.097,389.165 352.979,394.517 332.856,394.517 			"/>
			<polygon opacity="0.9083" fill="#927C66" points="332.969,389.136 353.101,389.136 352.985,394.488 332.853,394.488 			"/>
			<polygon opacity="0.9095" fill="#917B65" points="332.965,389.108 353.105,389.108 352.99,394.459 332.85,394.459 			"/>
			<polygon opacity="0.9107" fill="#907A64" points="332.96,389.079 353.11,389.079 352.996,394.43 332.847,394.43 			"/>
			<polygon opacity="0.9119" fill="#8F7963" points="332.955,389.05 353.114,389.05 353.002,394.4 332.843,394.4 			"/>
			<polygon opacity="0.9131" fill="#8E7862" points="332.951,389.021 353.119,389.021 353.008,394.371 332.84,394.371 			"/>
			<polygon opacity="0.9143" fill="#8C7661" points="332.946,388.992 353.123,388.992 353.014,394.342 332.837,394.342 			"/>
			<polygon opacity="0.9155" fill="#8B7560" points="332.942,388.963 353.127,388.963 353.02,394.313 332.834,394.313 			"/>
			<polygon opacity="0.9167" fill="#8A745F" points="332.937,388.934 353.132,388.934 353.026,394.284 332.831,394.284 			"/>
			<polygon opacity="0.9179" fill="#89735E" points="332.932,388.905 353.136,388.905 353.032,394.255 332.828,394.255 			"/>
			<polygon opacity="0.919" fill="#88725C" points="332.928,388.876 353.141,388.876 353.038,394.225 332.825,394.225 			"/>
			<polygon opacity="0.9202" fill="#87715B" points="332.923,388.848 353.145,388.848 353.044,394.196 332.822,394.196 			"/>
			<polygon opacity="0.9214" fill="#86705A" points="332.918,388.819 353.149,388.819 353.049,394.167 332.818,394.167 			"/>
			<polygon opacity="0.9226" fill="#856F59" points="332.914,388.79 353.154,388.79 353.055,394.138 332.815,394.138 			"/>
			<polygon opacity="0.9238" fill="#836E58" points="332.909,388.761 353.158,388.761 353.061,394.109 332.812,394.109 			"/>
			<polygon opacity="0.925" fill="#826D57" points="332.904,388.732 353.162,388.732 353.067,394.079 332.809,394.079 			"/>
			<polygon opacity="0.9262" fill="#816C56" points="332.9,388.703 353.167,388.703 353.073,394.05 332.806,394.05 			"/>
			<polygon opacity="0.9274" fill="#806A55" points="332.895,388.674 353.171,388.674 353.079,394.021 332.803,394.021 			"/>
			<polygon opacity="0.9286" fill="#7F6954" points="332.891,388.645 353.176,388.645 353.085,393.992 332.8,393.992 			"/>
			<polygon opacity="0.9298" fill="#7E6853" points="332.886,388.616 353.18,388.616 353.091,393.963 332.797,393.963 			"/>
			<polygon opacity="0.931" fill="#7D6752" points="332.881,388.587 353.184,388.587 353.097,393.934 332.793,393.934 			"/>
			<polygon opacity="0.9321" fill="#7B6651" points="332.877,388.559 353.189,388.559 353.102,393.904 332.79,393.904 			"/>
			<polygon opacity="0.9333" fill="#7A6550" points="332.872,388.53 353.193,388.53 353.108,393.875 332.787,393.875 			"/>
			<polygon opacity="0.9345" fill="#79644F" points="332.867,388.501 353.197,388.501 353.114,393.846 332.784,393.846 			"/>
			<polygon opacity="0.9357" fill="#78634E" points="332.863,388.472 353.202,388.472 353.12,393.817 332.781,393.817 			"/>
			<polygon opacity="0.9369" fill="#77624C" points="332.858,388.443 353.206,388.443 353.126,393.788 332.778,393.788 			"/>
			<polygon opacity="0.9381" fill="#76614B" points="332.853,388.414 353.211,388.414 353.132,393.759 332.775,393.759 			"/>
			<polygon opacity="0.9393" fill="#75604A" points="332.849,388.385 353.215,388.385 353.138,393.729 332.772,393.729 			"/>
			<polygon opacity="0.9405" fill="#745E49" points="332.844,388.356 353.219,388.356 353.144,393.7 332.768,393.7 			"/>
			<polygon opacity="0.9417" fill="#725D48" points="332.839,388.328 353.224,388.328 353.15,393.671 332.765,393.671 			"/>
			<polygon opacity="0.9429" fill="#715C47" points="332.835,388.299 353.228,388.299 353.156,393.642 332.762,393.642 			"/>
			<polygon opacity="0.944" fill="#705B46" points="332.83,388.27 353.233,388.27 353.161,393.613 332.759,393.613 			"/>
			<polygon opacity="0.9452" fill="#6F5A45" points="332.826,388.241 353.237,388.241 353.167,393.583 332.756,393.583 			"/>
			<polygon opacity="0.9464" fill="#6E5944" points="332.821,388.212 353.241,388.212 353.173,393.554 332.753,393.554 			"/>
			<polygon opacity="0.9476" fill="#6D5843" points="332.816,388.183 353.246,388.183 353.179,393.525 332.75,393.525 			"/>
			<polygon opacity="0.9488" fill="#6C5742" points="332.812,388.154 353.25,388.154 353.185,393.496 332.746,393.496 			"/>
			<polygon opacity="0.95" fill="#6B5641" points="332.807,388.125 353.254,388.125 353.191,393.467 332.743,393.467 			"/>
			<polygon opacity="0.9512" fill="#695540" points="332.802,388.096 353.259,388.096 353.197,393.438 332.74,393.438 			"/>
			<polygon opacity="0.9524" fill="#68543F" points="332.798,388.068 353.263,388.068 353.203,393.408 332.737,393.408 			"/>
			<polygon opacity="0.9536" fill="#67523E" points="332.793,388.039 353.268,388.039 353.209,393.379 332.734,393.379 			"/>
			<polygon opacity="0.9548" fill="#66513C" points="332.788,388.01 353.272,388.01 353.214,393.35 332.731,393.35 			"/>
			<polygon opacity="0.956" fill="#65503B" points="332.784,387.981 353.276,387.981 353.22,393.321 332.728,393.321 			"/>
			<polygon opacity="0.9571" fill="#644F3A" points="332.779,387.952 353.281,387.952 353.226,393.292 332.725,393.292 			"/>
			<polygon opacity="0.9583" fill="#634E39" points="332.774,387.923 353.285,387.923 353.232,393.263 332.721,393.263 			"/>
			<polygon opacity="0.9595" fill="#614D38" points="332.77,387.894 353.289,387.894 353.238,393.233 332.718,393.233 			"/>
			<polygon opacity="0.9607" fill="#604C37" points="332.765,387.865 353.294,387.865 353.244,393.204 332.715,393.204 			"/>
			<polygon opacity="0.9619" fill="#5F4B36" points="332.76,387.836 353.298,387.836 353.25,393.175 332.712,393.175 			"/>
			<polygon opacity="0.9631" fill="#5E4A35" points="332.756,387.807 353.303,387.807 353.256,393.146 332.709,393.146 			"/>
			<polygon opacity="0.9643" fill="#5D4934" points="332.751,387.779 353.307,387.779 353.262,393.117 332.706,393.117 			"/>
			<polygon opacity="0.9655" fill="#5C4833" points="332.747,387.75 353.311,387.75 353.267,393.088 332.703,393.088 			"/>
			<polygon opacity="0.9667" fill="#5B4732" points="332.742,387.721 353.316,387.721 353.273,393.058 332.7,393.058 			"/>
			<polygon opacity="0.9679" fill="#5A4531" points="332.737,387.692 353.32,387.692 353.279,393.029 332.696,393.029 			"/>
			<polygon opacity="0.969" fill="#584430" points="332.733,387.663 353.325,387.663 353.285,393 332.693,393 			"/>
			<polygon opacity="0.9702" fill="#57432F" points="332.728,387.634 353.329,387.634 353.291,392.971 332.69,392.971 			"/>
			<polygon opacity="0.9714" fill="#56422E" points="332.723,387.605 353.333,387.605 353.297,392.942 332.687,392.942 			"/>
			<polygon opacity="0.9726" fill="#55412D" points="332.719,387.576 353.338,387.576 353.303,392.912 332.684,392.912 			"/>
			<polygon opacity="0.9738" fill="#54402B" points="332.714,387.547 353.342,387.547 353.309,392.883 332.681,392.883 			"/>
			<polygon opacity="0.975" fill="#533F2A" points="332.709,387.519 353.346,387.519 353.315,392.854 332.678,392.854 			"/>
			<polygon opacity="0.9762" fill="#523E29" points="332.705,387.49 353.351,387.49 353.321,392.825 332.675,392.825 			"/>
			<polygon opacity="0.9774" fill="#503D28" points="332.7,387.461 353.355,387.461 353.326,392.796 332.671,392.796 			"/>
			<polygon opacity="0.9786" fill="#4F3C27" points="332.696,387.432 353.36,387.432 353.332,392.767 332.668,392.767 			"/>
			<polygon opacity="0.9798" fill="#4E3B26" points="332.691,387.403 353.364,387.403 353.338,392.737 332.665,392.737 			"/>
			<polygon opacity="0.981" fill="#4D3925" points="332.686,387.374 353.368,387.374 353.344,392.708 332.662,392.708 			"/>
			<polygon opacity="0.9821" fill="#4C3824" points="332.682,387.345 353.373,387.345 353.35,392.679 332.659,392.679 			"/>
			<polygon opacity="0.9833" fill="#4B3723" points="332.677,387.316 353.377,387.316 353.356,392.65 332.656,392.65 			"/>
			<polygon opacity="0.9845" fill="#4A3622" points="332.672,387.287 353.381,387.287 353.362,392.621 332.653,392.621 			"/>
			<polygon opacity="0.9857" fill="#493521" points="332.668,387.259 353.386,387.259 353.368,392.592 332.65,392.592 			"/>
			<polygon opacity="0.9869" fill="#473420" points="332.663,387.23 353.39,387.23 353.374,392.562 332.646,392.562 			"/>
			<polygon opacity="0.9881" fill="#46331F" points="332.658,387.201 353.395,387.201 353.379,392.533 332.643,392.533 			"/>
			<polygon opacity="0.9893" fill="#45321E" points="332.654,387.172 353.399,387.172 353.385,392.504 332.64,392.504 			"/>
			<polygon opacity="0.9905" fill="#44311D" points="332.649,387.143 353.403,387.143 353.391,392.475 332.637,392.475 			"/>
			<polygon opacity="0.9917" fill="#43301B" points="332.644,387.114 353.408,387.114 353.397,392.446 332.634,392.446 			"/>
			<polygon opacity="0.9929" fill="#422F1A" points="332.64,387.085 353.412,387.085 353.403,392.417 332.631,392.417 			"/>
			<polygon opacity="0.994" fill="#412D19" points="332.635,387.056 353.417,387.056 353.409,392.387 332.628,392.387 			"/>
			<polygon opacity="0.9952" fill="#402C18" points="332.631,387.027 353.421,387.027 353.415,392.358 332.624,392.358 			"/>
			<rect x="332.624" y="386.999" opacity="0.9964" fill="#3E2B17" width="20.799" height="5.33"/>
			<rect x="332.62" y="386.97" opacity="0.9976" fill="#3D2A16" width="20.808" height="5.33"/>
			<rect x="332.616" y="386.941" opacity="0.9988" fill="#3C2915" width="20.817" height="5.33"/>
			<rect x="332.612" y="386.912" fill="#3B2814" width="20.826" height="5.33"/>
		</g>
		<path d="M350.152,358.119l-1.884,0.488c-0.113,0.627-0.221,1.265-0.324,1.91c-0.495,3.102-0.859,6.325-0.919,8.833
			c-0.067,2.835,0.937,5.529,2.1,8.647c1.502,4.03,3.373,9.044,3.373,16.11v5.695h-7.794h-3.722h-7.795v-5.695
			c0-7.066,1.87-12.081,3.373-16.11c1.163-3.118,2.168-5.812,2.1-8.647c-0.055-2.297-0.366-5.193-0.798-8.048l-3.627,0.939
			c0.377,2.553,0.655,5.136,0.704,7.198c0.05,2.118-0.796,4.386-1.866,7.258c-1.608,4.31-3.608,9.673-3.608,17.411v7.556
			c0,1.028,0.833,1.861,1.861,1.861h9.656h3.722h9.655c1.028,0,1.861-0.833,1.861-1.861v-7.556c0-7.737-2-13.101-3.608-17.411
			c-1.071-2.872-1.917-5.14-1.866-7.258c0.072-3.012,0.629-7.139,1.276-10.656c0.076-0.413,0.153-0.815,0.231-1.208L350.152,358.119
			"/>
		<circle fill="none" stroke="#EFC39E" stroke-miterlimit="10" cx="350.144" cy="407.104" r="1.668"/>
		<circle fill="none" stroke="#EFC39E" stroke-miterlimit="10" cx="338.999" cy="411.692" r="1.424"/>
		
			<ellipse transform="matrix(0.9539 -0.3 0.3 0.9539 -109.0495 123.23)" fill="none" stroke="#EFC39E" stroke-width="0.75" stroke-miterlimit="10" cx="346.808" cy="416.765" rx="1.668" ry="1.668"/>
		<circle fill="none" stroke="#EFC39E" stroke-width="0.5" stroke-miterlimit="10" cx="338.592" cy="425.199" r="0.896"/>
	</g>
	<path fill="none" stroke="#000000" stroke-miterlimit="10" d="M86.886,321.138"/>
	<g>
		<path d="M383.367,582.068l5.001-4.856c1.56,0.083,3.189,0.361,4.89,0.834c1.701,0.473,3.426,1.125,5.176,1.955
			c1.75,0.831,4.085,2.25,7.005,4.258c4.231,0.763,7.719,2.772,10.465,6.026c2.747,3.253,4.119,7.006,4.119,11.256
			c0,5.196-1.767,9.496-5.301,12.899s-8.005,5.105-13.413,5.105c-5.375,0-9.842-1.689-13.401-5.068
			c-3.559-3.378-5.338-7.624-5.338-12.737c0-4.3,1.344-8.077,4.032-11.331s6.164-5.304,10.428-6.151l-1.319-0.498
			c-4.098-1.577-7.051-2.366-8.86-2.366C385.855,581.395,384.694,581.619,383.367,582.068z M401.309,614.814
			c3.914,0,7.148-1.262,9.703-3.785c2.555-2.524,3.832-5.703,3.832-9.538c0-3.735-1.285-6.844-3.856-9.326
			c-2.571-2.482-5.797-3.723-9.678-3.723c-3.832,0-7.058,1.27-9.678,3.81c-2.62,2.54-3.931,5.669-3.931,9.388
			c0,3.801,1.286,6.948,3.856,9.438C394.127,613.569,397.378,614.814,401.309,614.814z"/>
	</g>
	<path fill="none" stroke="#000000" stroke-miterlimit="10" d="M363.884,431.707"/>
	<path fill="none" stroke="#000000" stroke-miterlimit="10" d="M87.737,433.033"/>
	<path fill="none" stroke="#000000" stroke-miterlimit="10" d="M363.884,318.552"/>
	<g>
		<path fill="none" stroke="#000000" stroke-width="4" stroke-linejoin="bevel" stroke-miterlimit="10" d="M360.172,319.825
			c-59.622,0-119.244,0-178.867,0c-28.338,0-63.761,0.553-92.099,0.465c0,0,1.383,4.257,1.383,13.454
			c0,13.069-1.141,26.609,0.616,39.589c4.291,31.705,15.789,58.64,35.558,83.63c10.525,13.305,22.395,26.684,37.309,35.03
			c11.809,6.608,25.884,11.976,38.548,16.645c-0.145-7.762,0.145-16.451,0-24.213"/>
		
			<line fill="none" stroke="#000000" stroke-width="4" stroke-linecap="round" stroke-miterlimit="10" x1="202.62" y1="508.639" x2="202.62" y2="542.03"/>
		<path fill="none" stroke="#000000" stroke-width="4" stroke-linecap="round" stroke-miterlimit="10" d="M202.818,542.03
			c4.655-16.15,20.958-16.115,25.637,0"/>
		<path fill="none" stroke="#000000" stroke-width="4" stroke-miterlimit="10" d="M279.137,478.344
			c13.836-32.852,28.262-67.518,42.097-100.371c-24.378,15.265-38.769,47.021-42.167,75.073"/>
		<path fill="none" stroke="#000000" stroke-width="4" stroke-miterlimit="10" d="M321.234,377.973
			c1.77-3.434,6.894-9.754,6.959-13.501c0.048-2.715-2.865-6.425-3.167-10.442c-0.843-11.22,0.01-22.809-0.035-34.072"/>
		<path fill="none" stroke="#000000" stroke-width="4" stroke-linecap="round" stroke-miterlimit="10" d="M360.172,319.959
			c0,29.439,3.185,43.429-32.093,43.429"/>
		
			<line fill="none" stroke="#000000" stroke-width="4" stroke-miterlimit="10" x1="325.123" y1="352.015" x2="338.647" y2="352.015"/>
		
			<line fill="none" stroke="#000000" stroke-width="4" stroke-miterlimit="10" x1="324.992" y1="341.872" x2="338.647" y2="341.872"/>
		
			<line fill="none" stroke="#000000" stroke-width="4" stroke-miterlimit="10" x1="324.992" y1="330.521" x2="338.647" y2="330.521"/>
		<path fill="none" stroke="#000000" stroke-width="4" stroke-miterlimit="10" d="M198.698,391.972
			c12.764-13.214,28.544-18.928,46.883-16.799c10.823,1.256,29.67,7.394,34.146,18.298"/>
		<path fill="none" stroke="#000000" stroke-width="4" stroke-miterlimit="10" d="M235.187,498.726
			c0-5.613,1.211-11.827-1.59-16.858c-3.9-7.007-14.481-9.166-20.453-3.307"/>
		<path fill="none" stroke="#000000" stroke-width="4" stroke-miterlimit="10" d="M264.818,498.726c0,0-2.97-22.796,13.636-22.196"
			/>
		
			<line fill="none" stroke="#000000" stroke-width="4" stroke-linecap="round" stroke-miterlimit="10" x1="217.689" y1="450.06" x2="205.528" y2="461.672"/>
		<path fill="none" stroke="#000000" stroke-width="4" stroke-miterlimit="10" d="M252.081,319.815
			c-4.508,9.329-9.016,18.658-13.524,27.986c-3.919-9.329-7.839-18.658-11.758-27.986"/>
		
			<line fill="none" stroke="#000000" stroke-width="4" stroke-miterlimit="10" x1="267.505" y1="320.149" x2="251.191" y2="352.649"/>
		
			<line fill="none" stroke="#000000" stroke-width="4" stroke-miterlimit="10" x1="227.039" y1="352.353" x2="213.726" y2="319.815"/>
		<path fill="none" stroke="#000000" stroke-width="4" stroke-miterlimit="10" d="M253.263,455.866
			c0.251-8.78,3.479-18.367,10.477-24.037c-3.007-1.895-6.014-3.79-9.021-5.686"/>
		<path stroke="#000000" stroke-miterlimit="10" d="M264.484,450.925c-0.683-2.915,2.202-5.43,5.16-4.052
			c0.655,0.305,1.196,0.846,1.501,1.501c1.378,2.959-1.137,5.843-4.052,5.16C265.809,453.233,264.784,452.209,264.484,450.925z"/>
		<path stroke="#000000" stroke-miterlimit="10" d="M232.002,450.925c-0.683-2.915,2.202-5.43,5.16-4.052
			c0.655,0.305,1.196,0.846,1.501,1.501c1.378,2.959-1.137,5.843-4.052,5.16C233.327,453.233,232.303,452.209,232.002,450.925z"/>
		<g>
			<path stroke="#000000" stroke-miterlimit="10" d="M260.654,416.809c0-0.841-0.256-1.725-0.841-2.615
				c-0.667-1.016-1.85-1.854-3.282-2.327c-5.818-1.921-11.484,1.041-11.487,4.942H260.654z"/>
		</g>
		<path fill="none" stroke="#000000" stroke-width="4" stroke-linecap="round" stroke-miterlimit="10" d="M228.454,542.03
			c4.655-16.15,20.958-16.115,25.637,0"/>
		<path fill="none" stroke="#000000" stroke-width="4" stroke-linecap="round" stroke-miterlimit="10" d="M254.091,541.996
			c4.655-16.15,20.958-16.115,25.637,0"/>
		<path fill="none" stroke="#000000" stroke-width="4" stroke-linecap="round" stroke-miterlimit="10" d="M279.727,541.646
			c-0.251-26.867-0.501-53.734-0.752-80.601c-0.122-13.038,1.461-27.371-0.376-40.29c-1.262-8.881-12.208-17.772-18.873-23.812
			c-10.916-9.891-23.826,5.005-32.928,11.705"/>
		<path fill="none" stroke="#000000" stroke-width="4" stroke-miterlimit="10" d="M205.528,463.461"/>
		<path fill="none" stroke="#000000" stroke-width="4" stroke-linecap="round" stroke-miterlimit="10" d="M201.496,465.297
			c3.273-4.765,20.323-5.138,25.302-4.329c10.186,1.656,19.407,10.438,23.934,19.385c3.264-11.831,16.132-19.385,27.722-19.385"/>
		<path fill="none" stroke="#000000" stroke-width="4" stroke-miterlimit="10" d="M250.732,480.353"/>
		<path fill="none" stroke="#000000" stroke-width="4" stroke-miterlimit="10" d="M90.596,344.404
			c42.316,52.76,84.037,106.057,126.974,158.312c13.523,16.458,46.167,18.54,60.885,1.506"/>
		<path fill="none" stroke="#000000" stroke-width="4" stroke-linecap="round" stroke-miterlimit="10" d="M177.696,434.034
			c2.232-20.519-7.299-42.65-21.422-56.598c-10.502-10.372-25.513-22.283-41.05-21.874"/>
		<path fill="none" stroke="#000000" stroke-width="4" stroke-miterlimit="10" d="M98.834,334.973
			c28.244,0.419,52.693,14.798,72.097,34.616c20.949,21.396,27.195,54.793,22.29,83.945"/>
		<path fill="none" stroke="#000000" stroke-width="4" stroke-linecap="round" stroke-miterlimit="10" d="M202.295,463.829
			c5.096-4.922,5.801-10.572,5.801-17.695c0-6.834,0.81-14.199,0-20.989c-1.943-16.282-8.76-34.916-15.946-49.518
			c-17.627-35.816-63.247-56.396-101.555-55.801"/>
		<path fill="none" stroke="#000000" stroke-width="4" stroke-miterlimit="10" d="M190.295,367.744
			c30.973-28.609,80.477-15.901,108.787,9.494c-10.805,9.063-21.611,18.126-32.416,27.189"/>
		<path fill="none" stroke="#000000" stroke-width="4" stroke-miterlimit="10" d="M324.992,354.672
			c-9.12,7.943-18.898,15.49-27.347,24.136c-8.287,8.479-21.123,21.255-23.546,33.636"/>
		<path fill="none" stroke="#000000" stroke-width="4" stroke-miterlimit="10" d="M250.732,481.587v20.787
			c-2.041,0.198-4.056,0.139-6.044-0.146c-23.372-3.354-42.936-37.977-55.374-53.601c-26.361-33.113-52.722-66.226-79.084-99.339
			c-6.545-8.221-13.09-19.429-19.634-27.65"/>
		<path fill="none" stroke="#000000" stroke-width="4" stroke-miterlimit="10" d="M250.732,502.374
			c2.041,0.198,16.053,0.872,28.491-14.752"/>
	</g>
	<path fill="none" stroke="#000000" stroke-miterlimit="10" d="M363.912,431.282"/>
	<path fill="none" stroke="#000000" stroke-miterlimit="10" d="M363.912,318.127"/>
	<path fill="none" stroke="#000000" stroke-miterlimit="10" d="M86.915,320.713"/>
	<path d="M390.015,562.448c3.917,2.912,7.964,5.924,10.534,9.44l-0.021,0.029l0.092,0.067l0.066,0.092l0.03-0.022l0.03,0.022
		l0.066-0.092l0.092-0.067l-0.021-0.029c2.571-3.516,6.618-6.528,10.534-9.44c7.67-5.703,15.601-11.601,12.771-21.562
		c-1.57-5.527-5.901-9.258-11.033-9.506c-4.906-0.242-9.256,2.735-11.517,7.806c0.304-5.399,1.104-10.867,5.511-14.434l0.298-0.241
		h-6.596h-0.271h-6.596l0.298,0.241c4.407,3.567,5.206,9.035,5.511,14.434c-2.261-5.07-6.622-8.048-11.517-7.806
		c-5.132,0.248-9.463,3.98-11.033,9.506C374.414,550.847,382.345,556.744,390.015,562.448z"/>
	<path d="M310.191,530.445c5.311,3.949,10.8,8.033,14.285,12.801l-0.028,0.039l0.125,0.091l0.09,0.124l0.041-0.029l0.041,0.029
		l0.09-0.124l0.125-0.091l-0.028-0.039c3.486-4.769,8.974-8.852,14.285-12.801c10.401-7.734,21.156-15.732,17.318-29.239
		c-2.129-7.495-8.002-12.554-14.961-12.891c-6.653-0.328-12.552,3.709-15.618,10.585c0.412-7.322,1.496-14.736,7.473-19.573
		l0.404-0.326h-8.944h-0.367h-8.944l0.404,0.326c5.976,4.838,7.06,12.251,7.473,19.573c-3.066-6.876-8.979-10.913-15.618-10.585
		c-6.96,0.337-12.832,5.397-14.96,12.891C289.036,514.714,299.791,522.711,310.191,530.445z"/>
	<path d="M278.27,552.752c0.507,0.377,1.031,0.767,1.364,1.222l-0.003,0.004l0.012,0.009l0.009,0.012l0.004-0.003l0.004,0.003
		l0.009-0.012l0.012-0.009l-0.003-0.004c0.333-0.455,0.857-0.845,1.364-1.222c0.993-0.738,2.02-1.502,1.653-2.791
		c-0.203-0.715-0.764-1.198-1.428-1.231c-0.635-0.031-1.198,0.354-1.491,1.01c0.039-0.699,0.143-1.407,0.713-1.869l0.039-0.031
		h-0.854h-0.035h-0.854l0.039,0.031c0.57,0.462,0.674,1.17,0.713,1.869c-0.293-0.656-0.857-1.042-1.491-1.01
		c-0.664,0.032-1.225,0.515-1.428,1.231C276.25,551.25,277.277,552.014,278.27,552.752z"/>
	<path d="M252.706,552.752c0.507,0.377,1.031,0.767,1.364,1.222l-0.003,0.004l0.012,0.009l0.009,0.012l0.004-0.003l0.004,0.003
		l0.009-0.012l0.012-0.009l-0.003-0.004c0.333-0.455,0.857-0.845,1.364-1.222c0.993-0.738,2.02-1.502,1.653-2.791
		c-0.203-0.715-0.764-1.198-1.428-1.231c-0.635-0.031-1.198,0.354-1.491,1.01c0.039-0.699,0.143-1.407,0.713-1.869l0.039-0.031
		h-0.854h-0.035h-0.854l0.039,0.031c0.571,0.462,0.674,1.17,0.713,1.869c-0.293-0.656-0.857-1.042-1.491-1.01
		c-0.664,0.032-1.225,0.515-1.428,1.231C250.686,551.25,251.713,552.014,252.706,552.752z"/>
	<path d="M227.141,552.752c0.507,0.377,1.031,0.767,1.364,1.222l-0.003,0.004l0.012,0.009l0.009,0.012l0.004-0.003l0.004,0.003
		l0.009-0.012l0.012-0.009l-0.003-0.004c0.333-0.455,0.857-0.845,1.364-1.222c0.993-0.738,2.02-1.502,1.653-2.791
		c-0.203-0.715-0.764-1.198-1.428-1.231c-0.635-0.031-1.198,0.354-1.491,1.01c0.039-0.699,0.143-1.407,0.713-1.869l0.039-0.031
		h-0.854h-0.035h-0.854l0.039,0.031c0.571,0.462,0.674,1.17,0.713,1.869c-0.293-0.656-0.857-1.042-1.491-1.01
		c-0.664,0.032-1.225,0.515-1.428,1.231C225.121,551.25,226.148,552.014,227.141,552.752z"/>
	<path d="M201.576,552.752c0.507,0.377,1.031,0.767,1.364,1.222l-0.003,0.004l0.012,0.009l0.009,0.012l0.004-0.003l0.004,0.003
		l0.009-0.012l0.012-0.009l-0.003-0.004c0.333-0.455,0.857-0.845,1.364-1.222c0.993-0.738,2.02-1.502,1.653-2.791
		c-0.203-0.715-0.764-1.198-1.428-1.231c-0.635-0.031-1.198,0.354-1.491,1.01c0.039-0.699,0.143-1.407,0.713-1.869l0.039-0.031
		h-0.854h-0.035h-0.854l0.039,0.031c0.571,0.462,0.674,1.17,0.713,1.869c-0.293-0.656-0.857-1.042-1.491-1.01
		c-0.664,0.032-1.225,0.515-1.428,1.231C199.557,551.25,200.583,552.014,201.576,552.752z"/>
</g>
</svg>
