<?xml version="1.0" encoding="utf-8"?>
<!-- Generator: Adobe Illustrator 23.0.1, SVG Export Plug-In . SVG Version: 6.00 Build 0)  -->
<svg version="1.1" id="Layer_1" xmlns="http://www.w3.org/2000/svg" xmlns:xlink="http://www.w3.org/1999/xlink" x="0px" y="0px"
	 viewBox="0 0 449.975 639.231" enable-background="new 0 0 449.975 639.231" xml:space="preserve">
<g>
	<path fill="none" stroke="#000000" stroke-miterlimit="10" d="M362.79,318.116"/>
	<g>
		<path d="M66.309,57.186l-5.001,4.856c-1.56-0.083-3.189-0.361-4.89-0.834s-3.426-1.125-5.176-1.955
			c-1.75-0.831-4.085-2.25-7.005-4.258c-4.231-0.763-7.719-2.772-10.465-6.026c-2.747-3.253-4.119-7.006-4.119-11.256
			c0-5.196,1.767-9.496,5.301-12.899s8.005-5.105,13.413-5.105c5.375,0,9.842,1.689,13.401,5.068
			c3.559,3.378,5.338,7.624,5.338,12.737c0,4.3-1.344,8.077-4.032,11.331s-6.164,5.304-10.428,6.151l1.319,0.498
			c4.098,1.577,7.051,2.366,8.86,2.366C63.821,57.859,64.982,57.635,66.309,57.186z M48.367,24.44c-3.914,0-7.148,1.262-9.703,3.785
			c-2.555,2.524-3.832,5.703-3.832,9.538c0,3.735,1.285,6.844,3.856,9.326s5.797,3.723,9.678,3.723c3.832,0,7.058-1.27,9.678-3.81
			s3.931-5.669,3.931-9.388c0-3.801-1.286-6.948-3.856-9.438C55.549,25.685,52.298,24.44,48.367,24.44z"/>
	</g>
	<path fill="none" stroke="#000000" stroke-miterlimit="10" d="M85.792,207.547"/>
	<path fill="none" stroke="#000000" stroke-miterlimit="10" d="M85.792,320.702"/>
	<g>
		<path fill="none" stroke="#000000" stroke-width="4" stroke-linejoin="bevel" stroke-miterlimit="10" d="M89.504,319.429
			c59.622,0,119.244,0,178.867,0c28.338,0,63.761-0.553,92.099-0.465c0,0-1.383-4.257-1.383-13.454
			c0-13.069,1.141-26.609-0.616-39.589c-4.291-31.705-15.789-58.64-35.558-83.63c-10.525-13.305-22.395-26.684-37.309-35.03
			c-11.809-6.608-25.884-11.976-38.548-16.645c0.145,7.762-0.145,16.451,0,24.213"/>
		
			<line fill="none" stroke="#000000" stroke-width="4" stroke-linecap="round" stroke-miterlimit="10" x1="247.056" y1="130.615" x2="247.056" y2="97.224"/>
		<path fill="none" stroke="#000000" stroke-width="4" stroke-linecap="round" stroke-miterlimit="10" d="M246.858,97.224
			c-4.655,16.15-20.958,16.115-25.637,0"/>
		<path fill="none" stroke="#000000" stroke-width="4" stroke-miterlimit="10" d="M170.539,160.91
			c-13.836,32.852-28.262,67.518-42.097,100.371c24.378-15.265,38.769-47.021,42.167-75.073"/>
		<path fill="none" stroke="#000000" stroke-width="4" stroke-miterlimit="10" d="M128.442,261.281
			c-1.77,3.434-6.894,9.754-6.959,13.501c-0.048,2.715,2.865,6.425,3.167,10.442c0.843,11.22-0.01,22.809,0.035,34.072"/>
		<path fill="none" stroke="#000000" stroke-width="4" stroke-linecap="round" stroke-miterlimit="10" d="M89.504,319.295
			c0-29.439-3.185-43.429,32.093-43.429"/>
		
			<line fill="none" stroke="#000000" stroke-width="4" stroke-miterlimit="10" x1="124.553" y1="287.239" x2="111.029" y2="287.239"/>
		
			<line fill="none" stroke="#000000" stroke-width="4" stroke-miterlimit="10" x1="124.684" y1="297.382" x2="111.029" y2="297.382"/>
		
			<line fill="none" stroke="#000000" stroke-width="4" stroke-miterlimit="10" x1="124.684" y1="308.733" x2="111.029" y2="308.733"/>
		<path fill="none" stroke="#000000" stroke-width="4" stroke-miterlimit="10" d="M250.978,247.282
			c-12.764,13.214-28.544,18.928-46.883,16.799c-10.823-1.256-29.67-7.394-34.146-18.298"/>
		<path fill="none" stroke="#000000" stroke-width="4" stroke-miterlimit="10" d="M214.489,140.528
			c0,5.613-1.211,11.827,1.59,16.858c3.9,7.007,14.481,9.166,20.453,3.307"/>
		<path fill="none" stroke="#000000" stroke-width="4" stroke-miterlimit="10" d="M184.858,140.528c0,0,2.97,22.796-13.636,22.196"
			/>
		
			<line fill="none" stroke="#000000" stroke-width="4" stroke-linecap="round" stroke-miterlimit="10" x1="231.987" y1="189.194" x2="244.148" y2="177.582"/>
		<path fill="none" stroke="#000000" stroke-width="4" stroke-miterlimit="10" d="M197.595,319.439
			c4.508-9.329,9.016-18.658,13.524-27.986c3.919,9.329,7.839,18.658,11.758,27.986"/>
		
			<line fill="none" stroke="#000000" stroke-width="4" stroke-miterlimit="10" x1="182.171" y1="319.105" x2="198.485" y2="286.605"/>
		
			<line fill="none" stroke="#000000" stroke-width="4" stroke-miterlimit="10" x1="222.637" y1="286.901" x2="235.95" y2="319.439"/>
		<path fill="none" stroke="#000000" stroke-width="4" stroke-miterlimit="10" d="M196.413,183.388
			c-0.251,8.78-3.479,18.367-10.477,24.037c3.007,1.895,6.014,3.79,9.021,5.686"/>
		<path stroke="#000000" stroke-miterlimit="10" d="M185.192,188.329c0.683,2.915-2.202,5.43-5.16,4.052
			c-0.655-0.305-1.196-0.846-1.501-1.501c-1.378-2.959,1.137-5.843,4.052-5.16C183.867,186.021,184.892,187.045,185.192,188.329z"/>
		<path stroke="#000000" stroke-miterlimit="10" d="M217.674,188.329c0.683,2.915-2.202,5.43-5.16,4.052
			c-0.655-0.305-1.196-0.846-1.501-1.501c-1.378-2.959,1.137-5.843,4.052-5.16C216.349,186.021,217.373,187.045,217.674,188.329z"/>
		<g>
			<path stroke="#000000" stroke-miterlimit="10" d="M189.022,222.445c0,0.841,0.256,1.725,0.841,2.615
				c0.667,1.016,1.85,1.854,3.282,2.327c5.818,1.921,11.484-1.041,11.487-4.942H189.022z"/>
		</g>
		<path fill="none" stroke="#000000" stroke-width="4" stroke-linecap="round" stroke-miterlimit="10" d="M221.222,97.224
			c-4.655,16.15-20.958,16.115-25.637,0"/>
		<path fill="none" stroke="#000000" stroke-width="4" stroke-linecap="round" stroke-miterlimit="10" d="M195.585,97.258
			c-4.655,16.15-20.958,16.115-25.637,0"/>
		<path fill="none" stroke="#000000" stroke-width="4" stroke-linecap="round" stroke-miterlimit="10" d="M169.949,97.608
			c0.251,26.867,0.501,53.734,0.752,80.601c0.122,13.038-1.461,27.371,0.376,40.29c1.262,8.881,12.208,17.772,18.873,23.812
			c10.916,9.891,23.826-5.005,32.928-11.705"/>
		<path fill="none" stroke="#000000" stroke-width="4" stroke-miterlimit="10" d="M244.148,175.793"/>
		<path fill="none" stroke="#000000" stroke-width="4" stroke-linecap="round" stroke-miterlimit="10" d="M248.18,173.957
			c-3.273,4.765-20.323,5.138-25.302,4.329c-10.186-1.656-19.407-10.438-23.934-19.385c-3.264,11.831-16.132,19.385-27.722,19.385"
			/>
		<path fill="none" stroke="#000000" stroke-width="4" stroke-miterlimit="10" d="M198.944,158.901"/>
		<path fill="none" stroke="#000000" stroke-width="4" stroke-miterlimit="10" d="M359.08,294.85
			c-42.316-52.76-84.037-106.057-126.974-158.312c-13.523-16.458-46.167-18.54-60.885-1.506"/>
		<path fill="none" stroke="#000000" stroke-width="4" stroke-linecap="round" stroke-miterlimit="10" d="M271.98,205.22
			c-2.232,20.519,7.299,42.65,21.422,56.598c10.502,10.372,25.513,22.283,41.05,21.874"/>
		<path fill="none" stroke="#000000" stroke-width="4" stroke-miterlimit="10" d="M350.842,304.281
			c-28.244-0.419-52.693-14.798-72.097-34.616c-20.949-21.396-27.195-54.793-22.29-83.945"/>
		<path fill="none" stroke="#000000" stroke-width="4" stroke-linecap="round" stroke-miterlimit="10" d="M247.381,175.425
			c-5.096,4.922-5.801,10.572-5.801,17.695c0,6.834-0.81,14.199,0,20.989c1.943,16.282,8.76,34.916,15.946,49.518
			c17.627,35.816,63.247,56.396,101.555,55.801"/>
		<path fill="none" stroke="#000000" stroke-width="4" stroke-miterlimit="10" d="M259.381,271.51
			c-30.973,28.609-80.477,15.901-108.787-9.494c10.805-9.063,21.611-18.126,32.416-27.189"/>
		<path fill="none" stroke="#000000" stroke-width="4" stroke-miterlimit="10" d="M124.684,284.582
			c9.12-7.943,18.898-15.49,27.347-24.136c8.287-8.479,21.123-21.255,23.546-33.636"/>
		<path fill="none" stroke="#000000" stroke-width="4" stroke-miterlimit="10" d="M198.944,157.667V136.88
			c2.041-0.198,4.056-0.139,6.044,0.146c23.372,3.354,42.936,37.977,55.374,53.601c26.361,33.113,52.722,66.226,79.084,99.339
			c6.545,8.221,13.09,19.429,19.634,27.65"/>
		<path fill="none" stroke="#000000" stroke-width="4" stroke-miterlimit="10" d="M198.944,136.88
			c-2.041-0.198-16.053-0.872-28.491,14.752"/>
	</g>
	<path fill="none" stroke="#000000" stroke-miterlimit="10" d="M85.764,321.127"/>
	<path fill="none" stroke="#000000" stroke-miterlimit="10" d="M362.761,318.541"/>
	<path d="M154.803,122.883c-1.749-2.334-4.178-3.674-7.219-3.982c-2.332-0.237-5.057,1.375-7.25,2.668
		c-0.773,0.456-1.77,1.044-2.363,1.278c0.03-0.239,0.102-0.607,0.264-1.155c0.489-1.65,1.342-3.117,2.167-4.534
		c2.055-3.534,4.18-7.189,0.144-13.023c-2.33-3.368-7.094-5.24-14.563-5.72l-0.954-0.062v-0.007l-0.057,0.003l-0.057-0.003v0.007
		l-0.954,0.062c-7.469,0.481-12.233,2.352-14.563,5.72c-4.036,5.834-1.911,9.488,0.144,13.023c0.825,1.418,1.677,2.884,2.167,4.535
		c0.162,0.548,0.234,0.915,0.264,1.155c-0.594-0.234-1.591-0.822-2.363-1.278c-2.193-1.294-4.916-2.905-7.25-2.668
		c-3.041,0.309-5.47,1.649-7.219,3.982c-3.145,4.196-3.327,10.757-2.45,15.498c1.29,6.968,5.282,11.662,10.953,12.881
		c0.936,0.201,1.879,0.299,2.822,0.299c5.176,0,10.331-2.963,13.946-8.175c0.602-0.868,1.069-1.731,1.481-2.492
		c0.201-0.372,0.449-0.83,0.655-1.155c0.134,0.257,0.322,0.679,0.561,1.346l0.012,5.709c-1.174,4.564-4.598,9.263-7.4,11.564
		l-2.17,1.783h11.233h0.376h11.233l-2.17-1.783c-2.802-2.301-6.225-6.999-7.4-11.564l0.012-5.719c0.238-0.664,0.425-1.08,0.56-1.338
		c0.206,0.325,0.455,0.784,0.656,1.156c0.412,0.762,0.878,1.625,1.481,2.492c3.616,5.212,8.77,8.175,13.946,8.175
		c0.943,0,1.888-0.098,2.822-0.299c5.671-1.219,9.663-5.914,10.953-12.881C158.131,133.64,157.948,127.079,154.803,122.883z"/>
	<path d="M172.638,87.833c-0.158-0.21-0.377-0.331-0.651-0.359c-0.21-0.021-0.456,0.124-0.653,0.24
		c-0.07,0.041-0.16,0.094-0.213,0.115c0.003-0.022,0.009-0.055,0.024-0.104c0.044-0.149,0.121-0.281,0.195-0.409
		c0.185-0.319,0.377-0.648,0.013-1.174c-0.21-0.304-0.639-0.472-1.313-0.516l-0.086-0.006v-0.001l-0.005,0l-0.005,0v0.001
		l-0.086,0.006c-0.673,0.043-1.103,0.212-1.313,0.516c-0.364,0.526-0.172,0.855,0.013,1.174c0.074,0.128,0.151,0.26,0.195,0.409
		c0.015,0.049,0.021,0.082,0.024,0.104c-0.054-0.021-0.143-0.074-0.213-0.115c-0.198-0.117-0.443-0.262-0.653-0.24
		c-0.274,0.028-0.493,0.149-0.651,0.359c-0.283,0.378-0.3,0.97-0.221,1.397c0.116,0.628,0.476,1.051,0.987,1.161
		c0.084,0.018,0.169,0.027,0.254,0.027c0.467,0,0.931-0.267,1.257-0.737c0.054-0.078,0.096-0.156,0.133-0.225
		c0.018-0.034,0.04-0.075,0.059-0.104c0.012,0.023,0.029,0.061,0.051,0.121l0.001,0.515c-0.106,0.411-0.414,0.835-0.667,1.042
		l-0.196,0.161h1.012h0.034h1.012l-0.196-0.161c-0.253-0.207-0.561-0.631-0.667-1.042l0.001-0.515
		c0.021-0.06,0.038-0.097,0.05-0.121c0.019,0.029,0.041,0.071,0.059,0.104c0.037,0.069,0.079,0.146,0.133,0.225
		c0.326,0.47,0.79,0.737,1.257,0.737c0.085,0,0.17-0.009,0.254-0.027c0.511-0.11,0.871-0.533,0.987-1.161
		C172.938,88.802,172.921,88.211,172.638,87.833z"/>
	<path d="M198.274,87.833c-0.158-0.21-0.377-0.331-0.651-0.359c-0.21-0.021-0.456,0.124-0.653,0.24
		c-0.07,0.041-0.16,0.094-0.213,0.115c0.003-0.022,0.009-0.055,0.024-0.104c0.044-0.149,0.121-0.281,0.195-0.409
		c0.185-0.319,0.377-0.648,0.013-1.174c-0.21-0.304-0.639-0.472-1.313-0.516l-0.086-0.006v-0.001l-0.005,0l-0.005,0v0.001
		l-0.086,0.006c-0.673,0.043-1.103,0.212-1.313,0.516c-0.364,0.526-0.172,0.855,0.013,1.174c0.074,0.128,0.151,0.26,0.195,0.409
		c0.015,0.049,0.021,0.082,0.024,0.104c-0.054-0.021-0.143-0.074-0.213-0.115c-0.198-0.117-0.443-0.262-0.653-0.24
		c-0.274,0.028-0.493,0.149-0.651,0.359c-0.283,0.378-0.3,0.97-0.221,1.397c0.116,0.628,0.476,1.051,0.987,1.161
		c0.084,0.018,0.169,0.027,0.254,0.027c0.467,0,0.931-0.267,1.257-0.737c0.054-0.078,0.096-0.156,0.133-0.225
		c0.018-0.034,0.04-0.075,0.059-0.104c0.012,0.023,0.029,0.061,0.051,0.121l0.001,0.515c-0.106,0.411-0.414,0.835-0.667,1.042
		l-0.196,0.161h1.012h0.034h1.012l-0.196-0.161c-0.253-0.207-0.561-0.631-0.667-1.042l0.001-0.515
		c0.021-0.06,0.038-0.097,0.05-0.121c0.019,0.029,0.041,0.071,0.059,0.104c0.037,0.069,0.079,0.146,0.133,0.225
		c0.326,0.47,0.79,0.737,1.257,0.737c0.085,0,0.17-0.009,0.254-0.027c0.511-0.11,0.871-0.533,0.987-1.161
		C198.574,88.802,198.557,88.211,198.274,87.833z"/>
	<path d="M223.91,87.833c-0.158-0.21-0.377-0.331-0.651-0.359c-0.21-0.021-0.456,0.124-0.653,0.24
		c-0.07,0.041-0.16,0.094-0.213,0.115c0.003-0.022,0.009-0.055,0.024-0.104c0.044-0.149,0.121-0.281,0.195-0.409
		c0.185-0.319,0.377-0.648,0.013-1.174c-0.21-0.304-0.639-0.472-1.313-0.516l-0.086-0.006v-0.001l-0.005,0l-0.005,0v0.001
		l-0.086,0.006c-0.673,0.043-1.103,0.212-1.313,0.516c-0.364,0.526-0.172,0.855,0.013,1.174c0.074,0.128,0.151,0.26,0.195,0.409
		c0.015,0.049,0.021,0.082,0.024,0.104c-0.054-0.021-0.143-0.074-0.213-0.115c-0.198-0.117-0.443-0.262-0.653-0.24
		c-0.274,0.028-0.493,0.149-0.651,0.359c-0.283,0.378-0.3,0.97-0.221,1.397c0.116,0.628,0.476,1.051,0.987,1.161
		c0.084,0.018,0.169,0.027,0.254,0.027c0.467,0,0.931-0.267,1.257-0.737c0.054-0.078,0.096-0.156,0.133-0.225
		c0.018-0.034,0.04-0.075,0.059-0.104c0.012,0.023,0.029,0.061,0.051,0.121l0.001,0.515c-0.106,0.411-0.414,0.835-0.667,1.042
		l-0.196,0.161h1.012h0.034h1.012l-0.196-0.161c-0.253-0.207-0.561-0.631-0.667-1.042l0.001-0.515
		c0.021-0.06,0.038-0.097,0.05-0.121c0.019,0.029,0.041,0.071,0.059,0.104c0.037,0.069,0.079,0.146,0.133,0.225
		c0.326,0.47,0.79,0.737,1.257,0.737c0.085,0,0.17-0.009,0.254-0.027c0.511-0.11,0.871-0.533,0.987-1.161
		C224.21,88.802,224.193,88.211,223.91,87.833z"/>
	<path d="M249.546,87.833c-0.158-0.21-0.377-0.331-0.651-0.359c-0.21-0.021-0.456,0.124-0.653,0.24
		c-0.07,0.041-0.16,0.094-0.213,0.115c0.003-0.022,0.009-0.055,0.024-0.104c0.044-0.149,0.121-0.281,0.195-0.409
		c0.185-0.319,0.377-0.648,0.013-1.174c-0.21-0.304-0.639-0.472-1.313-0.516l-0.086-0.006v-0.001l-0.005,0l-0.005,0v0.001
		l-0.086,0.006c-0.673,0.043-1.103,0.212-1.313,0.516c-0.364,0.526-0.172,0.855,0.013,1.174c0.074,0.128,0.151,0.26,0.195,0.409
		c0.015,0.049,0.021,0.082,0.024,0.104c-0.054-0.021-0.143-0.074-0.213-0.115c-0.198-0.117-0.443-0.262-0.653-0.24
		c-0.274,0.028-0.493,0.149-0.651,0.359c-0.283,0.378-0.3,0.97-0.221,1.397c0.116,0.628,0.476,1.051,0.987,1.161
		c0.084,0.018,0.169,0.027,0.254,0.027c0.467,0,0.931-0.267,1.257-0.737c0.054-0.078,0.096-0.156,0.133-0.225
		c0.018-0.034,0.04-0.075,0.059-0.104c0.012,0.023,0.029,0.061,0.051,0.121l0.001,0.515c-0.106,0.411-0.414,0.835-0.667,1.042
		l-0.196,0.161h1.012h0.034h1.012l-0.196-0.161c-0.253-0.207-0.561-0.631-0.667-1.042l0.001-0.515
		c0.021-0.06,0.038-0.097,0.05-0.121c0.019,0.029,0.041,0.071,0.059,0.104c0.037,0.069,0.079,0.146,0.133,0.225
		c0.326,0.47,0.79,0.737,1.257,0.737c0.085,0,0.17-0.009,0.254-0.027c0.511-0.11,0.871-0.533,0.987-1.161
		C249.846,88.802,249.829,88.211,249.546,87.833z"/>
</g>
<g>
	<path fill="#C19F9F" stroke="#C19F9F" stroke-width="0.25" stroke-miterlimit="10" d="M116.476,249.308
		c-4.352-0.318-5.945,4.034-5.945,4.034s-0.455,0.752-1.033,1.66c0,0,0,0,0,0h0l0,0c-0.92,0.088-16.138,0.93-16.138,0.93
		c-2.03,12.917,13.277,16.478,22.69,11.65c1.261-0.647,2.449-0.885,3.467-2.778C122.39,259.461,123.35,249.811,116.476,249.308z
		 M96.838,259.498c-0.005-0.003-0.01-0.007-0.016-0.01c2.484,0.728,5.692,0.589,7.765,0.435
		C101.615,260.56,98.218,260.347,96.838,259.498z"/>
	<path fill="#C19F9F" stroke="#C19F9F" stroke-width="0.25" stroke-miterlimit="10" d="M109.499,255.001
		c-6.626,0.104-12.779-9.807-16.138,0.93L109.499,255.001L109.499,255.001z"/>
</g>
<path fill="#87413F" d="M93.361,255.932c0,0,2.372,3.123,3.477,3.566c1.105,0.444,5.892,1.078,8.675,0.06
	c2.784-1.018,5.526-7.224,5.526-7.224s1.816-2.911,5.016-3.043s4.58,1.839,5.012,3.329s0.54,6.879,0.415,7.618
	c-0.125,0.739-1.253,5.145-2.963,6.238c-1.709,1.093-7.483,2.921-9.036,3.037c-1.553,0.116-6.434-0.271-7.12-0.464
	s-4.953-2.249-5.451-2.686c-0.497-0.438-2.229-2.001-2.574-2.95c-0.345-0.949-1.203-3.206-1.102-4.002
	c0.1-0.796-0.008-2.393-0.008-2.393L93.361,255.932z"/>
<path fill="none" stroke="#000000" stroke-miterlimit="10" d="M115.646,275.281c-0.903-1.311-1.881-2.653-1.537-4.161
	c0.551-2.417,4.294-3.897,5.653-6.019c5.243-8.188-1.927-22.62-2.688-31.861h-9.587v-0.005h-9.587
	c-0.761,9.242-7.931,23.673-2.688,31.861c1.359,2.122,5.101,3.602,5.653,6.019c0.584,2.562-2.644,4.644-2.845,6.91
	c-0.049,0.557-0.03,1.041,0.05,1.462"/>
<polyline fill="none" stroke="#000000" stroke-miterlimit="10" points="85.764,567.984 361.911,566.658 361.911,72.109 "/>
<polyline fill="none" stroke="#000000" stroke-miterlimit="10" points="362.79,71.259 86.643,72.585 86.643,567.134 "/>
<path d="M71.6,86.24c-1.361-1.816-3.252-2.86-5.619-3.1c-1.815-0.184-3.937,1.07-5.643,2.077c-0.602,0.355-1.377,0.813-1.839,0.995
	c0.023-0.186,0.079-0.472,0.206-0.899c0.381-1.285,1.044-2.426,1.686-3.529c1.6-2.751,3.254-5.596,0.112-10.137
	c-1.814-2.622-5.522-4.079-11.336-4.453l-0.743-0.048V67.14l-0.044,0.003l-0.044-0.003v0.006l-0.743,0.048
	c-5.814,0.374-9.522,1.83-11.336,4.453c-3.142,4.541-1.488,7.386,0.112,10.137c0.642,1.104,1.305,2.245,1.686,3.53
	c0.126,0.426,0.182,0.712,0.206,0.899c-0.462-0.182-1.238-0.64-1.839-0.995c-1.707-1.007-3.827-2.261-5.643-2.077
	c-2.367,0.241-4.258,1.283-5.619,3.1c-2.448,3.266-2.59,8.373-1.907,12.064c1.004,5.424,4.111,9.078,8.526,10.027
	c0.729,0.157,1.463,0.233,2.197,0.233c4.029,0,8.041-2.306,10.855-6.363c0.469-0.675,0.832-1.347,1.152-1.94
	c0.157-0.29,0.35-0.646,0.51-0.899c0.104,0.2,0.251,0.528,0.437,1.048l0.009,4.444c-0.914,3.553-3.579,7.21-5.76,9.002l-1.689,1.388
	h8.744h0.293h8.744l-1.689-1.388c-2.181-1.791-4.846-5.448-5.76-9.002l0.009-4.452c0.185-0.517,0.331-0.841,0.436-1.041
	c0.16,0.253,0.354,0.61,0.51,0.9c0.32,0.593,0.684,1.265,1.152,1.94c2.814,4.057,6.827,6.363,10.855,6.363
	c0.734,0,1.469-0.076,2.197-0.233c4.414-0.949,7.521-4.603,8.526-10.027C74.19,94.613,74.048,89.505,71.6,86.24z"/>
<g>
	<path fill="none" stroke="#000000" stroke-miterlimit="10" d="M86.927,321.239"/>
	<g>
		<path d="M383.408,582.169l5.001-4.856c1.56,0.083,3.189,0.361,4.89,0.834c1.701,0.473,3.426,1.125,5.176,1.955
			c1.75,0.831,4.085,2.25,7.005,4.258c4.231,0.763,7.719,2.772,10.465,6.026c2.747,3.253,4.119,7.006,4.119,11.256
			c0,5.196-1.767,9.496-5.301,12.899c-3.534,3.403-8.005,5.105-13.413,5.105c-5.375,0-9.842-1.689-13.401-5.068
			c-3.559-3.378-5.338-7.624-5.338-12.737c0-4.3,1.344-8.077,4.032-11.331c2.688-3.254,6.164-5.304,10.428-6.151l-1.319-0.498
			c-4.098-1.577-7.051-2.366-8.86-2.366C385.896,581.496,384.735,581.72,383.408,582.169z M401.35,614.915
			c3.914,0,7.148-1.262,9.703-3.785c2.555-2.524,3.832-5.703,3.832-9.538c0-3.735-1.285-6.844-3.856-9.326
			c-2.571-2.482-5.797-3.723-9.678-3.723c-3.832,0-7.058,1.27-9.678,3.81c-2.62,2.54-3.931,5.669-3.931,9.388
			c0,3.801,1.286,6.948,3.856,9.438C394.168,613.67,397.419,614.915,401.35,614.915z"/>
	</g>
	<path fill="none" stroke="#000000" stroke-miterlimit="10" d="M363.924,431.808"/>
	<path fill="none" stroke="#000000" stroke-miterlimit="10" d="M363.924,318.653"/>
	<g>
		<path fill="none" stroke="#000000" stroke-width="4" stroke-linejoin="bevel" stroke-miterlimit="10" d="M360.213,319.926
			c-59.622,0-119.244,0-178.867,0c-28.338,0-63.761,0.553-92.099,0.465c0,0,1.383,4.257,1.383,13.454
			c0,13.069-1.141,26.609,0.616,39.589c4.291,31.705,15.789,58.64,35.558,83.63c10.525,13.305,22.395,26.684,37.309,35.03
			c11.809,6.608,25.884,11.976,38.548,16.645c-0.145-7.762,0.145-16.451,0-24.213"/>
		
			<line fill="none" stroke="#000000" stroke-width="4" stroke-linecap="round" stroke-miterlimit="10" x1="202.661" y1="508.74" x2="202.661" y2="542.131"/>
		<path fill="none" stroke="#000000" stroke-width="4" stroke-linecap="round" stroke-miterlimit="10" d="M202.859,542.131
			c4.655-16.15,20.958-16.115,25.637,0"/>
		<path fill="none" stroke="#000000" stroke-width="4" stroke-miterlimit="10" d="M279.178,478.445
			c13.836-32.852,28.262-67.518,42.097-100.371c-24.378,15.265-38.769,47.021-42.167,75.073"/>
		<path fill="none" stroke="#000000" stroke-width="4" stroke-miterlimit="10" d="M321.275,378.074
			c1.77-3.434,6.894-9.754,6.959-13.501c0.048-2.715-2.865-6.425-3.167-10.442c-0.843-11.22,0.01-22.809-0.035-34.072"/>
		<path fill="none" stroke="#000000" stroke-width="4" stroke-linecap="round" stroke-miterlimit="10" d="M360.213,320.06
			c0,29.439,3.185,43.429-32.093,43.429"/>
		
			<line fill="none" stroke="#000000" stroke-width="4" stroke-miterlimit="10" x1="325.164" y1="352.116" x2="338.688" y2="352.116"/>
		
			<line fill="none" stroke="#000000" stroke-width="4" stroke-miterlimit="10" x1="325.033" y1="341.973" x2="338.688" y2="341.973"/>
		
			<line fill="none" stroke="#000000" stroke-width="4" stroke-miterlimit="10" x1="325.033" y1="330.622" x2="338.688" y2="330.622"/>
		<path fill="none" stroke="#000000" stroke-width="4" stroke-miterlimit="10" d="M198.739,392.073
			c12.764-13.214,28.544-18.928,46.883-16.799c10.823,1.256,29.67,7.394,34.146,18.298"/>
		<path fill="none" stroke="#000000" stroke-width="4" stroke-miterlimit="10" d="M235.228,498.827
			c0-5.613,1.211-11.827-1.59-16.858c-3.9-7.007-14.481-9.166-20.453-3.307"/>
		<path fill="none" stroke="#000000" stroke-width="4" stroke-miterlimit="10" d="M264.859,498.827c0,0-2.97-22.796,13.636-22.196"
			/>
		
			<line fill="none" stroke="#000000" stroke-width="4" stroke-linecap="round" stroke-miterlimit="10" x1="217.73" y1="450.161" x2="205.569" y2="461.773"/>
		<path fill="none" stroke="#000000" stroke-width="4" stroke-miterlimit="10" d="M252.122,319.916
			c-4.508,9.329-9.016,18.658-13.524,27.986c-3.919-9.329-7.839-18.658-11.758-27.986"/>
		<line fill="none" stroke="#000000" stroke-width="4" stroke-miterlimit="10" x1="267.546" y1="320.25" x2="251.232" y2="352.75"/>
		
			<line fill="none" stroke="#000000" stroke-width="4" stroke-miterlimit="10" x1="227.08" y1="352.454" x2="213.767" y2="319.916"/>
		<path fill="none" stroke="#000000" stroke-width="4" stroke-miterlimit="10" d="M253.304,455.967
			c0.251-8.78,3.479-18.367,10.477-24.037c-3.007-1.895-6.014-3.79-9.021-5.686"/>
		<path stroke="#000000" stroke-miterlimit="10" d="M264.525,451.026c-0.683-2.915,2.202-5.43,5.16-4.052
			c0.655,0.305,1.196,0.846,1.501,1.501c1.378,2.959-1.137,5.843-4.052,5.16C265.85,453.334,264.825,452.31,264.525,451.026z"/>
		<path stroke="#000000" stroke-miterlimit="10" d="M232.043,451.026c-0.683-2.915,2.202-5.43,5.16-4.052
			c0.655,0.305,1.196,0.846,1.501,1.501c1.378,2.959-1.137,5.843-4.052,5.16C233.368,453.334,232.344,452.31,232.043,451.026z"/>
		<g>
			<path stroke="#000000" stroke-miterlimit="10" d="M260.695,416.91c0-0.841-0.256-1.725-0.841-2.615
				c-0.667-1.016-1.85-1.854-3.282-2.327c-5.818-1.921-11.484,1.041-11.487,4.942H260.695z"/>
		</g>
		<path fill="none" stroke="#000000" stroke-width="4" stroke-linecap="round" stroke-miterlimit="10" d="M228.495,542.131
			c4.655-16.15,20.958-16.115,25.637,0"/>
		<path fill="none" stroke="#000000" stroke-width="4" stroke-linecap="round" stroke-miterlimit="10" d="M254.132,542.097
			c4.655-16.15,20.958-16.115,25.637,0"/>
		<path fill="none" stroke="#000000" stroke-width="4" stroke-linecap="round" stroke-miterlimit="10" d="M279.768,541.747
			c-0.251-26.867-0.501-53.734-0.752-80.601c-0.122-13.038,1.461-27.371-0.376-40.29c-1.262-8.881-12.208-17.772-18.873-23.812
			c-10.916-9.891-23.826,5.005-32.928,11.705"/>
		<path fill="none" stroke="#000000" stroke-width="4" stroke-miterlimit="10" d="M205.569,463.562"/>
		<path fill="none" stroke="#000000" stroke-width="4" stroke-linecap="round" stroke-miterlimit="10" d="M201.537,465.398
			c3.273-4.765,20.323-5.138,25.302-4.329c10.186,1.656,19.407,10.438,23.934,19.385c3.264-11.831,16.132-19.385,27.722-19.385"/>
		<path fill="none" stroke="#000000" stroke-width="4" stroke-miterlimit="10" d="M250.773,480.454"/>
		<path fill="none" stroke="#000000" stroke-width="4" stroke-miterlimit="10" d="M90.637,344.505
			c42.316,52.76,84.037,106.057,126.974,158.312c13.523,16.458,46.167,18.54,60.885,1.506"/>
		<path fill="none" stroke="#000000" stroke-width="4" stroke-linecap="round" stroke-miterlimit="10" d="M177.737,434.135
			c2.232-20.519-7.299-42.65-21.422-56.598c-10.502-10.372-25.513-22.283-41.05-21.874"/>
		<path fill="none" stroke="#000000" stroke-width="4" stroke-miterlimit="10" d="M98.875,335.074
			c28.244,0.419,52.693,14.798,72.097,34.616c20.949,21.396,27.195,54.793,22.29,83.945"/>
		<path fill="none" stroke="#000000" stroke-width="4" stroke-linecap="round" stroke-miterlimit="10" d="M202.336,463.93
			c5.096-4.922,5.801-10.572,5.801-17.695c0-6.834,0.81-14.199,0-20.989c-1.943-16.282-8.76-34.916-15.946-49.518
			c-17.627-35.816-63.247-56.396-101.555-55.801"/>
		<path fill="none" stroke="#000000" stroke-width="4" stroke-miterlimit="10" d="M190.336,367.845
			c30.973-28.609,80.477-15.901,108.787,9.494c-10.805,9.063-21.611,18.126-32.416,27.189"/>
		<path fill="none" stroke="#000000" stroke-width="4" stroke-miterlimit="10" d="M325.033,354.773
			c-9.12,7.943-18.898,15.49-27.347,24.136c-8.287,8.479-21.123,21.255-23.546,33.636"/>
		<path fill="none" stroke="#000000" stroke-width="4" stroke-miterlimit="10" d="M250.773,481.688v20.787
			c-2.041,0.198-4.056,0.139-6.044-0.146c-23.372-3.354-42.936-37.977-55.374-53.601c-26.361-33.113-52.722-66.226-79.084-99.339
			c-6.545-8.221-13.09-19.429-19.634-27.65"/>
		<path fill="none" stroke="#000000" stroke-width="4" stroke-miterlimit="10" d="M250.773,502.475
			c2.041,0.198,16.053,0.872,28.491-14.752"/>
	</g>
	<path fill="none" stroke="#000000" stroke-miterlimit="10" d="M363.953,318.228"/>
	<path fill="none" stroke="#000000" stroke-miterlimit="10" d="M86.955,320.814"/>
	<path d="M294.914,516.472c1.749,2.333,4.178,3.674,7.219,3.982c2.332,0.237,5.057-1.375,7.25-2.668
		c0.773-0.456,1.77-1.044,2.363-1.278c-0.03,0.239-0.102,0.607-0.264,1.155c-0.489,1.65-1.342,3.117-2.167,4.534
		c-2.055,3.534-4.18,7.189-0.144,13.023c2.33,3.368,7.094,5.24,14.563,5.721l0.954,0.062v0.007l0.057-0.003l0.057,0.003v-0.007
		l0.954-0.062c7.469-0.481,12.233-2.352,14.563-5.721c4.036-5.834,1.911-9.488-0.144-13.023c-0.825-1.418-1.677-2.884-2.167-4.535
		c-0.162-0.548-0.234-0.915-0.264-1.155c0.594,0.234,1.591,0.822,2.363,1.278c2.193,1.294,4.917,2.905,7.25,2.668
		c3.041-0.309,5.47-1.649,7.219-3.982c3.145-4.196,3.327-10.757,2.45-15.499c-1.29-6.968-5.282-11.662-10.953-12.881
		c-0.936-0.201-1.879-0.299-2.822-0.299c-5.176,0-10.331,2.962-13.946,8.175c-0.602,0.868-1.069,1.731-1.481,2.492
		c-0.201,0.372-0.449,0.83-0.655,1.155c-0.134-0.257-0.322-0.679-0.561-1.346l-0.012-5.709c1.174-4.564,4.598-9.263,7.4-11.564
		l2.17-1.783h-11.233h-0.376h-11.233l2.17,1.783c2.802,2.301,6.225,6.999,7.4,11.564l-0.012,5.719
		c-0.238,0.664-0.425,1.08-0.56,1.338c-0.206-0.325-0.455-0.784-0.656-1.156c-0.412-0.762-0.878-1.625-1.481-2.492
		c-3.616-5.212-8.77-8.175-13.946-8.175c-0.943,0-1.888,0.098-2.822,0.299c-5.671,1.219-9.663,5.914-10.953,12.881
		C291.586,505.715,291.769,512.276,294.914,516.472z"/>
	<path d="M277.079,551.522c0.158,0.21,0.377,0.331,0.651,0.359c0.21,0.021,0.456-0.124,0.653-0.24
		c0.07-0.041,0.159-0.094,0.213-0.115c-0.003,0.022-0.009,0.055-0.024,0.104c-0.044,0.149-0.121,0.281-0.195,0.409
		c-0.185,0.319-0.377,0.648-0.013,1.174c0.21,0.304,0.639,0.472,1.313,0.516l0.086,0.006v0.001l0.005,0l0.005,0v-0.001l0.086-0.006
		c0.673-0.043,1.103-0.212,1.313-0.516c0.364-0.526,0.172-0.855-0.013-1.174c-0.074-0.128-0.151-0.26-0.195-0.409
		c-0.015-0.049-0.021-0.083-0.024-0.104c0.054,0.021,0.143,0.074,0.213,0.115c0.198,0.117,0.443,0.262,0.653,0.24
		c0.274-0.028,0.493-0.149,0.651-0.359c0.283-0.378,0.3-0.97,0.221-1.397c-0.116-0.628-0.476-1.051-0.987-1.161
		c-0.084-0.018-0.169-0.027-0.254-0.027c-0.467,0-0.931,0.267-1.257,0.737c-0.054,0.078-0.096,0.156-0.133,0.225
		c-0.018,0.034-0.04,0.075-0.059,0.104c-0.012-0.023-0.029-0.061-0.051-0.121l-0.001-0.515c0.106-0.411,0.414-0.835,0.667-1.042
		l0.196-0.161h-1.012h-0.034h-1.012l0.196,0.161c0.253,0.207,0.561,0.631,0.667,1.042l-0.001,0.516
		c-0.021,0.06-0.038,0.097-0.05,0.121c-0.019-0.029-0.041-0.071-0.059-0.104c-0.037-0.069-0.079-0.146-0.133-0.225
		c-0.326-0.47-0.79-0.737-1.257-0.737c-0.085,0-0.17,0.009-0.254,0.027c-0.511,0.11-0.871,0.533-0.987,1.161
		C276.779,550.553,276.796,551.144,277.079,551.522z"/>
	<path d="M251.443,551.522c0.158,0.21,0.377,0.331,0.651,0.359c0.21,0.021,0.456-0.124,0.653-0.24
		c0.07-0.041,0.16-0.094,0.213-0.115c-0.003,0.022-0.009,0.055-0.024,0.104c-0.044,0.149-0.121,0.281-0.195,0.409
		c-0.185,0.319-0.377,0.648-0.013,1.174c0.21,0.304,0.639,0.472,1.313,0.516l0.086,0.006v0.001l0.005,0l0.005,0v-0.001l0.086-0.006
		c0.673-0.043,1.103-0.212,1.313-0.516c0.364-0.526,0.172-0.855-0.013-1.174c-0.074-0.128-0.151-0.26-0.195-0.409
		c-0.015-0.049-0.021-0.083-0.024-0.104c0.054,0.021,0.143,0.074,0.213,0.115c0.198,0.117,0.443,0.262,0.653,0.24
		c0.274-0.028,0.493-0.149,0.651-0.359c0.283-0.378,0.3-0.97,0.221-1.397c-0.116-0.628-0.476-1.051-0.987-1.161
		c-0.084-0.018-0.169-0.027-0.254-0.027c-0.467,0-0.931,0.267-1.257,0.737c-0.054,0.078-0.096,0.156-0.133,0.225
		c-0.018,0.034-0.04,0.075-0.059,0.104c-0.012-0.023-0.029-0.061-0.051-0.121l-0.001-0.515c0.106-0.411,0.414-0.835,0.667-1.042
		l0.196-0.161h-1.012h-0.034h-1.012l0.196,0.161c0.253,0.207,0.561,0.631,0.667,1.042l-0.001,0.516
		c-0.021,0.06-0.038,0.097-0.05,0.121c-0.019-0.029-0.041-0.071-0.059-0.104c-0.037-0.069-0.079-0.146-0.133-0.225
		c-0.326-0.47-0.79-0.737-1.257-0.737c-0.085,0-0.17,0.009-0.254,0.027c-0.511,0.11-0.871,0.533-0.987,1.161
		C251.143,550.553,251.16,551.144,251.443,551.522z"/>
	<path d="M225.807,551.522c0.158,0.21,0.377,0.331,0.651,0.359c0.21,0.021,0.456-0.124,0.653-0.24
		c0.07-0.041,0.16-0.094,0.213-0.115c-0.003,0.022-0.009,0.055-0.024,0.104c-0.044,0.149-0.121,0.281-0.195,0.409
		c-0.185,0.319-0.377,0.648-0.013,1.174c0.21,0.304,0.639,0.472,1.313,0.516l0.086,0.006v0.001l0.005,0l0.005,0v-0.001l0.086-0.006
		c0.673-0.043,1.103-0.212,1.313-0.516c0.364-0.526,0.172-0.855-0.013-1.174c-0.074-0.128-0.151-0.26-0.195-0.409
		c-0.015-0.049-0.021-0.083-0.024-0.104c0.054,0.021,0.143,0.074,0.213,0.115c0.198,0.117,0.443,0.262,0.653,0.24
		c0.274-0.028,0.493-0.149,0.651-0.359c0.283-0.378,0.3-0.97,0.221-1.397c-0.116-0.628-0.476-1.051-0.987-1.161
		c-0.084-0.018-0.169-0.027-0.254-0.027c-0.467,0-0.931,0.267-1.257,0.737c-0.054,0.078-0.096,0.156-0.133,0.225
		c-0.018,0.034-0.04,0.075-0.059,0.104c-0.012-0.023-0.029-0.061-0.051-0.121l-0.001-0.515c0.106-0.411,0.414-0.835,0.667-1.042
		l0.196-0.161h-1.012h-0.034h-1.012l0.196,0.161c0.253,0.207,0.561,0.631,0.667,1.042l-0.001,0.516
		c-0.021,0.06-0.038,0.097-0.05,0.121c-0.019-0.029-0.041-0.071-0.059-0.104c-0.037-0.069-0.079-0.146-0.133-0.225
		c-0.326-0.47-0.79-0.737-1.257-0.737c-0.085,0-0.17,0.009-0.254,0.027c-0.511,0.11-0.871,0.533-0.987,1.161
		C225.507,550.553,225.524,551.144,225.807,551.522z"/>
	<path d="M200.171,551.522c0.158,0.21,0.377,0.331,0.651,0.359c0.21,0.021,0.456-0.124,0.653-0.24
		c0.07-0.041,0.16-0.094,0.213-0.115c-0.003,0.022-0.009,0.055-0.024,0.104c-0.044,0.149-0.121,0.281-0.195,0.409
		c-0.185,0.319-0.377,0.648-0.013,1.174c0.21,0.304,0.639,0.472,1.313,0.516l0.086,0.006v0.001l0.005,0l0.005,0v-0.001l0.086-0.006
		c0.673-0.043,1.103-0.212,1.313-0.516c0.364-0.526,0.172-0.855-0.013-1.174c-0.074-0.128-0.151-0.26-0.195-0.409
		c-0.015-0.049-0.021-0.083-0.024-0.104c0.054,0.021,0.143,0.074,0.213,0.115c0.198,0.117,0.443,0.262,0.653,0.24
		c0.274-0.028,0.493-0.149,0.651-0.359c0.283-0.378,0.3-0.97,0.221-1.397c-0.116-0.628-0.476-1.051-0.987-1.161
		c-0.084-0.018-0.169-0.027-0.254-0.027c-0.467,0-0.931,0.267-1.257,0.737c-0.054,0.078-0.096,0.156-0.133,0.225
		c-0.018,0.034-0.04,0.075-0.059,0.104c-0.012-0.023-0.029-0.061-0.051-0.121l-0.001-0.515c0.106-0.411,0.414-0.835,0.667-1.042
		l0.196-0.161h-1.012h-0.034h-1.012l0.196,0.161c0.253,0.207,0.561,0.631,0.667,1.042l-0.001,0.516
		c-0.021,0.06-0.038,0.097-0.05,0.121c-0.019-0.029-0.041-0.071-0.059-0.104c-0.037-0.069-0.079-0.146-0.133-0.225
		c-0.326-0.47-0.79-0.737-1.257-0.737c-0.085,0-0.17,0.009-0.254,0.027c-0.511,0.11-0.871,0.533-0.987,1.161
		C199.871,550.553,199.888,551.144,200.171,551.522z"/>
</g>
<g>
	<path fill="#C19F9F" stroke="#C19F9F" stroke-width="0.25" stroke-miterlimit="10" d="M333.241,390.048
		c4.352,0.318,5.945-4.034,5.945-4.034s0.455-0.752,1.033-1.66c0,0,0,0,0,0h0l0,0c0.92-0.088,16.138-0.93,16.138-0.93
		c2.03-12.917-13.277-16.478-22.69-11.65c-1.261,0.647-2.449,0.885-3.467,2.778C327.327,379.895,326.367,389.545,333.241,390.048z
		 M352.879,379.857c0.005,0.003,0.01,0.007,0.016,0.01c-2.484-0.728-5.692-0.589-7.765-0.435
		C348.102,378.795,351.499,379.008,352.879,379.857z"/>
	<path fill="#C19F9F" stroke="#C19F9F" stroke-width="0.25" stroke-miterlimit="10" d="M340.218,384.354
		c6.626-0.104,12.779,9.807,16.138-0.93L340.218,384.354L340.218,384.354z"/>
</g>
<path fill="#87413F" d="M356.356,383.423c0,0-2.372-3.123-3.477-3.566c-1.105-0.444-5.892-1.078-8.675-0.06
	c-2.784,1.018-5.526,7.224-5.526,7.224s-1.816,2.911-5.016,3.043c-3.2,0.132-4.58-1.839-5.012-3.329
	c-0.431-1.49-0.54-6.879-0.415-7.618c0.125-0.739,1.253-5.145,2.962-6.238c1.709-1.093,7.483-2.921,9.036-3.037
	c1.553-0.116,6.434,0.271,7.12,0.464s4.953,2.249,5.451,2.686s2.229,2.001,2.574,2.95c0.345,0.949,1.203,3.206,1.102,4.002
	c-0.1,0.796,0.008,2.393,0.008,2.393L356.356,383.423z"/>
<path fill="none" stroke="#000000" stroke-miterlimit="10" d="M334.071,364.074c0.903,1.311,1.881,2.653,1.537,4.161
	c-0.551,2.417-4.294,3.897-5.653,6.019c-5.243,8.188,1.927,22.62,2.688,31.861h9.587v0.005h9.587
	c0.761-9.242,7.931-23.673,2.688-31.861c-1.359-2.122-5.101-3.602-5.653-6.019c-0.584-2.562,2.644-4.644,2.845-6.91
	c0.049-0.557,0.03-1.041-0.05-1.462"/>
<path d="M378.117,553.116c1.361,1.816,3.252,2.86,5.619,3.1c1.815,0.184,3.937-1.07,5.643-2.077
	c0.602-0.355,1.377-0.813,1.839-0.995c-0.023,0.186-0.079,0.472-0.206,0.899c-0.38,1.284-1.044,2.426-1.686,3.529
	c-1.6,2.751-3.254,5.596-0.112,10.137c1.814,2.622,5.522,4.078,11.336,4.453l0.743,0.048v0.006l0.044-0.003l0.044,0.003v-0.006
	l0.743-0.048c5.814-0.374,9.522-1.83,11.336-4.453c3.142-4.541,1.488-7.386-0.112-10.137c-0.642-1.104-1.305-2.245-1.686-3.53
	c-0.126-0.426-0.182-0.712-0.206-0.899c0.462,0.182,1.238,0.64,1.839,0.995c1.707,1.007,3.827,2.261,5.643,2.077
	c2.367-0.241,4.258-1.284,5.619-3.1c2.448-3.266,2.59-8.373,1.907-12.064c-1.004-5.424-4.111-9.078-8.526-10.027
	c-0.729-0.157-1.462-0.233-2.197-0.233c-4.029,0-8.041,2.306-10.855,6.363c-0.469,0.675-0.832,1.347-1.152,1.94
	c-0.157,0.29-0.35,0.646-0.51,0.899c-0.104-0.2-0.251-0.528-0.437-1.048l-0.009-4.444c0.914-3.553,3.579-7.21,5.76-9.002
	l1.689-1.388h-8.744h-0.293h-8.744l1.689,1.388c2.181,1.791,4.846,5.448,5.76,9.002l-0.009,4.452
	c-0.185,0.517-0.331,0.841-0.436,1.041c-0.16-0.253-0.354-0.61-0.51-0.9c-0.32-0.593-0.684-1.265-1.152-1.94
	c-2.814-4.057-6.827-6.363-10.855-6.363c-0.734,0-1.469,0.076-2.197,0.233c-4.414,0.949-7.521,4.603-8.526,10.027
	C375.527,544.742,375.669,549.85,378.117,553.116z"/>
</svg>
