<?xml version="1.0" encoding="utf-8"?>
<!-- Generator: Adobe Illustrator 23.0.1, SVG Export Plug-In . SVG Version: 6.00 Build 0)  -->
<svg version="1.1" id="Layer_1" xmlns="http://www.w3.org/2000/svg" xmlns:xlink="http://www.w3.org/1999/xlink" x="0px" y="0px"
	 viewBox="0 0 449.975 639.231" enable-background="new 0 0 449.975 639.231" xml:space="preserve">
<g>
	<polygon fill="#C9B665" points="102.455,237.075 110.12,257.503 101.757,237.35 	"/>
</g>
<path fill="none" stroke="#000000" stroke-miterlimit="10" d="M362.79,431.271"/>
<polyline fill="none" stroke="#000000" stroke-miterlimit="10" points="362.79,71.259 86.643,72.585 86.643,567.134 "/>
<path fill="none" stroke="#000000" stroke-miterlimit="10" d="M86.643,432.597"/>
<path fill="none" stroke="#000000" stroke-miterlimit="10" d="M362.79,318.116"/>
<g>
	<path fill="#FF0000" d="M66.309,57.186l-5.001,4.856c-1.56-0.083-3.189-0.361-4.89-0.834s-3.426-1.125-5.176-1.955
		c-1.75-0.831-4.085-2.25-7.005-4.258c-4.231-0.763-7.719-2.772-10.465-6.026c-2.747-3.253-4.119-7.006-4.119-11.256
		c0-5.196,1.767-9.496,5.301-12.899s8.005-5.105,13.413-5.105c5.375,0,9.842,1.689,13.401,5.068
		c3.559,3.378,5.338,7.624,5.338,12.737c0,4.3-1.344,8.077-4.032,11.331s-6.164,5.304-10.428,6.151l1.319,0.498
		c4.098,1.577,7.051,2.366,8.86,2.366C63.821,57.859,64.982,57.635,66.309,57.186z M48.367,24.44c-3.914,0-7.148,1.262-9.703,3.785
		c-2.555,2.524-3.832,5.703-3.832,9.538c0,3.735,1.285,6.844,3.856,9.326s5.797,3.723,9.678,3.723c3.832,0,7.058-1.27,9.678-3.81
		s3.931-5.669,3.931-9.388c0-3.801-1.286-6.948-3.856-9.438C55.549,25.685,52.298,24.44,48.367,24.44z"/>
</g>
<path fill="none" stroke="#000000" stroke-miterlimit="10" d="M85.792,207.547"/>
<polyline fill="none" stroke="#000000" stroke-miterlimit="10" points="85.792,567.559 361.939,566.233 361.939,71.684 "/>
<path fill="none" stroke="#000000" stroke-miterlimit="10" d="M361.939,206.221"/>
<path fill="none" stroke="#000000" stroke-miterlimit="10" d="M85.792,320.702"/>
<polygon fill="#FF0000" points="49.22,114.031 72.432,91.114 48.803,67.179 48.802,67.179 48.802,67.179 24.572,91.105 
	47.794,114.031 48.498,114.743 48.507,114.734 48.516,114.743 "/>
<polygon fill="#FF0000" points="125.95,161.732 157.597,129.46 125.382,95.753 125.381,95.754 125.381,95.753 92.346,129.447 
	124.006,161.732 124.966,162.736 124.978,162.723 124.991,162.736 "/>
<g>
	<path fill="#697C45" d="M111.372,252.797c0.221,0.698-0.428,1.286-0.984,1.57c-0.785,0.402-1.805,0.499-2.644,0.212
		c-0.788-0.27-1.622-1.169-1.572-2.074c0.05-0.898,1.019-1.543,1.82-1.626C109.559,250.719,110.878,251.239,111.372,252.797z"/>
	
		<ellipse transform="matrix(0.4226 -0.9063 0.9063 0.4226 -165.5536 245.7776)" fill="#828E69" cx="110.12" cy="252.822" rx="0.779" ry="0.974"/>
	<path opacity="0.8" fill="#F20303" enable-background="new    " d="M111.008,253.249c0.085-0.182,0.073-0.386-0.009-0.577
		c-0.128-0.259-0.373-0.442-0.664-0.442c-0.421,0-0.762,0.369-0.762,0.823c0,0.165,0.057,0.311,0.134,0.44
		c0.03,0.017,0.058,0.036,0.089,0.051C110.284,253.77,110.826,253.639,111.008,253.249z"/>
</g>
<defs>
	<filter id="Adobe_OpacityMaskFilter" filterUnits="userSpaceOnUse" x="98.951" y="247.357" width="24.281" height="11.897">
		
			<feColorMatrix  type="matrix" values="-1 0 0 0 1  0 -1 0 0 1  0 0 -1 0 1  0 0 0 1 0" color-interpolation-filters="sRGB" result="source"/>
		<feFlood  style="flood-color:white;flood-opacity:1" result="back"/>
		<feBlend  in="source" in2="back" mode="normal"/>
	</filter>
</defs>
<mask maskUnits="userSpaceOnUse" x="98.951" y="247.357" width="24.281" height="11.897" id="SVGID_1_">
	<g filter="url(#Adobe_OpacityMaskFilter)">
	</g>
</mask>
<polygon opacity="0.7" mask="url(#SVGID_1_)" fill="#BBB862" points="98.951,247.357 123.232,247.357 111.029,259.255 "/>
<g>
	<g>
		<path fill="none" stroke="#000000" stroke-width="4" stroke-linejoin="bevel" stroke-miterlimit="10" d="M89.504,319.429
			c59.622,0,119.244,0,178.867,0c28.338,0,63.761-0.553,92.099-0.465c0,0-1.383-4.257-1.383-13.454
			c0-13.069,1.141-26.609-0.616-39.589c-4.291-31.705-15.789-58.64-35.558-83.63c-10.525-13.305-22.395-26.684-37.309-35.03
			c-11.809-6.608-25.884-11.976-38.548-16.645c0.145,7.762-0.145,16.451,0,24.213"/>
		
			<line fill="none" stroke="#000000" stroke-width="4" stroke-linecap="round" stroke-miterlimit="10" x1="247.056" y1="130.615" x2="247.056" y2="97.224"/>
		<path fill="none" stroke="#000000" stroke-width="4" stroke-linecap="round" stroke-miterlimit="10" d="M246.858,97.224
			c-4.655,16.15-20.958,16.115-25.637,0"/>
		<path fill="none" stroke="#000000" stroke-width="4" stroke-miterlimit="10" d="M170.539,160.91
			c-13.836,32.852-28.262,67.518-42.097,100.371c24.378-15.265,38.769-47.021,42.167-75.073"/>
		<path fill="none" stroke="#000000" stroke-width="4" stroke-miterlimit="10" d="M128.442,261.281
			c-1.77,3.434-6.894,9.754-6.959,13.501c-0.048,2.715,2.865,6.425,3.167,10.442c0.843,11.22-0.01,22.809,0.035,34.072"/>
		<path fill="none" stroke="#000000" stroke-width="4" stroke-linecap="round" stroke-miterlimit="10" d="M89.504,319.295
			c0-29.439-3.185-43.429,32.093-43.429"/>
		
			<line fill="none" stroke="#000000" stroke-width="4" stroke-miterlimit="10" x1="124.553" y1="287.239" x2="111.029" y2="287.239"/>
		
			<line fill="none" stroke="#000000" stroke-width="4" stroke-miterlimit="10" x1="124.684" y1="297.382" x2="111.029" y2="297.382"/>
		
			<line fill="none" stroke="#000000" stroke-width="4" stroke-miterlimit="10" x1="124.684" y1="308.733" x2="111.029" y2="308.733"/>
		<path fill="none" stroke="#000000" stroke-width="4" stroke-miterlimit="10" d="M250.978,247.282
			c-12.764,13.214-28.544,18.928-46.883,16.799c-10.823-1.256-29.67-7.394-34.146-18.298"/>
		<path fill="none" stroke="#000000" stroke-width="4" stroke-miterlimit="10" d="M214.489,140.528
			c0,5.613-1.211,11.827,1.59,16.858c3.9,7.007,14.481,9.166,20.453,3.307"/>
		<path fill="none" stroke="#000000" stroke-width="4" stroke-miterlimit="10" d="M184.858,140.528c0,0,2.97,22.796-13.636,22.196"
			/>
		
			<line fill="none" stroke="#000000" stroke-width="4" stroke-linecap="round" stroke-miterlimit="10" x1="231.987" y1="189.194" x2="244.148" y2="177.582"/>
		<path fill="none" stroke="#000000" stroke-width="4" stroke-miterlimit="10" d="M197.595,319.439
			c4.508-9.329,9.016-18.658,13.524-27.986c3.919,9.329,7.839,18.658,11.758,27.986"/>
		
			<line fill="none" stroke="#000000" stroke-width="4" stroke-miterlimit="10" x1="182.171" y1="319.105" x2="198.485" y2="286.605"/>
		
			<line fill="none" stroke="#000000" stroke-width="4" stroke-miterlimit="10" x1="222.637" y1="286.901" x2="235.95" y2="319.439"/>
		<path fill="none" stroke="#000000" stroke-width="4" stroke-miterlimit="10" d="M196.413,183.388
			c-0.251,8.78-3.479,18.367-10.477,24.037c3.007,1.895,6.014,3.79,9.021,5.686"/>
		<path stroke="#000000" stroke-miterlimit="10" d="M185.192,188.329c0.683,2.915-2.202,5.43-5.16,4.052
			c-0.655-0.305-1.196-0.846-1.501-1.501c-1.378-2.959,1.137-5.843,4.052-5.16C183.867,186.021,184.892,187.045,185.192,188.329z"/>
		<path stroke="#000000" stroke-miterlimit="10" d="M217.674,188.329c0.683,2.915-2.202,5.43-5.16,4.052
			c-0.655-0.305-1.196-0.846-1.501-1.501c-1.378-2.959,1.137-5.843,4.052-5.16C216.349,186.021,217.373,187.045,217.674,188.329z"/>
		<g>
			<path stroke="#000000" stroke-miterlimit="10" d="M189.022,222.445c0,0.841,0.256,1.725,0.841,2.615
				c0.667,1.016,1.85,1.854,3.282,2.327c5.818,1.921,11.484-1.041,11.487-4.942H189.022z"/>
		</g>
		<path fill="none" stroke="#000000" stroke-width="4" stroke-linecap="round" stroke-miterlimit="10" d="M221.222,97.224
			c-4.655,16.15-20.958,16.115-25.637,0"/>
		<path fill="none" stroke="#000000" stroke-width="4" stroke-linecap="round" stroke-miterlimit="10" d="M195.585,97.258
			c-4.655,16.15-20.958,16.115-25.637,0"/>
		<path fill="none" stroke="#000000" stroke-width="4" stroke-linecap="round" stroke-miterlimit="10" d="M169.949,97.608
			c0.251,26.867,0.501,53.734,0.752,80.601c0.122,13.038-1.461,27.371,0.376,40.29c1.262,8.881,12.208,17.772,18.873,23.812
			c10.916,9.891,23.826-5.005,32.928-11.705"/>
		<path fill="none" stroke="#000000" stroke-width="4" stroke-miterlimit="10" d="M244.148,175.793"/>
		<path fill="none" stroke="#000000" stroke-width="4" stroke-linecap="round" stroke-miterlimit="10" d="M248.18,173.957
			c-3.273,4.765-20.323,5.138-25.302,4.329c-10.186-1.656-19.407-10.438-23.934-19.385c-3.264,11.831-16.132,19.385-27.722,19.385"
			/>
		<path fill="none" stroke="#000000" stroke-width="4" stroke-miterlimit="10" d="M198.944,158.901"/>
		<path fill="none" stroke="#000000" stroke-width="4" stroke-miterlimit="10" d="M359.08,294.85
			c-42.316-52.76-84.037-106.057-126.974-158.312c-13.523-16.458-46.167-18.54-60.885-1.506"/>
		<path fill="none" stroke="#000000" stroke-width="4" stroke-linecap="round" stroke-miterlimit="10" d="M271.98,205.22
			c-2.232,20.519,7.299,42.65,21.422,56.598c10.502,10.372,25.513,22.283,41.05,21.874"/>
		<path fill="none" stroke="#000000" stroke-width="4" stroke-miterlimit="10" d="M350.842,304.281
			c-28.244-0.419-52.693-14.798-72.097-34.616c-20.949-21.396-27.195-54.793-22.29-83.945"/>
		<path fill="none" stroke="#000000" stroke-width="4" stroke-linecap="round" stroke-miterlimit="10" d="M247.381,175.425
			c-5.096,4.922-5.801,10.572-5.801,17.695c0,6.834-0.81,14.199,0,20.989c1.943,16.282,8.76,34.916,15.946,49.518
			c17.627,35.816,63.247,56.396,101.555,55.801"/>
		<path fill="none" stroke="#000000" stroke-width="4" stroke-miterlimit="10" d="M259.381,271.51
			c-30.973,28.609-80.477,15.901-108.787-9.494c10.805-9.063,21.611-18.126,32.416-27.189"/>
		<path fill="none" stroke="#000000" stroke-width="4" stroke-miterlimit="10" d="M124.684,284.582
			c9.12-7.943,18.898-15.49,27.347-24.136c8.287-8.479,21.123-21.255,23.546-33.636"/>
		<path fill="none" stroke="#000000" stroke-width="4" stroke-miterlimit="10" d="M198.944,157.667V136.88
			c2.041-0.198,4.056-0.139,6.044,0.146c23.372,3.354,42.936,37.977,55.374,53.601c26.361,33.113,52.722,66.226,79.084,99.339
			c6.545,8.221,13.09,19.429,19.634,27.65"/>
		<path fill="none" stroke="#000000" stroke-width="4" stroke-miterlimit="10" d="M198.944,136.88
			c-2.041-0.198-16.053-0.872-28.491,14.752"/>
	</g>
	<polygon fill="#FF0000" points="170.044,91.478 173.135,88.426 169.989,85.239 169.989,85.239 169.989,85.239 166.762,88.425 
		169.854,91.478 169.948,91.573 169.949,91.572 169.951,91.573 	"/>
	<polygon fill="#FF0000" points="195.681,91.478 198.772,88.426 195.625,85.239 195.625,85.239 195.625,85.239 192.398,88.425 
		195.491,91.478 195.585,91.573 195.586,91.572 195.587,91.573 	"/>
	<polygon fill="#FF0000" points="221.317,91.478 224.409,88.426 221.262,85.239 221.262,85.239 221.262,85.239 218.035,88.425 
		221.127,91.478 221.221,91.573 221.222,91.572 221.224,91.573 	"/>
	<polygon fill="#FF0000" points="246.954,91.478 250.045,88.426 246.898,85.239 246.898,85.239 246.898,85.239 243.672,88.425 
		246.764,91.478 246.858,91.573 246.859,91.572 246.86,91.573 	"/>
	
		<polyline fill="none" stroke="#000000" stroke-width="4" stroke-linecap="round" stroke-linejoin="round" stroke-miterlimit="10" points="
		111.029,275.865 111.029,261.334 93.572,244.461 128.486,244.461 111.029,261.334 111.029,275.865 	"/>
</g>
<g>
	<polygon fill="#C9B665" points="346.099,402.168 338.434,381.74 346.797,401.893 	"/>
</g>
<path fill="none" stroke="#000000" stroke-miterlimit="10" d="M85.764,207.972"/>
<polyline fill="none" stroke="#000000" stroke-miterlimit="10" points="85.764,567.984 361.911,566.658 361.911,72.109 "/>
<path fill="none" stroke="#000000" stroke-miterlimit="10" d="M85.764,321.127"/>
<g>
	<path fill="#FF0000" d="M382.245,582.057l5.001-4.856c1.56,0.083,3.189,0.361,4.89,0.834c1.701,0.473,3.426,1.125,5.176,1.955
		c1.75,0.831,4.085,2.25,7.005,4.258c4.231,0.763,7.719,2.772,10.465,6.026c2.747,3.253,4.119,7.006,4.119,11.256
		c0,5.196-1.767,9.496-5.301,12.899c-3.534,3.403-8.005,5.105-13.413,5.105c-5.375,0-9.842-1.689-13.401-5.068
		c-3.559-3.378-5.338-7.624-5.338-12.737c0-4.3,1.344-8.077,4.032-11.331c2.688-3.254,6.164-5.304,10.428-6.151l-1.319-0.498
		c-4.098-1.577-7.051-2.366-8.86-2.366C384.733,581.384,383.572,581.608,382.245,582.057z M400.187,614.803
		c3.914,0,7.148-1.262,9.703-3.785c2.555-2.524,3.832-5.703,3.832-9.538c0-3.735-1.285-6.844-3.856-9.326
		c-2.571-2.482-5.797-3.723-9.678-3.723c-3.832,0-7.058,1.27-9.678,3.81c-2.62,2.54-3.931,5.669-3.931,9.388
		c0,3.801,1.286,6.948,3.856,9.438C393.005,613.558,396.256,614.803,400.187,614.803z"/>
</g>
<path fill="none" stroke="#000000" stroke-miterlimit="10" d="M362.761,431.696"/>
<path fill="none" stroke="#000000" stroke-miterlimit="10" d="M86.614,433.022"/>
<path fill="none" stroke="#000000" stroke-miterlimit="10" d="M362.761,318.541"/>
<polygon fill="#FF0000" points="399.334,525.212 376.121,548.129 399.751,572.064 399.751,572.064 399.751,572.064 423.982,548.138 
	400.76,525.212 400.056,524.5 400.047,524.509 400.038,524.5 "/>
<polygon fill="#FF0000" points="322.604,477.511 290.957,509.783 323.172,543.49 323.173,543.489 323.173,543.49 356.207,509.796 
	324.548,477.511 323.588,476.507 323.576,476.52 323.563,476.507 "/>
<g>
	<path fill="#697C45" d="M337.182,386.446c-0.221-0.698,0.428-1.286,0.984-1.57c0.785-0.402,1.805-0.499,2.644-0.212
		c0.788,0.27,1.622,1.169,1.572,2.074c-0.05,0.898-1.019,1.543-1.82,1.626C338.995,388.524,337.675,388.004,337.182,386.446z"/>
	
		<ellipse transform="matrix(0.4226 -0.9063 0.9063 0.4226 -154.8106 529.8374)" fill="#828E69" cx="338.434" cy="386.421" rx="0.779" ry="0.974"/>
	<path opacity="0.8" fill="#F20303" enable-background="new    " d="M337.546,385.994c-0.085,0.182-0.073,0.386,0.009,0.577
		c0.128,0.259,0.373,0.442,0.664,0.442c0.421,0,0.762-0.369,0.762-0.823c0-0.165-0.057-0.311-0.134-0.44
		c-0.03-0.017-0.058-0.036-0.089-0.051C338.27,385.473,337.728,385.604,337.546,385.994z"/>
</g>
<defs>
	<filter id="Adobe_OpacityMaskFilter_1_" filterUnits="userSpaceOnUse" x="325.322" y="379.989" width="24.281" height="11.897">
		
			<feColorMatrix  type="matrix" values="-1 0 0 0 1  0 -1 0 0 1  0 0 -1 0 1  0 0 0 1 0" color-interpolation-filters="sRGB" result="source"/>
		<feFlood  style="flood-color:white;flood-opacity:1" result="back"/>
		<feBlend  in="source" in2="back" mode="normal"/>
	</filter>
</defs>
<mask maskUnits="userSpaceOnUse" x="325.322" y="379.989" width="24.281" height="11.897" id="SVGID_2_">
	<g filter="url(#Adobe_OpacityMaskFilter_1_)">
	</g>
</mask>
<polygon opacity="0.7" mask="url(#SVGID_2_)" fill="#BBB862" points="349.602,391.886 325.322,391.886 337.525,379.989 "/>
<g>
	<g>
		<path fill="none" stroke="#000000" stroke-width="4" stroke-linejoin="bevel" stroke-miterlimit="10" d="M359.05,319.814
			c-59.622,0-119.244,0-178.867,0c-28.338,0-63.761,0.553-92.099,0.465c0,0,1.383,4.257,1.383,13.454
			c0,13.069-1.141,26.609,0.616,39.589c4.291,31.705,15.789,58.64,35.558,83.63c10.525,13.305,22.395,26.684,37.309,35.03
			c11.809,6.608,25.884,11.976,38.548,16.645c-0.145-7.762,0.145-16.451,0-24.213"/>
		
			<line fill="none" stroke="#000000" stroke-width="4" stroke-linecap="round" stroke-miterlimit="10" x1="201.498" y1="508.628" x2="201.498" y2="542.019"/>
		<path fill="none" stroke="#000000" stroke-width="4" stroke-linecap="round" stroke-miterlimit="10" d="M201.696,542.019
			c4.655-16.15,20.958-16.115,25.637,0"/>
		<path fill="none" stroke="#000000" stroke-width="4" stroke-miterlimit="10" d="M278.015,478.333
			c13.836-32.852,28.262-67.518,42.097-100.371c-24.378,15.265-38.769,47.021-42.167,75.073"/>
		<path fill="none" stroke="#000000" stroke-width="4" stroke-miterlimit="10" d="M320.112,377.962
			c1.77-3.434,6.894-9.754,6.959-13.501c0.048-2.715-2.865-6.425-3.167-10.442c-0.843-11.22,0.01-22.809-0.035-34.072"/>
		<path fill="none" stroke="#000000" stroke-width="4" stroke-linecap="round" stroke-miterlimit="10" d="M359.05,319.948
			c0,29.439,3.185,43.429-32.093,43.429"/>
		
			<line fill="none" stroke="#000000" stroke-width="4" stroke-miterlimit="10" x1="324.001" y1="352.004" x2="337.525" y2="352.004"/>
		
			<line fill="none" stroke="#000000" stroke-width="4" stroke-miterlimit="10" x1="323.87" y1="341.861" x2="337.525" y2="341.861"/>
		<line fill="none" stroke="#000000" stroke-width="4" stroke-miterlimit="10" x1="323.87" y1="330.51" x2="337.525" y2="330.51"/>
		<path fill="none" stroke="#000000" stroke-width="4" stroke-miterlimit="10" d="M197.576,391.961
			c12.764-13.214,28.544-18.928,46.883-16.799c10.823,1.256,29.67,7.394,34.146,18.298"/>
		<path fill="none" stroke="#000000" stroke-width="4" stroke-miterlimit="10" d="M234.065,498.715
			c0-5.613,1.211-11.827-1.59-16.858c-3.9-7.007-14.481-9.166-20.453-3.307"/>
		<path fill="none" stroke="#000000" stroke-width="4" stroke-miterlimit="10" d="M263.696,498.715c0,0-2.97-22.796,13.636-22.196"
			/>
		
			<line fill="none" stroke="#000000" stroke-width="4" stroke-linecap="round" stroke-miterlimit="10" x1="216.567" y1="450.049" x2="204.406" y2="461.661"/>
		<path fill="none" stroke="#000000" stroke-width="4" stroke-miterlimit="10" d="M250.959,319.804
			c-4.508,9.329-9.016,18.658-13.524,27.986c-3.919-9.329-7.839-18.658-11.758-27.986"/>
		
			<line fill="none" stroke="#000000" stroke-width="4" stroke-miterlimit="10" x1="266.383" y1="320.138" x2="250.069" y2="352.638"/>
		
			<line fill="none" stroke="#000000" stroke-width="4" stroke-miterlimit="10" x1="225.917" y1="352.342" x2="212.604" y2="319.804"/>
		<path fill="none" stroke="#000000" stroke-width="4" stroke-miterlimit="10" d="M252.141,455.855
			c0.251-8.78,3.479-18.367,10.477-24.037c-3.007-1.895-6.014-3.79-9.021-5.686"/>
		<path stroke="#000000" stroke-miterlimit="10" d="M263.362,450.914c-0.683-2.915,2.202-5.43,5.16-4.052
			c0.655,0.305,1.196,0.846,1.501,1.501c1.378,2.959-1.137,5.843-4.052,5.16C264.687,453.222,263.662,452.198,263.362,450.914z"/>
		<path stroke="#000000" stroke-miterlimit="10" d="M230.88,450.914c-0.683-2.915,2.202-5.43,5.16-4.052
			c0.655,0.305,1.196,0.846,1.501,1.501c1.378,2.959-1.137,5.843-4.052,5.16C232.205,453.222,231.181,452.198,230.88,450.914z"/>
		<g>
			<path stroke="#000000" stroke-miterlimit="10" d="M259.532,416.798c0-0.841-0.256-1.725-0.841-2.615
				c-0.667-1.016-1.85-1.854-3.282-2.327c-5.818-1.921-11.484,1.041-11.487,4.942H259.532z"/>
		</g>
		<path fill="none" stroke="#000000" stroke-width="4" stroke-linecap="round" stroke-miterlimit="10" d="M227.332,542.019
			c4.655-16.15,20.958-16.115,25.637,0"/>
		<path fill="none" stroke="#000000" stroke-width="4" stroke-linecap="round" stroke-miterlimit="10" d="M252.969,541.985
			c4.655-16.15,20.958-16.115,25.637,0"/>
		<path fill="none" stroke="#000000" stroke-width="4" stroke-linecap="round" stroke-miterlimit="10" d="M278.605,541.635
			c-0.251-26.867-0.501-53.734-0.752-80.601c-0.122-13.038,1.461-27.371-0.376-40.29c-1.262-8.881-12.208-17.772-18.873-23.812
			c-10.916-9.891-23.826,5.005-32.928,11.705"/>
		<path fill="none" stroke="#000000" stroke-width="4" stroke-miterlimit="10" d="M204.406,463.45"/>
		<path fill="none" stroke="#000000" stroke-width="4" stroke-linecap="round" stroke-miterlimit="10" d="M200.374,465.286
			c3.273-4.765,20.323-5.138,25.302-4.329c10.186,1.656,19.407,10.438,23.934,19.385c3.264-11.831,16.132-19.385,27.722-19.385"/>
		<path fill="none" stroke="#000000" stroke-width="4" stroke-miterlimit="10" d="M249.61,480.342"/>
		<path fill="none" stroke="#000000" stroke-width="4" stroke-miterlimit="10" d="M89.474,344.393
			c42.316,52.76,84.037,106.057,126.974,158.312c13.523,16.458,46.167,18.54,60.885,1.506"/>
		<path fill="none" stroke="#000000" stroke-width="4" stroke-linecap="round" stroke-miterlimit="10" d="M176.574,434.023
			c2.232-20.519-7.299-42.65-21.422-56.598c-10.502-10.372-25.513-22.283-41.05-21.874"/>
		<path fill="none" stroke="#000000" stroke-width="4" stroke-miterlimit="10" d="M97.712,334.962
			c28.244,0.419,52.693,14.798,72.097,34.616c20.949,21.396,27.195,54.793,22.29,83.945"/>
		<path fill="none" stroke="#000000" stroke-width="4" stroke-linecap="round" stroke-miterlimit="10" d="M201.173,463.818
			c5.096-4.922,5.801-10.572,5.801-17.695c0-6.834,0.81-14.199,0-20.989c-1.943-16.282-8.76-34.916-15.946-49.518
			c-17.627-35.816-63.247-56.396-101.555-55.801"/>
		<path fill="none" stroke="#000000" stroke-width="4" stroke-miterlimit="10" d="M189.173,367.733
			c30.973-28.609,80.477-15.901,108.787,9.494c-10.805,9.063-21.611,18.126-32.416,27.189"/>
		<path fill="none" stroke="#000000" stroke-width="4" stroke-miterlimit="10" d="M323.87,354.661
			c-9.12,7.943-18.898,15.49-27.347,24.136c-8.287,8.479-21.123,21.255-23.546,33.636"/>
		<path fill="none" stroke="#000000" stroke-width="4" stroke-miterlimit="10" d="M249.61,481.576v20.787
			c-2.041,0.198-4.056,0.139-6.044-0.146c-23.372-3.354-42.936-37.977-55.374-53.601c-26.361-33.113-52.722-66.226-79.084-99.339
			c-6.545-8.221-13.09-19.429-19.634-27.65"/>
		<path fill="none" stroke="#000000" stroke-width="4" stroke-miterlimit="10" d="M249.61,502.363
			c2.041,0.198,16.053,0.872,28.491-14.752"/>
	</g>
	<polygon fill="#FF0000" points="278.51,547.765 275.419,550.817 278.565,554.004 278.565,554.004 278.565,554.004 281.792,550.818 
		278.7,547.765 278.606,547.67 278.605,547.671 278.603,547.67 	"/>
	<polygon fill="#FF0000" points="252.873,547.765 249.782,550.817 252.929,554.004 252.929,554.004 252.929,554.004 
		256.156,550.818 253.063,547.765 252.969,547.67 252.968,547.671 252.967,547.67 	"/>
	<polygon fill="#FF0000" points="227.237,547.765 224.145,550.817 227.292,554.004 227.292,554.004 227.292,554.004 
		230.519,550.818 227.427,547.765 227.333,547.67 227.332,547.671 227.33,547.67 	"/>
	<polygon fill="#FF0000" points="201.6,547.765 198.509,550.817 201.656,554.004 201.656,554.004 201.656,554.004 204.882,550.818 
		201.79,547.765 201.696,547.67 201.695,547.671 201.694,547.67 	"/>
	
		<polyline fill="none" stroke="#000000" stroke-width="4" stroke-linecap="round" stroke-linejoin="round" stroke-miterlimit="10" points="
		337.525,363.378 337.525,377.909 354.982,394.782 320.068,394.782 337.525,377.909 337.525,363.378 	"/>
</g>
</svg>
