<?xml version="1.0" encoding="utf-8"?>
<!-- Generator: Adobe Illustrator 23.0.1, SVG Export Plug-In . SVG Version: 6.00 Build 0)  -->
<svg version="1.1" id="Completed" xmlns="http://www.w3.org/2000/svg" xmlns:xlink="http://www.w3.org/1999/xlink" x="0px" y="0px"
	 viewBox="0 0 527.45 115.714" enable-background="new 0 0 527.45 115.714" xml:space="preserve">
<path fill="#FF0000" d="M68.087,32.36c-9.548-26.94-43.479-28.061-50.687,0C9.668,62.462,51.596,79.677,68.087,97.192
	c16.491-17.516,58.419-34.731,50.687-64.832C111.566,4.299,77.635,5.421,68.087,32.36z"/>
<path d="M245.8,44.976c-2.608-3.48-6.231-5.479-10.766-5.939c-3.478-0.353-7.542,2.05-10.812,3.979
	c-1.153,0.68-2.639,1.557-3.524,1.906c0.044-0.357,0.152-0.905,0.394-1.722c0.729-2.461,2.001-4.648,3.231-6.762
	c3.065-5.271,6.234-10.721,0.215-19.421c-3.475-5.023-10.579-7.814-21.718-8.531l-1.423-0.092V8.383l-0.085,0.005l-0.085-0.005
	v0.011l-1.423,0.092c-11.139,0.717-18.243,3.507-21.718,8.531c-6.019,8.7-2.85,14.15,0.215,19.421
	c1.23,2.115,2.501,4.301,3.231,6.763c0.242,0.817,0.349,1.365,0.394,1.722c-0.886-0.349-2.372-1.226-3.524-1.906
	c-3.271-1.93-7.332-4.332-10.812-3.979c-4.535,0.461-8.157,2.459-10.766,5.939c-4.69,6.257-4.962,16.042-3.654,23.113
	c1.924,10.391,7.877,17.392,16.334,19.21c1.396,0.3,2.802,0.446,4.209,0.446c7.719,0,15.406-4.418,20.798-12.191
	c0.898-1.294,1.594-2.581,2.208-3.716c0.3-0.555,0.67-1.238,0.977-1.723c0.2,0.384,0.48,1.012,0.837,2.007l0.018,8.514
	c-1.751,6.807-6.857,13.814-11.035,17.246l-3.236,2.659h16.752h0.561h16.752l-3.236-2.659c-4.178-3.432-9.284-10.438-11.035-17.246
	l0.018-8.529c0.355-0.99,0.634-1.611,0.835-1.995c0.307,0.484,0.678,1.169,0.978,1.724c0.614,1.136,1.31,2.423,2.208,3.717
	c5.392,7.773,13.079,12.191,20.798,12.191c1.406,0,2.815-0.146,4.209-0.446c8.457-1.818,14.41-8.819,16.334-19.21
	C250.763,61.018,250.49,51.233,245.8,44.976z"/>
<polygon fill="#FF0000" points="335.974,100.72 382.518,54.769 335.138,6.776 335.137,6.777 335.137,6.776 286.552,54.751 
	333.115,100.72 334.526,102.149 334.544,102.131 334.563,102.149 "/>
<path d="M487.505,28.347c-7.226-5.373-14.694-10.929-19.436-17.417l0.038-0.053l-0.17-0.124l-0.122-0.169l-0.056,0.04l-0.056-0.04
	l-0.122,0.169l-0.17,0.124l0.038,0.053c-4.743,6.488-12.21,12.044-19.436,17.417c-14.151,10.523-28.784,21.404-23.562,39.782
	c2.897,10.197,10.888,17.081,20.356,17.539c9.052,0.446,17.078-5.047,21.249-14.402c-0.561,9.962-2.036,20.049-10.167,26.631
	l-0.549,0.444h12.169h0.5h12.169l-0.549-0.444c-8.131-6.582-9.606-16.669-10.167-26.631c4.171,9.355,12.217,14.848,21.249,14.402
	c9.469-0.458,17.459-7.343,20.355-17.539C516.289,49.751,501.656,38.87,487.505,28.347z"/>
</svg>
